<svg width="736" height="736" xmlns="http://www.w3.org/2000/svg" version="1.1" class="icon">

 <g>
  <title>Layer 1</title>
  <path id="svg_1" fill="#FFFFFF" d="m281.39999,323.49995l-17,46.7l34.4,0l-17.4,-46.7z"/>
  <path id="svg_2" fill="#FFFFFF" d="m574.29999,129.69995l-413.1,0c-16.5,0 -30,13.5 -30,30l0,413.1c0,16.5 13.5,30 30,30l413.1,0c16.5,0 30,-13.5 30,-30l0,-413.1c0,-16.6 -13.5,-30 -30,-30zm-98.8,164.5l25.4,0l0,125.8l-25.4,0l0,-125.8zm-116.5,0l40.8,0c15.5,0 25.5,0.6 30.2,1.9c7.2,1.9 13.2,6 18.1,12.3c4.9,6.3 7.3,14.5 7.3,24.5c0,7.7 -1.4,14.2 -4.2,19.5s-6.4,9.4 -10.7,12.4c-4.3,3 -8.7,5 -13.2,6c-6.1,1.2 -14.8,1.8 -26.4,1.8l-16.6,0l0,47.4l-25.3,0l0,-125.8zm-90.7,0l26.9,0l50.3,125.8l-27.6,0l-11,-28.6l-50.3,0l-10.4,28.6l-27,0l49.1,-125.8zm229.1,273.3l-295.8,0c-19.4,0 -35.1,-15.7 -35.1,-35.1l0,-295c0,-5.5 4.5,-10 10,-10s10,4.5 10,10l0,295c0,8.3 6.8,15.1 15.1,15.1l295.8,0c5.5,0 10,4.5 10,10s-4.4,10 -10,10z"/>
  <path id="svg_3" fill="#FFFFFF" d="m418.39999,349.19995c3.4,-1.3 6,-3.4 7.9,-6.2c1.9,-2.8 2.9,-6.1 2.9,-9.8c0,-4.6 -1.3,-8.4 -4,-11.3c-2.7,-3 -6.1,-4.8 -10.2,-5.6c-3,-0.6 -9.1,-0.9 -18.3,-0.9l-12.3,0l0,35.7l13.9,0c10,0.1 16.7,-0.6 20.1,-1.9z"/>
  <path id="svg_4" fill="#06F3FF" d="m497.39999,547.49995l-295.8,0c-8.3,0 -15.1,-6.8 -15.1,-15.1l0,-295c0,-5.5 -4.5,-10 -10,-10s-10,4.5 -10,10l0,295c0,19.4 15.7,35.1 35.1,35.1l295.8,0c5.5,0 10,-4.5 10,-10s-4.4,-10 -10,-10z"/>
  <path id="svg_5" fill="#005BFF" d="m714.49999,256.49995c11,0 20,-9 20,-20s-9,-20 -20,-20l-69.7,0l0,-56.8c0,-38.6 -31.4,-70 -70,-70l-27.8,0l0,-67.3c0,-11 -9,-20 -20,-20s-20,9 -20,20l0,67.3l-46.5,0l0,-67.3c0,-11 -9,-20 -20,-20s-20,9 -20,20l0,67.3l-46.5,0l0,-67.3c0,-11 -9,-20 -20,-20s-20,9 -20,20l0,67.3l-46.5,0l0,-67.3c0,-11 -9,-20 -20,-20s-20,9 -20,20l0,67.3l-85.8,0c-38.6,0 -70,31.4 -70,70l0,56.8l-69.7,0c-11,0 -20,9 -20,20s9,20 20,20l69.7,0l0,46.5l-69.7,0c-11,0 -20,9 -20,20s9,20 20,20l69.7,0l0,46.5l-69.7,0c-11,0 -20,9 -20,20s9,20 20,20l69.7,0l0,46.5l-69.7,0c-11,0 -20,9 -20,20s9,20 20,20l69.7,0l0,56.8c0,38.6 31.4,70 70,70l30.8,0l0,72.5c0,11 9,20 20,20s20,-9 20,-20l0,-72.5l46.5,0l0,72.5c0,11 9,20 20,20s20,-9 20,-20l0,-72.5l46.5,0l0,72.5c0,11 9,20 20,20s20,-9 20,-20l0,-72.5l46.5,0l0,72.5c0,11 9,20 20,20s20,-9 20,-20l0,-72.5l82.8,0c38.6,0 70,-31.4 70,-70l0,-56.8l69.7,0c11,0 20,-9 20,-20s-9,-20 -20,-20l-69.7,0l0,-46.5l69.7,0c11,0 20,-9 20,-20s-9,-20 -20,-20l-69.7,0l0,-46.5l69.7,0c11,0 20,-9 20,-20s-9,-20 -20,-20l-69.7,0l0,-46.5l69.7,0zm-109.7,316.2c0,16.5 -13.5,30 -30,30l-413.1,0c-16.5,0 -30,-13.5 -30,-30l0,-413c0,-16.5 13.5,-30 30,-30l413.1,0c16.5,0 30,13.5 30,30l0,413z"/>
  <path id="svg_6" fill="#005BFF" d="m256.59999,391.39995l50.3,0l11,28.6l27.6,0l-50.4,-125.8l-26.9,0l-49,125.8l27,0l10.4,-28.6zm24.8,-67.9l17.3,46.7l-34.3,0l17,-46.7zm103,49.1l16.6,0c11.5,0 20.3,-0.6 26.4,-1.8c4.5,-1 8.9,-3 13.2,-6c4.3,-3 7.9,-7.1 10.7,-12.4s4.2,-11.8 4.2,-19.5c0,-10 -2.4,-18.2 -7.3,-24.5c-4.9,-6.3 -10.9,-10.4 -18.1,-12.3c-4.7,-1.3 -14.8,-1.9 -30.2,-1.9l-40.9,0l0,125.8l25.4,0l0,-47.4zm0,-57.1l12.3,0c9.2,0 15.2,0.3 18.3,0.9c4.1,0.7 7.5,2.6 10.2,5.6c2.7,3 4,6.8 4,11.3c0,3.7 -1,7 -2.9,9.8c-1.9,2.8 -4.6,4.9 -7.9,6.2c-3.4,1.3 -10.1,2 -20.1,2l-13.9,0l0,-35.8zm91.1,-21.3l25.4,0l0,125.8l-25.4,0l0,-125.8z"/>
 </g>
</svg>