<svg width="52" height="51" viewBox="0 0 52 51" fill="none" xmlns="http://www.w3.org/2000/svg">
<path fill-rule="evenodd" clip-rule="evenodd" d="M10.4973 11.5509C9.37539 12.9592 8.78679 15.1708 8.78679 18.3246V32.6692C8.78679 35.6703 9.6673 37.8735 11.1225 39.3258C12.578 40.7786 14.7877 41.6585 17.7991 41.6585H32.1112C35.1141 41.6585 37.3177 40.7791 38.7697 39.327C40.2216 37.8747 41.1008 35.6711 41.1008 32.6692V32.6607L41.1522 23.5368C41.1522 23.5355 41.1522 23.5339 41.1522 23.5325C41.1516 20.3018 40.5547 18.2178 39.4621 16.9385C38.4146 15.712 36.6557 14.9361 33.59 14.9361H28.3855H28.3814C26.6007 14.931 24.9249 14.0933 23.853 12.6717L23.8516 12.67L22.1727 10.4364C21.6568 9.74932 20.8489 9.34465 19.9926 9.34465H16.3145C13.3215 9.34465 11.5635 10.2125 10.4973 11.5509ZM8.19601 9.71754C9.98368 7.47356 12.7251 6.40234 16.3145 6.40234H19.9926C21.7775 6.40234 23.455 7.24439 24.5246 8.66849C24.5244 8.66829 24.5248 8.66869 24.5246 8.66849L26.2023 10.9002C26.2019 10.8999 26.2025 10.9006 26.2023 10.9002C26.7194 11.5852 27.5283 11.9907 28.3878 11.9938H33.59C37.1222 11.9938 39.8797 12.8968 41.6996 15.0278C43.4738 17.1054 44.0945 20.056 44.0945 23.5368V23.5451L44.0431 32.6692C44.0431 32.6705 44.0431 32.6721 44.0431 32.6735C44.0421 36.2502 42.9821 39.2752 40.8503 41.4072C38.7175 43.5404 35.6908 44.6008 32.1112 44.6008H17.7991C14.2129 44.6008 11.1808 43.541 9.04403 41.4084C6.90687 39.2754 5.84448 36.2484 5.84448 32.6692V18.3246C5.84448 14.9054 6.46411 11.8915 8.19601 9.71754Z" fill="#111827"/>
<path fill-rule="evenodd" clip-rule="evenodd" d="M20.9237 23.8604V25.1487C20.9237 25.9612 20.265 26.6198 19.4526 26.6198C18.6401 26.6198 17.9814 25.9612 17.9814 25.1487V23.3096C17.9814 21.9922 19.0498 20.918 20.3731 20.918H29.5682C30.8917 20.918 31.9599 21.9922 31.9599 23.3096V25.1487C31.9599 25.9612 31.3013 26.6198 30.4888 26.6198C29.6763 26.6198 29.0176 25.9612 29.0176 25.1487V23.8604H26.439V31.9543H27.7297C28.5422 31.9543 29.2008 32.6127 29.2008 33.4254C29.2008 34.2379 28.5422 34.8966 27.7297 34.8966H22.2127C21.4 34.8966 20.7415 34.2379 20.7415 33.4254C20.7415 32.6127 21.4 31.9543 22.2127 31.9543H23.4967V23.8604H20.9237Z" fill="#111827"/>
</svg>
