<svg width="26" height="26" viewBox="0 0 26 26" fill="none" xmlns="http://www.w3.org/2000/svg">
<rect width="26" height="26" rx="5" fill="#73F9BC"/>
<path d="M13.7045 12.6818C13.7045 13.9508 13.464 15.0303 12.983 15.9205C12.5057 16.8106 11.8542 17.4905 11.0284 17.9602C10.2064 18.4261 9.2822 18.6591 8.25568 18.6591C7.22159 18.6591 6.29356 18.4242 5.47159 17.9545C4.64962 17.4848 4 16.8049 3.52273 15.9148C3.04545 15.0246 2.80682 13.947 2.80682 12.6818C2.80682 11.4129 3.04545 10.3333 3.52273 9.44318C4 8.55303 4.64962 7.875 5.47159 7.40909C6.29356 6.93939 7.22159 6.70455 8.25568 6.70455C9.2822 6.70455 10.2064 6.93939 11.0284 7.40909C11.8542 7.875 12.5057 8.55303 12.983 9.44318C13.464 10.3333 13.7045 11.4129 13.7045 12.6818ZM11.2102 12.6818C11.2102 11.8598 11.0871 11.1667 10.8409 10.6023C10.5985 10.0379 10.2557 9.60985 9.8125 9.31818C9.36932 9.02652 8.85038 8.88068 8.25568 8.88068C7.66098 8.88068 7.14205 9.02652 6.69886 9.31818C6.25568 9.60985 5.91098 10.0379 5.66477 10.6023C5.42235 11.1667 5.30114 11.8598 5.30114 12.6818C5.30114 13.5038 5.42235 14.197 5.66477 14.7614C5.91098 15.3258 6.25568 15.7538 6.69886 16.0455C7.14205 16.3371 7.66098 16.483 8.25568 16.483C8.85038 16.483 9.36932 16.3371 9.8125 16.0455C10.2557 15.7538 10.5985 15.3258 10.8409 14.7614C11.0871 14.197 11.2102 13.5038 11.2102 12.6818ZM20.5595 10.2102C20.514 9.75189 20.319 9.39583 19.9743 9.14205C19.6296 8.88826 19.1618 8.76136 18.5709 8.76136C18.1693 8.76136 17.8303 8.81818 17.5538 8.93182C17.2773 9.04167 17.0652 9.19508 16.9174 9.39205C16.7735 9.58902 16.7015 9.8125 16.7015 10.0625C16.694 10.2708 16.7375 10.4527 16.8322 10.608C16.9307 10.7633 17.0652 10.8977 17.2356 11.0114C17.4061 11.1212 17.603 11.2178 17.8265 11.3011C18.05 11.3807 18.2887 11.4489 18.5424 11.5057L19.5879 11.7557C20.0955 11.8693 20.5614 12.0208 20.9856 12.2102C21.4099 12.3996 21.7773 12.6326 22.0879 12.9091C22.3985 13.1856 22.639 13.5114 22.8095 13.8864C22.9837 14.2614 23.0727 14.6913 23.0765 15.1761C23.0727 15.8883 22.8909 16.5057 22.5311 17.0284C22.175 17.5473 21.6599 17.9508 20.9856 18.2386C20.3152 18.5227 19.5065 18.6648 18.5595 18.6648C17.6201 18.6648 16.8019 18.5208 16.1049 18.233C15.4118 17.9451 14.8701 17.5189 14.4799 16.9545C14.0936 16.3864 13.8909 15.6837 13.872 14.8466H16.2527C16.2792 15.2367 16.3909 15.5625 16.5879 15.8239C16.7887 16.0814 17.0557 16.2765 17.389 16.4091C17.7262 16.5379 18.1068 16.6023 18.5311 16.6023C18.9477 16.6023 19.3095 16.5417 19.6163 16.4205C19.9269 16.2992 20.1674 16.1307 20.3379 15.9148C20.5084 15.6989 20.5936 15.4508 20.5936 15.1705C20.5936 14.9091 20.5159 14.6894 20.3606 14.5114C20.2091 14.3333 19.9856 14.1818 19.6902 14.0568C19.3985 13.9318 19.0405 13.8182 18.6163 13.7159L17.3493 13.3977C16.3682 13.1591 15.5936 12.786 15.0254 12.2784C14.4572 11.7708 14.175 11.0871 14.1788 10.2273C14.175 9.52273 14.3625 8.9072 14.7413 8.38068C15.1239 7.85417 15.6485 7.44318 16.3152 7.14773C16.9818 6.85227 17.7394 6.70455 18.5879 6.70455C19.4515 6.70455 20.2053 6.85227 20.8493 7.14773C21.497 7.44318 22.0008 7.85417 22.3606 8.38068C22.7205 8.9072 22.9061 9.51705 22.9174 10.2102H20.5595Z" fill="black"/>
</svg>
