<svg width="1920" height="1200" viewBox="0 0 1920 1200" fill="none" xmlns="http://www.w3.org/2000/svg">
<g clip-path="url(#clip0_1387_4292)">
<g opacity="0.4">
<path d="M815.139 -461.52L777.63 186.544C773.984 249.539 825.161 302.094 888.231 300.122L1370.02 285.059C1392.89 284.343 1411.16 303.946 1408.83 326.712L1286.88 1519.63" stroke="black" stroke-width="3.026"/>
<path d="M815.139 -461.52L777.63 186.544C773.984 249.539 825.161 302.094 888.231 300.122L1370.02 285.059C1392.89 284.343 1411.16 303.946 1408.83 326.712L1286.88 1519.63" stroke="url(#paint0_linear_1387_4292)" stroke-width="3.026"/>
<path d="M933.909 -459.75L900.384 93.9714C897.589 140.138 935.029 178.745 981.259 177.367L1441.68 163.651C1488.87 162.245 1526.67 202.439 1522.37 249.461L1406.03 1520.88" stroke="black" stroke-width="3.026"/>
<path d="M933.909 -459.75L900.384 93.9714C897.589 140.138 935.029 178.745 981.259 177.367L1441.68 163.651C1488.87 162.245 1526.67 202.439 1522.37 249.461L1406.03 1520.88" stroke="url(#paint1_linear_1387_4292)" stroke-width="3.026"/>
<path d="M2626.79 -461.109L2598.06 35.8182C2595.75 75.7794 2563.8 107.636 2523.83 109.834L1749.24 152.439C1691.29 155.627 1644.52 200.99 1639.57 258.821L1531.45 1520.88" stroke="black" stroke-width="3.026"/>
<path d="M2626.79 -461.109L2598.06 35.8182C2595.75 75.7794 2563.8 107.636 2523.83 109.834L1749.24 152.439C1691.29 155.627 1644.52 200.99 1639.57 258.821L1531.45 1520.88" stroke="url(#paint2_linear_1387_4292)" stroke-width="3.026"/>
<path d="M2740.42 -466.895L2711.08 152.475C2709.17 192.771 2677.1 225.094 2636.82 227.309L1803.73 273.132C1779.73 274.452 1760.33 293.186 1758.17 317.129L1649.34 1524.64" stroke="black" stroke-width="3.026"/>
<path d="M2740.42 -466.895L2711.08 152.475C2709.17 192.771 2677.1 225.094 2636.82 227.309L1803.73 273.132C1779.73 274.452 1760.33 293.186 1758.17 317.129L1649.34 1524.64" stroke="url(#paint3_linear_1387_4292)" stroke-width="3.026"/>
<path d="M2869.59 -465.633L2827.59 225.281C2824.05 283.545 2777.41 329.912 2719.13 333.118L1930.76 376.481C1899.12 378.221 1873.6 403.007 1870.93 434.583L1779 1522.97" stroke="black" stroke-width="3.026"/>
<path d="M2869.59 -465.633L2827.59 225.281C2824.05 283.545 2777.41 329.912 2719.13 333.118L1930.76 376.481C1899.12 378.221 1873.6 403.007 1870.93 434.583L1779 1522.97" stroke="url(#paint4_linear_1387_4292)" stroke-width="3.026"/>
<path d="M1061.54 -465.076L1024.88 38.2586C1023.63 55.4873 1037.75 69.9239 1055 69.0572L2426.18 0.1754C2440.38 -0.537659 2451.92 -11.5163 2453.34 -25.6571L2498.38 -473.164" stroke="black" stroke-width="3.026"/>
<path d="M1061.54 -465.076L1024.88 38.2586C1023.63 55.4873 1037.75 69.9239 1055 69.0572L2426.18 0.1754C2440.38 -0.537659 2451.92 -11.5163 2453.34 -25.6571L2498.38 -473.164" stroke="url(#paint5_linear_1387_4292)" stroke-width="3.026"/>
</g>
</g>
<defs>
<linearGradient id="paint0_linear_1387_4292" x1="1170.11" y1="529.053" x2="1022.5" y2="527.375" gradientUnits="userSpaceOnUse">
<stop stop-color="#2184E8"/>
<stop offset="1" stop-color="#4CE09D"/>
</linearGradient>
<linearGradient id="paint1_linear_1387_4292" x1="1290.27" y1="530.564" x2="1145.69" y2="528.954" gradientUnits="userSpaceOnUse">
<stop stop-color="#2184E8"/>
<stop offset="1" stop-color="#4CE09D"/>
</linearGradient>
<linearGradient id="paint2_linear_1387_4292" x1="1943.34" y1="529.884" x2="2193.38" y2="525.07" gradientUnits="userSpaceOnUse">
<stop stop-color="#2184E8"/>
<stop offset="1" stop-color="#4CE09D"/>
</linearGradient>
<linearGradient id="paint3_linear_1387_4292" x1="2059.63" y1="528.873" x2="2308.7" y2="524.12" gradientUnits="userSpaceOnUse">
<stop stop-color="#2184E8"/>
<stop offset="1" stop-color="#4CE09D"/>
</linearGradient>
<linearGradient id="paint4_linear_1387_4292" x1="2189.11" y1="528.671" x2="2438.06" y2="523.915" gradientUnits="userSpaceOnUse">
<stop stop-color="#2184E8"/>
<stop offset="1" stop-color="#4CE09D"/>
</linearGradient>
<linearGradient id="paint5_linear_1387_4292" x1="1947.19" y1="-191.893" x2="1615.2" y2="-222.026" gradientUnits="userSpaceOnUse">
<stop stop-color="#2184E8"/>
<stop offset="1" stop-color="#4CE09D"/>
</linearGradient>
<clipPath id="clip0_1387_4292">
<rect width="1920" height="1200" fill="white"/>
</clipPath>
</defs>
</svg>
