<svg width="21" height="8" viewBox="0 0 21 8" fill="none" xmlns="http://www.w3.org/2000/svg">
<path d="M11.6844 0.438477C10.3352 0.438477 9.23751 1.53613 9.23751 2.8855C9.23751 4.23488 10.3352 5.33239 11.6844 5.33239C13.0336 5.33239 14.1314 4.23474 14.1314 2.8855C14.1314 1.53627 13.0335 0.438477 11.6844 0.438477ZM11.6844 4.41486C10.8411 4.41486 10.155 3.72867 10.155 2.8855C10.155 2.04233 10.8411 1.35615 11.6844 1.35615C12.5277 1.35615 13.2138 2.0422 13.2138 2.8855C13.2138 3.72881 12.5279 4.41486 11.6844 4.41486Z" fill="black"/>
<path d="M8.30661 0.448466C8.22302 0.439102 8.13902 0.434145 8.05502 0.433594C8.01316 0.433594 7.97309 0.434833 7.93205 0.435522C7.89101 0.43621 7.85025 0.440066 7.80935 0.442544C7.64452 0.455489 7.48134 0.483718 7.32174 0.526683C7.00102 0.613299 6.69187 0.763949 6.42459 0.977944C6.15331 1.19414 5.93601 1.47024 5.78963 1.78476C5.71664 1.94147 5.6628 2.10644 5.6292 2.27596C5.61254 2.35968 5.60028 2.44423 5.59257 2.52933C5.58981 2.57161 5.585 2.61402 5.58444 2.65616L5.58293 2.71937L5.58224 2.75104V2.7772L5.58431 3.59669L5.58637 4.41618L5.59202 5.23552H6.50969L6.51547 4.41618L6.51754 3.59655L6.5196 2.77707V2.752L6.52029 2.73245L6.52139 2.6932C6.52139 2.6669 6.52525 2.64156 6.52676 2.61554C6.53172 2.56459 6.53929 2.51391 6.54949 2.46379C6.56959 2.36519 6.60099 2.26921 6.64285 2.17777C6.72726 1.99435 6.85326 1.83323 7.01094 1.70696C7.17012 1.57862 7.36085 1.48277 7.56699 1.42576C7.67123 1.39726 7.77796 1.37839 7.88564 1.36958C7.91291 1.36806 7.94004 1.36545 7.96744 1.36448C7.99484 1.36352 8.0228 1.36269 8.04937 1.36283C8.10211 1.36283 8.15403 1.36627 8.20663 1.37109C8.41567 1.39216 8.61824 1.45633 8.80125 1.55947L9.25926 0.764087C8.96663 0.594021 8.64233 0.486748 8.30661 0.448466Z" fill="black"/>
<path d="M2.44703 0.426758C1.09765 0.426758 0 1.52441 0 2.87365C0 4.22289 1.09765 5.32067 2.44703 5.32067H3.25178V4.40301H2.44703C1.60372 4.40301 0.91767 3.71696 0.91767 2.87365C0.91767 2.03034 1.60372 1.34429 2.44703 1.34429C3.29034 1.34429 3.97997 2.03034 3.97997 2.87365V5.1272C3.97997 5.965 3.29777 6.64733 2.46204 6.65614C2.06214 6.65284 1.67973 6.49214 1.39771 6.2086L0.748843 6.85747C1.19859 7.30956 1.80794 7.56679 2.44551 7.57367V7.57409C2.45102 7.57409 2.45653 7.57409 2.4619 7.57409H2.47911V7.57367C3.80921 7.55564 4.88621 6.47134 4.8924 5.13822L4.89323 2.81361C4.86128 1.49219 3.77616 0.426758 2.44703 0.426758Z" fill="black"/>
<path d="M17.0873 0.438477C15.7381 0.438477 14.6404 1.53613 14.6404 2.8855C14.6404 4.23488 15.7381 5.33239 17.0873 5.33239H17.9246V4.41486H17.0873C16.244 4.41486 15.558 3.72867 15.558 2.8855C15.558 2.04233 16.244 1.35615 17.0873 1.35615C17.8859 1.35615 18.5431 1.97141 18.6106 2.75289H18.6092V7.45141H19.5269V2.8855C19.5266 1.53613 18.4366 0.438477 17.0873 0.438477Z" fill="black"/>
<path d="M20.9283 0.563477H20.7974L20.619 0.840678L20.4347 0.563477H20.3027V1.05701H20.4502V0.816855L20.581 1.01074H20.6523L20.7808 0.810795L20.7831 1.05701H20.9306L20.9283 0.563477Z" fill="black"/>
<path d="M19.7625 0.681352H19.9231V1.05701H20.0849V0.681352H20.2466V0.563477H19.7625V0.681352Z" fill="black"/>
</svg>
