<svg width="18" height="18" viewBox="0 0 18 18" fill="none" xmlns="http://www.w3.org/2000/svg">
<g clip-path="url(#clip0_14307_65305)">
<path d="M16.7107 7.36581C16.912 6.75971 16.9816 6.11765 16.9149 5.48251C16.8482 4.84737 16.6467 4.23377 16.3239 3.68271C15.8454 2.84978 15.1148 2.19032 14.2373 1.79942C13.3598 1.40853 12.3809 1.30638 11.4416 1.50771C10.908 0.914128 10.2276 0.47141 9.46869 0.224016C8.70982 -0.0233788 7.89922 -0.0667387 7.11829 0.0982905C6.33736 0.26332 5.6136 0.630928 5.0197 1.16419C4.4258 1.69746 3.98267 2.37761 3.73483 3.13633C3.10907 3.26465 2.51792 3.52505 2.00087 3.90013C1.48381 4.27521 1.05277 4.75632 0.73655 5.31133C0.252826 6.14287 0.0460859 7.10671 0.146218 8.06349C0.246351 9.02026 0.648167 9.92041 1.29358 10.6338C1.09157 11.2396 1.02127 11.8815 1.08736 12.5167C1.15346 13.1519 1.35442 13.7656 1.67683 14.3168C2.15596 15.15 2.88726 15.8096 3.76536 16.2005C4.64345 16.5914 5.62298 16.6935 6.56278 16.4919C6.98672 16.9693 7.50764 17.3508 8.09076 17.6108C8.67387 17.8709 9.30576 18.0036 9.94423 18C10.907 18.0009 11.8451 17.6958 12.6231 17.1288C13.4012 16.5619 13.979 15.7623 14.2731 14.8456C14.8988 14.7171 15.4898 14.4566 16.0068 14.0815C16.5239 13.7065 16.955 13.2254 17.2714 12.6706C17.7494 11.8402 17.9525 10.88 17.8518 9.92724C17.7512 8.97447 17.3517 8.07786 16.7107 7.36581ZM9.94423 16.8219C9.15576 16.8231 8.39203 16.5468 7.78693 16.0413L7.89335 15.981L11.4771 13.9123C11.5663 13.86 11.6403 13.7854 11.692 13.6958C11.7436 13.6062 11.771 13.5048 11.7716 13.4014V8.34868L13.2866 9.22513C13.2941 9.22892 13.3006 9.23444 13.3055 9.24121C13.3105 9.24799 13.3138 9.25584 13.3151 9.26413V13.4511C13.3132 14.3445 12.9574 15.2008 12.3257 15.8325C11.6939 16.4643 10.8376 16.82 9.94423 16.8219ZM2.6987 13.7278C2.30328 13.045 2.1613 12.2447 2.29775 11.4676L2.40425 11.5315L5.9915 13.6001C6.08026 13.6522 6.18131 13.6796 6.28423 13.6796C6.38714 13.6796 6.48819 13.6522 6.57695 13.6001L10.9591 11.0737V12.823C10.9586 12.8321 10.9562 12.841 10.9519 12.8489C10.9476 12.8569 10.9415 12.8638 10.9342 12.8692L7.3043 14.9626C6.52965 15.4089 5.60956 15.5295 4.74606 15.298C3.88255 15.0665 3.14621 14.5018 2.6987 13.7278ZM1.7549 5.92168C2.15306 5.23451 2.78152 4.71038 3.52903 4.44208V8.69998C3.52768 8.80285 3.55396 8.90419 3.60513 8.99344C3.6563 9.08268 3.73049 9.15656 3.81995 9.20736L8.18075 11.7231L6.66568 12.5995C6.65748 12.6038 6.64833 12.6061 6.63905 12.6061C6.62977 12.6061 6.62063 12.6038 6.61243 12.5995L2.9897 10.5096C2.2165 10.0614 1.65241 9.32506 1.42097 8.46184C1.18954 7.59862 1.30961 6.67886 1.7549 5.90398V5.92168ZM14.2021 8.81353L9.82715 6.27298L11.3387 5.39998C11.3469 5.39563 11.356 5.39335 11.3653 5.39335C11.3746 5.39335 11.3838 5.39563 11.392 5.39998L15.0147 7.49346C15.5686 7.81307 16.0202 8.28366 16.3166 8.85029C16.6131 9.41691 16.7423 10.0562 16.6891 10.6935C16.6359 11.3308 16.4025 11.9398 16.0162 12.4494C15.6299 12.959 15.1065 13.3483 14.5073 13.5716V9.31371C14.5042 9.21101 14.4744 9.1109 14.4209 9.0232C14.3673 8.9355 14.292 8.86329 14.2021 8.81353ZM15.7101 6.54621L15.6037 6.48231L12.0235 4.39596C11.9342 4.34355 11.8325 4.31592 11.729 4.31592C11.6255 4.31592 11.5238 4.34355 11.4345 4.39596L7.05605 6.92226V5.17303C7.05512 5.16414 7.0566 5.15516 7.06035 5.14704C7.0641 5.13892 7.06998 5.13196 7.07735 5.12691L10.7001 3.03696C11.2553 2.71709 11.8901 2.56193 12.5303 2.58962C13.1705 2.61731 13.7896 2.82671 14.3151 3.19332C14.8406 3.55993 15.2509 4.0686 15.498 4.65983C15.7451 5.25106 15.8187 5.90042 15.7102 6.53196L15.7101 6.54621ZM6.22918 9.64723L4.71418 8.77438C4.7066 8.76982 4.70011 8.76364 4.69519 8.75629C4.69026 8.74894 4.68702 8.7406 4.68568 8.73186V4.55563C4.68651 3.91496 4.86971 3.28777 5.21386 2.74738C5.55802 2.20699 6.04889 1.77575 6.62911 1.50406C7.20932 1.23237 7.85488 1.13148 8.49032 1.21317C9.12577 1.29485 9.72482 1.55575 10.2175 1.96536L10.111 2.02573L6.5273 4.09423C6.43811 4.14654 6.36405 4.22116 6.31242 4.31074C6.26078 4.40033 6.23333 4.50181 6.23278 4.60521L6.22918 9.64723ZM7.05238 7.87318L9.00388 6.74833L10.9591 7.87318V10.1227L9.011 11.2475L7.05598 10.1227L7.05238 7.87318Z" fill="black"/>
</g>
<defs>
<clipPath id="clip0_14307_65305">
<rect width="18" height="18" fill="white"/>
</clipPath>
</defs>
</svg>
