<svg width="20" height="14" viewBox="0 0 20 14" fill="none" xmlns="http://www.w3.org/2000/svg">
<g clip-path="url(#clip0_14307_65338)">
<path d="M2.10304 9.02494C2.10304 9.76807 2.26615 10.3386 2.47934 10.6838C2.75885 11.1359 3.17576 11.3274 3.60079 11.3274C4.149 11.3274 4.6505 11.1914 5.61697 9.8547C6.39123 8.78333 7.30355 7.27948 7.9174 6.3367L8.95697 4.73946C9.67911 3.63019 10.515 2.39706 11.4733 1.56122C12.2557 0.879007 13.0996 0.5 13.949 0.5C15.375 0.5 16.7334 1.32637 17.7729 2.87624C18.9106 4.57364 19.4629 6.71165 19.4629 8.91801C19.4629 10.2296 19.2044 11.1934 18.7644 11.9548C18.3394 12.6912 17.511 13.4268 16.1175 13.4268V11.3274C17.3107 11.3274 17.6085 10.231 17.6085 8.97621C17.6085 7.18811 17.1916 5.20374 16.2731 3.78585C15.6214 2.78013 14.7767 2.1656 13.8475 2.1656C12.8425 2.1656 12.0337 2.92361 11.1247 4.27518C10.6415 4.99326 10.1454 5.86836 9.58842 6.85581L8.97524 7.94207C7.74347 10.1261 7.43146 10.6235 6.81558 11.4445C5.73609 12.882 4.81429 13.4268 3.60079 13.4268C2.16124 13.4268 1.25095 12.8035 0.687177 11.8641C0.226954 11.0986 0.000904083 10.0943 0.000904083 8.94982L2.10304 9.02494Z" fill="#0081FB"/>
<path d="M1.65916 3.02445C2.62292 1.53888 4.01374 0.5 5.60895 0.5C6.53278 0.5 7.4512 0.773426 8.41022 1.55648C9.45925 2.41263 10.5773 3.8224 11.9722 6.14585L12.4724 6.97966C13.6798 8.9911 14.3667 10.0259 14.7687 10.5139C15.2858 11.1406 15.6479 11.3274 16.1183 11.3274C17.3115 11.3274 17.6092 10.231 17.6092 8.97621L19.4637 8.91801C19.4637 10.2296 19.2051 11.1934 18.7652 11.9548C18.3402 12.6912 17.5118 13.4268 16.1183 13.4268C15.252 13.4268 14.4845 13.2387 13.6358 12.438C12.9833 11.8235 12.2206 10.7318 11.6338 9.75047L9.88834 6.83483C9.01257 5.37159 8.20921 4.28059 7.74425 3.78653C7.2441 3.25524 6.60114 2.61364 5.57511 2.61364C4.74468 2.61364 4.03946 3.19636 3.44929 4.0877L1.65916 3.02445Z" fill="url(#paint0_linear_14307_65338)"/>
<path d="M5.57433 2.61364C4.7439 2.61364 4.03868 3.19636 3.44851 4.0877C2.61402 5.34722 2.10304 7.22331 2.10304 9.02494C2.10304 9.76806 2.26615 10.3386 2.47934 10.6838L0.687177 11.8641C0.226954 11.0986 0.000904083 10.0943 0.000904083 8.94982C0.000904083 6.86866 0.572121 4.69953 1.65838 3.02445C2.62214 1.53888 4.01296 0.5 5.60817 0.5L5.57433 2.61364Z" fill="url(#paint1_linear_14307_65338)"/>
</g>
<defs>
<linearGradient id="paint0_linear_14307_65338" x1="248.758" y1="723.546" x2="1587.2" y2="791.144" gradientUnits="userSpaceOnUse">
<stop stop-color="#0064E1"/>
<stop offset="0.4" stop-color="#0064E1"/>
<stop offset="0.83" stop-color="#0073EE"/>
<stop offset="1" stop-color="#0082FB"/>
</linearGradient>
<linearGradient id="paint1_linear_14307_65338" x1="304.56" y1="941.249" x2="304.56" y2="447.186" gradientUnits="userSpaceOnUse">
<stop stop-color="#0082FB"/>
<stop offset="1" stop-color="#0064E0"/>
</linearGradient>
<clipPath id="clip0_14307_65338">
<rect width="19.462" height="13" fill="white" transform="translate(0 0.5)"/>
</clipPath>
</defs>
</svg>
