<svg width="16" height="16" viewBox="0 0 16 16" fill="none" xmlns="http://www.w3.org/2000/svg">
<path d="M14.9313 4.7264H13.3909V0.0450667L8.38464 4.2812V0.105133H7.61437V4.2362L2.99311 0V4.7264H1.06771V11.6581H2.99317V16L7.61451 11.7606V15.8943H8.38477V11.863L13.006 15.9835V11.6582H14.9314L14.9313 4.7264ZM12.6208 1.70573V4.7264H9.05084L12.6208 1.70573ZM3.76337 1.7508L7.00944 4.7264H3.76337V1.7508ZM1.83791 10.888V5.49667H7.06964L2.99304 9.57313V10.888H1.83791ZM3.76337 14.2483V11.6581L3.76344 9.89227L7.61431 6.04133V10.7154L3.76337 14.2483ZM12.2358 14.2648L8.38471 10.8309V6.0412L12.2358 9.89227V14.2648ZM14.1612 10.888H13.0059V9.57313L8.92937 5.49667H14.1612V10.888Z" fill="black"/>
</svg>
