<svg width="16" height="16" viewBox="0 0 16 16" fill="none" xmlns="http://www.w3.org/2000/svg">
<g clip-path="url(#clip0_14307_65367)">
<path d="M15.6249 8.14946C15.6249 7.49394 15.5717 7.01559 15.4565 6.51953H7.97124V9.47819H12.3649C12.2764 10.2135 11.798 11.3208 10.735 12.0648L10.7201 12.1639L13.0868 13.9973L13.2508 14.0137C14.7567 12.6229 15.6249 10.5766 15.6249 8.14946Z" fill="#4285F4"/>
<path d="M7.97124 15.9455C10.1238 15.9455 11.9309 15.2368 13.2508 14.0144L10.735 12.0655C10.0618 12.535 9.15823 12.8628 7.97124 12.8628C5.86296 12.8628 4.07359 11.4721 3.43572 9.5498L3.34223 9.55774L0.881281 11.4623L0.849098 11.5518C2.16012 14.1561 4.85307 15.9455 7.97124 15.9455Z" fill="#34A853"/>
<path d="M3.43623 9.54887C3.26793 9.05281 3.17052 8.52127 3.17052 7.97208C3.17052 7.42283 3.26793 6.89135 3.42738 6.39529L3.42292 6.28964L0.931134 4.35449L0.849607 4.39327C0.309271 5.474 -0.000774384 6.68762 -0.000774384 7.97208C-0.000774384 9.25654 0.309271 10.4701 0.849607 11.5508L3.43623 9.54887Z" fill="#FBBC05"/>
<path d="M7.97124 3.08269C9.46827 3.08269 10.4781 3.72934 11.0539 4.26974L13.3039 2.07285C11.9221 0.788397 10.1238 0 7.97124 0C4.85307 0 2.16012 1.78937 0.849098 4.39371L3.42687 6.39573C4.07359 4.47347 5.86296 3.08269 7.97124 3.08269Z" fill="#EB4335"/>
</g>
<defs>
<clipPath id="clip0_14307_65367">
<rect width="15.6336" height="16" fill="white"/>
</clipPath>
</defs>
</svg>
