<svg width="84" height="17" viewBox="0 0 84 17" fill="none" xmlns="http://www.w3.org/2000/svg">
<g clip-path="url(#clip0_2877_10304)">
<path d="M4.46461 7.07899L4.45432 4.95013C4.44403 3.39949 5.28539 1.96163 6.65139 1.18877L6.79672 1.10171C7.27964 0.82547 7.87177 0.82547 8.35497 1.10171L12.214 3.2971C11.5699 2.94913 10.7805 2.95927 10.1416 3.32257L7.05652 5.07774L5.16591 6.1523L4.9789 6.25988C4.97363 6.25988 4.97363 6.26507 4.96864 6.26507C4.6727 6.44413 4.4857 6.7461 4.46486 7.07874" fill="#2AAD8E"/>
<path d="M14.3444 9.49967V10.2161C14.3444 11.3931 13.7056 12.4833 12.6719 13.0768L8.51672 15.4513C9.8827 14.6784 10.7241 13.2405 10.7138 11.6899L10.7035 9.561V9.54567C10.7088 9.53033 10.7088 9.50981 10.7088 9.49447V7.13017C10.7088 6.77208 10.5165 6.43919 10.1998 6.25L10.7088 6.54158L13.5655 8.16889C14.0485 8.44511 14.3446 8.95186 14.3446 9.49942L14.3444 9.49967Z" fill="#45C9A9"/>
<path d="M10.7139 11.6911C10.7242 13.2418 9.8828 14.6796 8.51682 15.4525L8.37149 15.5395C7.88854 15.8157 7.29644 15.8157 6.81324 15.5395L2.95422 13.3441C3.59832 13.6921 4.38775 13.682 5.02654 13.3187L8.11169 11.5635L10.0023 10.4889L10.1893 10.3813C10.1946 10.3813 10.1946 10.3761 10.1996 10.3761C10.4955 10.1971 10.6825 9.89511 10.7034 9.5625L10.7136 11.6914L10.7139 11.6911Z" fill="#2AAD8E"/>
<path d="M8.10849 11.5646L5.02334 13.3198C4.38452 13.683 3.59512 13.6935 2.95102 13.3452C2.93546 13.3351 2.9199 13.3299 2.90434 13.3198L0.837036 12.1431L4.47291 10.0859L4.98193 10.3775C4.9872 10.3775 4.9872 10.3827 4.99222 10.3827L7.06981 11.5649C7.39186 11.7491 7.7867 11.7491 8.10849 11.5649V11.5646Z" fill="#13947D"/>
<path d="M4.98195 10.377L4.4729 10.0855L1.61617 8.45815C1.13323 8.1819 0.837036 7.67515 0.837036 7.1276V6.41115C0.837036 5.23418 1.47585 4.14401 2.5095 3.55048L6.66495 1.17578C5.29898 1.94864 4.45759 3.38651 4.46788 4.93715L4.47817 7.06601V7.08135C4.4729 7.09668 4.4729 7.11721 4.4729 7.13254V9.49685C4.4729 9.85496 4.66517 10.1876 4.98195 10.377Z" fill="#45C9A9"/>
<path d="M14.3429 4.48782L10.707 6.54496L10.198 6.2534C10.1927 6.2534 10.1927 6.24821 10.1877 6.24821L8.11009 5.06604C7.78805 4.88179 7.3932 4.88179 7.07141 5.06604L10.1566 3.31088C10.7954 2.94758 11.5848 2.93744 12.2289 3.2854C12.2444 3.29554 12.26 3.30074 12.2756 3.31088L14.3429 4.48782Z" fill="#13947D"/>
<path d="M23.5581 6.29661C23.52 5.91822 23.3565 5.62425 23.0677 5.41469C22.7789 5.20516 22.3869 5.10041 21.8917 5.10041C21.5552 5.10041 21.2712 5.1473 21.0395 5.24113C20.8077 5.33183 20.63 5.4585 20.5062 5.62111C20.3856 5.78372 20.3253 5.96825 20.3253 6.17466C20.3189 6.34666 20.3554 6.49677 20.4348 6.625C20.5173 6.75322 20.63 6.86425 20.7728 6.95805C20.9157 7.04875 21.0807 7.1285 21.268 7.1973C21.4553 7.26297 21.6552 7.31927 21.8679 7.36619L22.7439 7.57258C23.1693 7.66641 23.5597 7.7915 23.9152 7.94786C24.2707 8.10425 24.5786 8.29658 24.8388 8.52486C25.0991 8.75316 25.3007 9.02211 25.4435 9.33172C25.5895 9.64133 25.6641 9.9963 25.6673 10.3966C25.6641 10.9846 25.5118 11.4943 25.2102 11.9259C24.9119 12.3543 24.4802 12.6874 23.9152 12.9251C23.3534 13.1596 22.6757 13.2769 21.8822 13.2769C21.095 13.2769 20.4094 13.1581 19.8254 12.9204C19.2445 12.6827 18.7906 12.3309 18.4637 11.8649C18.1399 11.3958 17.9701 10.8157 17.9542 10.1245H19.9492C19.9714 10.4466 20.065 10.7156 20.2301 10.9314C20.3983 11.144 20.6221 11.3051 20.9014 11.4146C21.1839 11.5209 21.5029 11.5741 21.8584 11.5741C22.2075 11.5741 22.5106 11.524 22.7678 11.4239C23.028 11.3239 23.2296 11.1847 23.3724 11.0064C23.5152 10.8282 23.5867 10.6233 23.5867 10.3919C23.5867 10.1761 23.5216 9.99472 23.3915 9.84775C23.2645 9.70075 23.0772 9.57566 22.8296 9.47247C22.5852 9.36925 22.2853 9.27544 21.9298 9.191L20.868 8.9283C20.046 8.73127 19.3969 8.42322 18.9207 8.00416C18.4446 7.58511 18.2082 7.02061 18.2113 6.31069C18.2082 5.729 18.3653 5.2208 18.6827 4.78611C19.0033 4.35138 19.4429 4.01208 20.0015 3.76813C20.5602 3.52422 21.195 3.40225 21.906 3.40225C22.6297 3.40225 23.2613 3.52422 23.8009 3.76813C24.3437 4.01208 24.7659 4.35138 25.0674 4.78611C25.3689 5.2208 25.5245 5.7243 25.534 6.29661H23.5581ZM27.0159 13.1409V5.93541H28.9491V7.20669H29.0345C29.187 6.7845 29.441 6.45141 29.7965 6.2075C30.1518 5.96355 30.5772 5.84158 31.0723 5.84158C31.5738 5.84158 32.0009 5.96511 32.3531 6.21219C32.7055 6.45611 32.9403 6.78761 33.0579 7.20669H33.134C33.2832 6.79386 33.553 6.46394 33.9434 6.21688C34.337 5.96669 34.8019 5.84158 35.3384 5.84158C36.0207 5.84158 36.5747 6.0558 37.0001 6.48427C37.4286 6.90958 37.6429 7.51316 37.6429 8.295V13.1409H35.6192V8.68905C35.6192 8.28875 35.5112 7.98852 35.2956 7.78838C35.0796 7.58822 34.8098 7.48813 34.4861 7.48813C34.1179 7.48813 33.8307 7.60386 33.6243 7.83527C33.4182 8.06358 33.315 8.36536 33.315 8.74066V13.1409H31.3486V8.64683C31.3486 8.29344 31.2454 8.01197 31.039 7.80244C30.836 7.59291 30.5676 7.48813 30.2344 7.48813C30.0091 7.48813 29.8058 7.54444 29.6251 7.65702C29.4472 7.76647 29.306 7.92127 29.2014 8.12144C29.0965 8.31847 29.0441 8.54989 29.0441 8.81572V13.1409H27.0159ZM40.2352 15.8429C39.9781 15.8429 39.7368 15.8226 39.5115 15.7819C39.2894 15.7444 39.1053 15.6959 38.9592 15.6365L39.4162 14.1447C39.6545 14.2167 39.8687 14.2558 40.059 14.262C40.2527 14.2683 40.4193 14.2245 40.5589 14.1307C40.7018 14.0369 40.8177 13.8774 40.9065 13.6522L41.0255 13.3473L38.4021 5.93541H40.5352L42.0492 11.2269H42.1253L43.6536 5.93541H45.8011L42.9587 13.9196C42.8222 14.3074 42.6364 14.6451 42.4016 14.9328C42.1698 15.2237 41.8764 15.4473 41.5208 15.6037C41.1653 15.7632 40.7368 15.8429 40.2352 15.8429ZM50.7289 5.93541V7.43655H46.3246V5.93541H50.7289ZM47.3246 4.20911H49.3528V10.9267C49.3528 11.1112 49.3813 11.2551 49.4385 11.3582C49.4958 11.4583 49.575 11.5287 49.6765 11.5694C49.7814 11.61 49.902 11.6303 50.0385 11.6303C50.1338 11.6303 50.2288 11.6225 50.3241 11.6069C50.4194 11.5881 50.4924 11.5741 50.5431 11.5647L50.862 13.0517C50.7605 13.083 50.6178 13.119 50.4337 13.1596C50.2496 13.2034 50.0258 13.23 49.7622 13.2394C49.2736 13.2581 48.8451 13.194 48.4769 13.047C48.1118 12.9001 47.8276 12.6717 47.6246 12.3621C47.4213 12.0525 47.3215 11.6616 47.3246 11.1894V4.20911ZM54.2353 8.97522V13.1409H52.2071V3.53358H54.1783V7.20669H54.264C54.429 6.78136 54.6957 6.4483 55.0639 6.2075C55.4321 5.96355 55.8939 5.84158 56.4493 5.84158C56.9573 5.84158 57.3999 5.95105 57.7777 6.16997C58.1586 6.38575 58.4538 6.69691 58.6633 7.10347C58.8758 7.50691 58.9807 7.99008 58.9776 8.55302V13.1409H56.9491V8.90952C56.9525 8.46544 56.838 8.11988 56.6066 7.8728C56.3779 7.62575 56.0574 7.50222 55.6446 7.50222C55.3686 7.50222 55.1242 7.56008 54.9116 7.67577C54.7019 7.7915 54.5369 7.96038 54.4163 8.18241C54.299 8.40133 54.2387 8.66561 54.2353 8.97522ZM62.4307 0.4375V16.2369H61.4783V0.4375H62.4307ZM73.9585 8.33722C73.9585 9.38488 73.7569 10.2762 73.3537 11.0111C72.954 11.7461 72.4079 12.3074 71.716 12.6952C71.0273 13.0799 70.2528 13.2722 69.3926 13.2722C68.526 13.2722 67.7484 13.0783 67.0597 12.6905C66.3709 12.3027 65.8265 11.7414 65.4264 11.0064C65.0267 10.2715 64.8265 9.38177 64.8265 8.33722C64.8265 7.28955 65.0267 6.39825 65.4264 5.66333C65.8265 4.92838 66.3709 4.36861 67.0597 3.98394C67.7484 3.59613 68.526 3.40225 69.3926 3.40225C70.2528 3.40225 71.0273 3.59613 71.716 3.98394C72.4079 4.36861 72.954 4.92838 73.3537 5.66333C73.7569 6.39825 73.9585 7.28955 73.9585 8.33722ZM71.8682 8.33722C71.8682 7.65858 71.7651 7.08627 71.559 6.6203C71.3557 6.15433 71.0684 5.80094 70.6971 5.56013C70.3258 5.31933 69.8908 5.19891 69.3926 5.19891C68.8942 5.19891 68.4594 5.31933 68.0879 5.56013C67.7166 5.80094 67.4279 6.15433 67.2215 6.6203C67.0182 7.08627 66.9167 7.65858 66.9167 8.33722C66.9167 9.01586 67.0182 9.58816 67.2215 10.0541C67.4279 10.5201 67.7166 10.8735 68.0879 11.1143C68.4594 11.3551 68.8942 11.4755 69.3926 11.4755C69.8908 11.4755 70.3258 11.3551 70.6971 11.1143C71.0684 10.8735 71.3557 10.5201 71.559 10.0541C71.7651 9.58816 71.8682 9.01586 71.8682 8.33722ZM80.7752 6.29661C80.7372 5.91822 80.5737 5.62425 80.285 5.41469C79.996 5.20516 79.6041 5.10041 79.1087 5.10041C78.7724 5.10041 78.4882 5.1473 78.2565 5.24113C78.025 5.33183 77.8471 5.4585 77.7233 5.62111C77.6027 5.78372 77.5423 5.96825 77.5423 6.17466C77.5361 6.34666 77.5725 6.49677 77.652 6.625C77.7343 6.75322 77.8471 6.86425 77.99 6.95805C78.1327 7.04875 78.2979 7.1285 78.4851 7.1973C78.6723 7.26297 78.8725 7.31927 79.0851 7.36619L79.961 7.57258C80.3864 7.66641 80.7769 7.7915 81.1324 7.94786C81.4879 8.10425 81.7958 8.29658 82.056 8.52486C82.3163 8.75316 82.5178 9.02211 82.6608 9.33172C82.8068 9.64133 82.8812 9.9963 82.8843 10.3966C82.8812 10.9846 82.729 11.4943 82.4273 11.9259C82.1291 12.3543 81.6974 12.6874 81.1324 12.9251C80.5706 13.1596 79.8928 13.2769 79.0994 13.2769C78.3123 13.2769 77.6266 13.1581 77.0425 12.9204C76.4617 12.6827 76.0078 12.3309 75.6808 11.8649C75.3571 11.3958 75.1874 10.8157 75.1713 10.1245H77.1663C77.1885 10.4466 77.2821 10.7156 77.4473 10.9314C77.6154 11.144 77.8392 11.3051 78.1186 11.4146C78.4011 11.5209 78.72 11.5741 79.0755 11.5741C79.4248 11.5741 79.7279 11.524 79.985 11.4239C80.2452 11.3239 80.4468 11.1847 80.5894 11.0064C80.7324 10.8282 80.8037 10.6233 80.8037 10.3919C80.8037 10.1761 80.7389 9.99472 80.6086 9.84775C80.4817 9.70075 80.2943 9.57566 80.0467 9.47247C79.8023 9.36925 79.5023 9.27544 79.1468 9.191L78.0853 8.9283C77.2632 8.73127 76.614 8.42322 76.1378 8.00416C75.6619 7.58511 75.4253 7.02061 75.4284 6.31069C75.4253 5.729 75.5824 5.2208 75.8998 4.78611C76.2204 4.35138 76.6599 4.01208 77.2187 3.76813C77.7772 3.52422 78.4121 3.40225 79.1231 3.40225C79.8468 3.40225 80.4784 3.52422 81.018 3.76813C81.561 4.01208 81.983 4.35138 82.2847 4.78611C82.5861 5.2208 82.7417 5.7243 82.7513 6.29661H80.7752Z" fill="black"/>
</g>
<defs>
<clipPath id="clip0_2877_10304">
<rect width="83.451" height="16" fill="white" transform="translate(0.274536 0.5)"/>
</clipPath>
</defs>
</svg>
