<svg width="112" height="26" viewBox="0 0 112 26" fill="none" xmlns="http://www.w3.org/2000/svg">
<path d="M5.43158 19.0449C4.35761 19.0449 3.41474 18.8733 2.59914 18.532C1.78353 18.1908 1.14725 17.6779 0.688348 16.9972C0.229449 16.3166 0 15.4701 0 14.4579V13.864H3.12938V14.3981C3.12938 15.0884 3.32412 15.6186 3.71361 15.9869C4.10309 16.3552 4.67961 16.5403 5.44315 16.5403C6.2067 16.5403 6.80828 16.4188 7.22283 16.1739C7.63931 15.929 7.84562 15.5261 7.84562 14.9611C7.84562 14.5658 7.68944 14.2168 7.37708 13.9141C7.06472 13.6114 6.64246 13.3415 6.11029 13.1043C5.57619 12.8671 4.96883 12.6435 4.28434 12.4352C3.54007 12.2 2.8498 11.8915 2.21158 11.5097C1.57337 11.128 1.06241 10.6421 0.676779 10.0501C0.29115 9.46011 0.0983354 8.7332 0.0983354 7.86747C0.0983354 7.00173 0.329713 6.25361 0.792467 5.63853C1.25522 5.02538 1.88573 4.55491 2.68398 4.23098C3.48223 3.90513 4.3846 3.74316 5.38916 3.74316C6.39373 3.74316 7.37322 3.90513 8.18112 4.23098C8.98901 4.55684 9.62337 5.04273 10.0823 5.69059C10.5412 6.33845 10.7706 7.14441 10.7706 8.11041V8.71392H7.6528V8.25117C7.6528 7.60138 7.47349 7.10199 7.11485 6.753C6.75622 6.404 6.19513 6.23047 5.42965 6.23047C4.66418 6.23047 4.12044 6.36544 3.71361 6.63345C3.30677 6.90147 3.10431 7.31409 3.10431 7.87132C3.10431 8.2743 3.25085 8.61559 3.542 8.89709C3.83315 9.1786 4.23421 9.43119 4.74324 9.651C5.25227 9.87274 5.83264 10.0945 6.48435 10.3143C7.36937 10.6228 8.14255 10.9641 8.80391 11.3362C9.46526 11.7083 9.97622 12.1749 10.3387 12.7341C10.7012 13.2952 10.8824 14.0067 10.8824 14.8724C10.8824 15.7382 10.6549 16.5113 10.198 17.1361C9.74291 17.7588 9.10277 18.2351 8.28138 18.559C7.45999 18.883 6.50942 19.0468 5.42965 19.0468L5.43158 19.0449Z" fill="white"/>
<path d="M12.9355 18.8023V8.1185H16.0534V18.8023H12.9355ZM19.605 18.8023V12.908C19.605 12.6323 19.5896 12.3623 19.5607 12.0924C19.5298 11.8244 19.4642 11.5737 19.3601 11.3424C19.256 11.111 19.0979 10.9259 18.8819 10.789C18.6679 10.6521 18.3748 10.5827 18.0066 10.5827C17.6653 10.5827 17.3703 10.654 17.1216 10.7986C16.8728 10.9432 16.6704 11.1399 16.5123 11.3925C16.3541 11.6451 16.2385 11.9324 16.1652 12.2582C16.0919 12.5841 16.0553 12.9234 16.0553 13.2801L15.2011 12.5764C15.2011 11.6701 15.365 10.868 15.6947 10.1681C16.0244 9.4682 16.491 8.91675 17.0984 8.51762C17.7058 8.1185 18.425 7.9199 19.256 7.9199C20.1487 7.9199 20.8429 8.10885 21.3442 8.4887C21.8436 8.86854 22.1964 9.36986 22.4008 9.99844C22.6052 10.627 22.7074 11.3173 22.7074 12.075V18.8043H19.6089L19.605 18.8023ZM26.2436 18.8023V12.8868C26.2436 12.5918 26.2262 12.3084 26.1935 12.0365C26.1607 11.7646 26.0893 11.5178 25.9814 11.298C25.8734 11.0782 25.7134 10.9027 25.4993 10.7755C25.2853 10.6482 24.9922 10.5846 24.624 10.5846C24.2827 10.5846 23.9877 10.6559 23.7428 10.8005C23.4979 10.9452 23.2993 11.1418 23.1451 11.3886C22.9908 11.6374 22.879 11.9189 22.8076 12.2332C22.7382 12.5494 22.7016 12.8772 22.7016 13.2184L21.8474 12.5243C21.8474 11.6316 22.0094 10.841 22.3353 10.1508C22.6611 9.46048 23.1239 8.91482 23.7235 8.51569C24.3232 8.11657 25.0424 7.91797 25.8811 7.91797C26.7199 7.91797 27.4429 8.10307 27.9481 8.47135C28.4552 8.83962 28.8157 9.3313 29.0336 9.94445C29.2515 10.5576 29.3614 11.244 29.3614 12.0018V18.8023H26.2436Z" fill="white"/>
<path d="M32.2395 23.4199C31.904 23.4199 31.6032 23.4083 31.339 23.3852C31.0749 23.3621 30.9071 23.337 30.8416 23.31V20.9461C30.9283 20.9866 31.0806 21.0174 31.2985 21.0425C31.5164 21.0657 31.7497 21.0772 31.9984 21.0772C32.3262 21.0772 32.6232 21.0117 32.8892 20.8806C33.1534 20.7494 33.3829 20.5663 33.5737 20.3272C33.7646 20.0881 33.9131 19.8085 34.0211 19.4865L34.2023 18.9428L30.5215 8.11816H33.7704L36.0938 16.8797H35.7313L37.9641 8.11816H41.1726L37.5014 19.3342C37.2256 20.1787 36.8882 20.9075 36.4852 21.5168C36.0823 22.1261 35.5462 22.5966 34.8752 22.9244C34.2042 23.2522 33.3269 23.418 32.2395 23.418V23.4199Z" fill="white"/>
<path d="M47.9122 19.024C47.5034 19.024 47.0831 18.9893 46.6492 18.918C46.2173 18.8466 45.8144 18.7059 45.4422 18.4957C45.0701 18.2836 44.7693 17.9751 44.5418 17.5644C44.3143 17.1537 44.2005 16.6158 44.2005 15.9448V10.5325H41.7363V8.11845H42.4305C42.8334 8.11845 43.1535 8.10109 43.3907 8.06832C43.6278 8.03554 43.8072 7.94877 43.9248 7.81187C44.0424 7.67498 44.1176 7.45902 44.1504 7.16209C44.1831 6.86708 44.2005 6.46217 44.2005 5.94543V4.59766H47.3299V8.11845H50.438V10.5325H47.3299V15.0598C47.3299 15.5225 47.3858 15.8985 47.4957 16.1858C47.6056 16.475 47.8833 16.6177 48.3248 16.6177C48.5465 16.6177 48.7567 16.5984 48.9534 16.5579C49.152 16.5174 49.3004 16.477 49.4007 16.4365V18.7811C49.2599 18.8409 49.0613 18.8968 48.8068 18.9469C48.5523 18.997 48.2535 19.0221 47.9122 19.0221V19.024Z" fill="white"/>
<path d="M52.3203 18.8022V3.08008H55.4381V18.8041H52.3203V18.8022ZM59.8459 18.8022V13.1488C59.8459 12.3313 59.6974 11.6989 59.4024 11.2535C59.1074 10.8081 58.5675 10.5844 57.7827 10.5844C57.2737 10.5844 56.8437 10.6866 56.4947 10.891C56.1457 11.0954 55.8835 11.3827 55.7042 11.7509C55.5268 12.1192 55.4381 12.5531 55.4381 13.0486L54.5319 12.4239C54.5319 11.5311 54.7228 10.7483 55.1046 10.0754C55.4863 9.40054 56.0146 8.87415 56.6895 8.49045C57.3643 8.10868 58.1433 7.91779 59.0283 7.91779C60.3356 7.91779 61.319 8.30149 61.9765 9.06889C62.634 9.8363 62.9617 10.9045 62.9617 12.2735V18.8022H59.8439H59.8459Z" fill="white"/>
<path d="M67.9609 0.75L67.9969 23.75" stroke="white" stroke-miterlimit="10"/>
<path d="M79.7738 19.5589C78.7812 19.5589 77.8528 19.3855 76.9905 19.0427C76.1283 18.6998 75.3694 18.1953 74.716 17.5293C74.0626 16.8633 73.5477 16.0435 73.1755 15.0662C72.8033 14.0888 72.6172 12.9695 72.6172 11.7084C72.6172 10.4413 72.8054 9.32208 73.1755 8.35259C73.5477 7.38309 74.0605 6.56926 74.716 5.91308C75.3715 5.25492 76.1303 4.76032 76.9947 4.42533C77.859 4.09035 78.7895 3.92285 79.7903 3.92482C80.7828 3.92482 81.7113 4.09429 82.5777 4.43125C83.4441 4.76821 84.203 5.26478 84.8584 5.9249C85.5139 6.58503 86.0226 7.39885 86.3886 8.36835C86.7546 9.33785 86.9366 10.4571 86.9345 11.7261C86.9345 12.9873 86.7463 14.1065 86.3762 15.0819C86.004 16.0593 85.4891 16.879 84.8316 17.5431C84.174 18.2072 83.4089 18.7097 82.5425 19.0525C81.6761 19.3934 80.7518 19.5649 79.7738 19.5649V19.5589ZM79.7758 16.9992C80.4437 16.9992 81.0661 16.8258 81.6368 16.477C82.2075 16.1283 82.6687 15.5647 83.014 14.7863C83.3593 14.008 83.533 12.9853 83.5351 11.7182C83.5351 10.4433 83.3634 9.42258 83.014 8.65408C82.6666 7.88557 82.2075 7.33185 81.641 6.99292C81.0723 6.65399 80.4541 6.48256 79.7862 6.48256C79.1162 6.48256 78.4959 6.65202 77.9252 6.98898C77.3524 7.32791 76.8934 7.88163 76.548 8.64816C76.2027 9.41667 76.029 10.4374 76.027 11.7123C76.027 12.9873 76.1986 14.0119 76.5418 14.7863C76.8851 15.5608 77.3441 16.1243 77.9148 16.4731C78.4855 16.8239 79.1059 16.9992 79.7758 16.9992Z" fill="white"/>
<path d="M94.5318 19.5726C93.38 19.5726 92.3689 19.3953 91.4962 19.0465C90.6216 18.6957 89.9392 18.1735 89.4471 17.476C88.9549 16.7804 88.7089 15.9153 88.711 14.8788C88.711 14.7685 88.711 14.668 88.711 14.5754C88.711 14.4827 88.711 14.3822 88.711 14.2719H92.067C92.067 14.3783 92.067 14.4689 92.067 14.5478C92.067 14.6266 92.067 14.7172 92.067 14.8197C92.067 15.5251 92.2737 16.067 92.6914 16.4454C93.1091 16.8217 93.7274 17.0109 94.5462 17.0129C95.3733 17.0129 96.0102 16.8887 96.4569 16.6405C96.9035 16.3902 97.1268 15.9784 97.1268 15.403C97.1268 14.999 96.9593 14.6424 96.6264 14.333C96.2914 14.0236 95.8386 13.7477 95.2679 13.5034C94.6972 13.259 94.0438 13.0305 93.3097 12.8176C92.5115 12.5772 91.7713 12.262 91.0889 11.8698C90.4065 11.4777 89.8586 10.9811 89.445 10.3781C89.0315 9.77516 88.8267 9.0303 88.8267 8.14751C88.8267 7.25684 89.0769 6.49818 89.5732 5.87156C90.0695 5.24493 90.7456 4.7661 91.6017 4.43505C92.4578 4.104 93.4255 3.93848 94.5049 3.93848C95.6339 3.93848 96.6326 4.10597 97.499 4.44096C98.3654 4.77398 99.0436 5.27055 99.5358 5.93264C100.028 6.59474 100.274 7.41842 100.272 8.40565V8.70911C100.272 8.80172 100.272 8.90616 100.272 9.02242L96.9283 9.01848C96.9283 8.9436 96.9283 8.86478 96.9283 8.78202C96.9283 8.69926 96.9283 8.62044 96.9283 8.54556C96.9283 7.88149 96.736 7.36916 96.3535 7.01249C95.9689 6.65583 95.3671 6.47651 94.5462 6.47651C93.7543 6.47651 93.1422 6.61248 92.7059 6.88638C92.2696 7.16028 92.0525 7.58197 92.0525 8.15145C92.0525 8.56329 92.2076 8.91207 92.5198 9.19977C92.832 9.48747 93.2621 9.7456 93.808 9.97222C94.3539 10.1988 94.9763 10.4254 95.6732 10.652C96.6223 10.9673 97.4514 11.3161 98.1586 11.6984C98.8658 12.0787 99.4138 12.5556 99.8025 13.129C100.189 13.7024 100.384 14.4295 100.384 15.3143C100.384 16.2188 100.137 16.9892 99.6474 17.6257C99.1574 18.2622 98.4729 18.7469 97.59 19.078C96.7091 19.409 95.6897 19.5746 94.5318 19.5746V19.5726Z" fill="white"/>
</svg>
