<svg width="12" height="12" viewBox="0 0 12 12" fill="none" xmlns="http://www.w3.org/2000/svg">
<g clip-path="url(#clip0_150_588)">
<path d="M8.54732 5.35714H6.61875V3.42857C6.61875 3.07366 6.33107 2.78571 6 2.78571C5.66893 2.78571 5.33304 3.07232 5.33304 3.42857V5.35714H3.40446C3.07232 5.35714 2.76161 5.64375 2.76161 6C2.76161 6.35625 3.07232 6.64286 3.40446 6.64286H5.30893V8.57143C5.30893 8.92634 5.59687 9.21428 5.95179 9.21428C6.3067 9.21428 6.57054 8.92634 6.57054 8.57143V6.64286H8.49911C8.85402 6.64286 9.11786 6.35491 9.11786 6C9.11786 5.64509 8.92768 5.35714 8.54732 5.35714ZM10.2857 0H1.71429C0.767411 0 0 0.767411 0 1.71429V10.2857C0 11.2326 0.767411 12 1.71429 12H10.2857C11.2326 12 12 11.2326 12 10.2857V1.71429C12 0.767411 11.2312 0 10.2857 0ZM10.7143 10.2857C10.7143 10.522 10.522 10.7143 10.2857 10.7143H1.71429C1.47798 10.7143 1.28571 10.522 1.28571 10.2857V1.71429C1.28571 1.47798 1.47798 1.28571 1.71429 1.28571H10.2857C10.522 1.28571 10.7143 1.47798 10.7143 1.71429V10.2857Z" fill="#2F2F2F"/>
</g>
<defs>
<clipPath id="clip0_150_588">
<rect width="12" height="12" fill="white"/>
</clipPath>
</defs>
</svg>
