<svg xmlns="http://www.w3.org/2000/svg" fill="none" viewBox="8 8 43 43">
<path d="M8 29.5C8 17.6259 17.6259 8 29.5 8C41.3741 8 51 17.6259 51 29.5C51 41.3741 41.3741 51 29.5 51C17.6259 51 8 41.3741 8 29.5Z" fill="#DDFFF7"/>
<path d="M8 29.5C8 17.6259 17.6259 8 29.5 8C41.3741 8 51 17.6259 51 29.5C51 41.3741 41.3741 51 29.5 51C17.6259 51 8 41.3741 8 29.5Z" fill="#DDFFF7"/>
<path fill-rule="evenodd" clip-rule="evenodd" d="M10.5 29.5C10.5 39.9934 19.0066 48.5 29.5 48.5C39.9934 48.5 48.5 39.9934 48.5 29.5C48.5 19.0066 39.9934 10.5 29.5 10.5C19.0066 10.5 10.5 19.0066 10.5 29.5ZM29.5 8C17.6259 8 8 17.6259 8 29.5C8 41.3741 17.6259 51 29.5 51C41.3741 51 51 41.3741 51 29.5C51 17.6259 41.3741 8 29.5 8Z" fill="#2AAD8E"/>
<path d="M30 29.5C28.636 29.5 27.3279 28.9469 26.3635 27.9623C25.399 26.9777 24.8571 25.6424 24.8571 24.25C24.8571 22.8576 25.399 21.5223 26.3635 20.5377C27.3279 19.5531 28.636 19 30 19C31.364 19 32.6721 19.5531 33.6365 20.5377C34.601 21.5223 35.1429 22.8576 35.1429 24.25C35.1429 25.6424 34.601 26.9777 33.6365 27.9623C32.6721 28.9469 31.364 29.5 30 29.5ZM31.8362 31.4688C35.7937 31.4688 39 34.7418 39 38.7818C39 39.4545 38.4656 40 37.8067 40H22.1933C21.5344 40 21 39.4545 21 38.7818C21 34.7418 24.2063 31.4688 28.1638 31.4688H31.8362Z" fill="#2AAD8E"/>
</svg>