<svg width="20" height="20" viewBox="0 0 20 20" fill="none" xmlns="http://www.w3.org/2000/svg">
<path d="M5.22974 3.54297H7.15807C7.50204 3.54297 7.78304 3.82396 7.78304 4.16797V15.8346C7.78304 16.1786 7.50204 16.4596 7.15807 16.4596H5.22974C4.88575 16.4596 4.60474 16.1786 4.60474 15.8346V4.16797C4.60474 3.82398 4.88575 3.54297 5.22974 3.54297Z" stroke="#111827" stroke-width="1.25"/>
<path d="M12.842 3.54297H14.7704C15.1144 3.54297 15.3954 3.82398 15.3954 4.16797V15.8346C15.3954 16.1786 15.1144 16.4596 14.7704 16.4596H12.842C12.4981 16.4596 12.217 16.1786 12.217 15.8346V4.16797C12.217 3.82398 12.4981 3.54297 12.842 3.54297Z" stroke="#111827" stroke-width="1.25"/>
</svg>
