<svg width="43" height="24" viewBox="0 0 43 24" fill="none" xmlns="http://www.w3.org/2000/svg">
<path d="M0 12C0 5.37258 5.37258 0 12 0H30.9474C37.5748 0 42.9474 5.37258 42.9474 12C42.9474 18.6274 37.5748 24 30.9474 24H12C5.37258 24 0 18.6274 0 12Z" fill="#5A5A5A"/>
<path d="M2.52637 11.9998C2.52637 6.41881 7.05065 1.89453 12.6316 1.89453C18.2126 1.89453 22.7369 6.41881 22.7369 11.9998C22.7369 17.5808 18.2126 22.1051 12.6316 22.1051C7.05065 22.1051 2.52637 17.5808 2.52637 11.9998Z" fill="#2C2C2C"/>
<mask id="mask0_10145_3896" style="mask-type:alpha" maskUnits="userSpaceOnUse" x="2" y="1" width="21" height="22">
<rect x="2.52441" y="1.89404" width="20.2105" height="20.2105" fill="#2C2C2C"/>
</mask>
<g mask="url(#mask0_10145_3896)">
<path d="M12.6266 17.5574C13.3097 17.5574 13.8946 17.3117 14.3812 16.8205C14.8676 16.3293 15.1249 15.7328 15.153 15.031V10.9889C15.181 10.2872 14.9459 9.69069 14.4477 9.19947C13.9494 8.70824 13.3459 8.46262 12.6372 8.46262C11.9284 8.46262 11.3319 8.70824 10.8477 9.19947C10.3635 9.69069 10.1144 10.2872 10.1003 10.9889V15.031C10.0863 15.7328 10.3249 16.3293 10.8161 16.8205C11.3073 17.3117 11.9108 17.5574 12.6266 17.5574ZM11.1108 15.031H14.1424V13.5153H11.1108V15.031ZM11.1108 12.5047H14.1424V10.9889H11.1108V12.5047ZM12.6266 19.0731C11.7845 19.0731 11.0196 18.8451 10.3319 18.3889C9.64418 17.9328 9.15997 17.3188 8.87927 16.5468H6.56348V15.031H8.58453V13.7679H6.56348V12.2521H8.58453V10.9889H6.56348V9.47315H8.87927C8.99155 9.10824 9.1726 8.77778 9.42242 8.48178C9.67225 8.18578 9.96137 7.92676 10.2898 7.70473L8.58453 5.99947L9.65821 4.92578L11.7845 7.03104C12.0633 6.96087 12.347 6.92578 12.6357 6.92578C12.9244 6.92578 13.2091 6.96087 13.4898 7.03104L15.5951 4.92578L16.6687 5.99947L14.9635 7.70473C15.2863 7.92929 15.567 8.18894 15.8056 8.48368C16.0442 8.77841 16.2337 9.10824 16.374 9.47315H18.6898V10.9889H16.6687V12.2521H18.6898V13.7679H16.6687V15.031H18.6898V16.5468H16.374C16.0933 17.3188 15.6091 17.9328 14.9214 18.3889C14.2337 18.8451 13.4687 19.0731 12.6266 19.0731Z" fill="white"/>
</g>
</svg>
