<svg width="45" height="26" viewBox="0 0 45 26" fill="none" xmlns="http://www.w3.org/2000/svg">
<path d="M1 13C1 6.37258 6.37258 1 13 1H31.9474C38.5748 1 43.9474 6.37258 43.9474 13C43.9474 19.6274 38.5748 25 31.9474 25H13C6.37258 25 1 19.6274 1 13Z" fill="#45C9A9"/>
<path d="M1 13C1 6.37258 6.37258 1 13 1H31.9474C38.5748 1 43.9474 6.37258 43.9474 13C43.9474 19.6274 38.5748 25 31.9474 25H13C6.37258 25 1 19.6274 1 13Z" stroke="#3FB79A" stroke-width="1.26316"/>
<path d="M21.2109 12.9998C21.2109 7.41881 25.7352 2.89453 31.3162 2.89453C36.8972 2.89453 41.4215 7.41881 41.4215 12.9998C41.4215 18.5808 36.8972 23.1051 31.3162 23.1051C25.7352 23.1051 21.2109 18.5808 21.2109 12.9998Z" fill="#2C2C2C"/>
<mask id="mask0_10145_5775" style="mask-type:alpha" maskUnits="userSpaceOnUse" x="21" y="2" width="21" height="22">
<rect x="21.209" y="2.89404" width="20.2105" height="20.2105" fill="#2C2C2C"/>
</mask>
<g mask="url(#mask0_10145_5775)">
<path d="M31.3112 18.5574C31.9943 18.5574 32.5791 18.3117 33.0657 17.8205C33.5522 17.3293 33.8095 16.7328 33.8375 16.031V11.9889C33.8656 11.2872 33.6305 10.6907 33.1323 10.1995C32.634 9.70824 32.0305 9.46262 31.3217 9.46262C30.613 9.46262 30.0165 9.70824 29.5323 10.1995C29.048 10.6907 28.7989 11.2872 28.7849 11.9889V16.031C28.7709 16.7328 29.0095 17.3293 29.5007 17.8205C29.9919 18.3117 30.5954 18.5574 31.3112 18.5574ZM29.7954 16.031H32.827V14.5153H29.7954V16.031ZM29.7954 13.5047H32.827V11.9889H29.7954V13.5047ZM31.3112 20.0731C30.4691 20.0731 29.7042 19.8451 29.0165 19.3889C28.3287 18.9328 27.8445 18.3188 27.5638 17.5468H25.248V16.031H27.2691V14.7679H25.248V13.2521H27.2691V11.9889H25.248V10.4731H27.5638C27.6761 10.1082 27.8572 9.77778 28.107 9.48178C28.3568 9.18578 28.6459 8.92676 28.9744 8.70473L27.2691 6.99947L28.3428 5.92578L30.4691 8.03104C30.7478 7.96087 31.0316 7.92578 31.3203 7.92578C31.609 7.92578 31.8937 7.96087 32.1744 8.03104L34.2796 5.92578L35.3533 6.99947L33.648 8.70473C33.9709 8.92929 34.2516 9.18894 34.4902 9.48368C34.7287 9.77841 34.9182 10.1082 35.0586 10.4731H37.3744V11.9889H35.3533V13.2521H37.3744V14.7679H35.3533V16.031H37.3744V17.5468H35.0586C34.7779 18.3188 34.2937 18.9328 33.6059 19.3889C32.9182 19.8451 32.1533 20.0731 31.3112 20.0731Z" fill="#45C9A9"/>
</g>
</svg>
