<svg width="63" height="60" viewBox="0 0 63 60" fill="none" xmlns="http://www.w3.org/2000/svg">
<path d="M32.4714 20.4297L31.9864 19.2988L31.9864 19.2988L32.4714 20.4297ZM29.371 24.87C29.3762 25.5391 29.9567 26.088 30.6677 26.0962C31.3787 26.1043 31.9508 25.5685 31.9456 24.8995L29.371 24.87ZM31.9864 19.2988C31.4851 19.4815 30.9553 19.5705 30.4282 19.563L30.4393 21.9857C31.2998 21.998 32.1548 21.8528 32.9565 21.5606L31.9864 19.2988ZM30.4282 19.563C29.9012 19.5555 29.3882 19.4517 28.9177 19.2609L27.9378 21.4832C28.7283 21.8038 29.5786 21.9735 30.4393 21.9857L30.4282 19.563ZM28.9177 19.2609C28.4473 19.0701 28.0273 18.7957 27.6799 18.4546L25.838 20.1136C26.433 20.6976 27.1472 21.1626 27.9378 21.4832L28.9177 19.2609ZM27.6799 18.4546C27.3324 18.1135 27.0623 17.7106 26.8847 17.2677L24.478 18.0843C24.7808 18.8396 25.243 19.5294 25.838 20.1136L27.6799 18.4546ZM26.8847 17.2677C26.7071 16.8248 26.6247 16.3483 26.6453 15.8647L24.0727 15.7208C24.0385 16.5257 24.1752 17.3292 24.478 18.0843L26.8847 17.2677ZM26.6453 15.8647C26.6659 15.3809 26.7891 14.8989 27.0112 14.4472L24.6708 13.3946C24.3113 14.1259 24.1069 14.916 24.0727 15.7208L26.6453 15.8647ZM27.0112 14.4472C27.2333 13.9954 27.5495 13.5841 27.9427 13.2381L26.1652 11.453C25.5385 12.0043 25.0303 12.6635 24.6708 13.3946L27.0112 14.4472ZM27.9427 13.2381C28.336 12.8922 28.7969 12.6201 29.2983 12.4374L28.3281 10.1756C27.5265 10.4677 26.7918 10.9018 26.1652 11.453L27.9427 13.2381ZM29.2983 12.4374C29.7996 12.2547 30.3294 12.1657 30.8565 12.1732L30.8454 9.75049C29.9848 9.73822 29.1298 9.88345 28.3281 10.1756L29.2983 12.4374ZM30.8565 12.1732C31.3834 12.1808 31.8964 12.2845 32.367 12.4753L33.3468 10.253C32.5563 9.93244 31.7061 9.76277 30.8454 9.75049L30.8565 12.1732ZM32.367 12.4753C32.8374 12.6661 33.2573 12.9406 33.6048 13.2817L35.4466 11.6227C34.8516 11.0386 34.1375 10.5737 33.3468 10.253L32.367 12.4753ZM33.6048 13.2817C33.9522 13.6227 34.2224 14.0257 34.4 14.4685L36.8067 13.6519C36.5038 12.8967 36.0417 12.2068 35.4466 11.6227L33.6048 13.2817ZM34.4 14.4685C34.5776 14.9115 34.6599 15.3879 34.6393 15.8715L37.212 16.0154C37.2462 15.2105 37.1094 14.407 36.8067 13.6519L34.4 14.4685ZM34.6393 15.8715C34.6188 16.3553 34.4956 16.8373 34.2735 17.289L36.6138 18.3416C36.9734 17.6104 37.1777 16.8202 37.212 16.0154L34.6393 15.8715ZM34.2735 17.289C34.0513 17.7408 33.7352 18.1522 33.3419 18.4981L35.1195 20.2832C35.7462 19.732 36.2543 19.0727 36.6138 18.3416L34.2735 17.289ZM33.3419 18.4981C32.9486 18.844 32.4877 19.1161 31.9864 19.2988L32.9565 21.5606C33.7581 21.2685 34.4928 20.8345 35.1195 20.2832L33.3419 18.4981ZM29.3419 21.1284L29.371 24.87L31.9456 24.8995L31.9165 21.1579L29.3419 21.1284Z" fill="black"/>
<path d="M41.7432 31.8266L42.945 31.4169L42.945 31.4169L41.7432 31.8266ZM36.9782 28.8697C36.2676 28.8672 35.7013 29.4078 35.7133 30.0772C35.7254 30.7466 36.3111 31.2913 37.0217 31.2938L36.9782 28.8697ZM42.945 31.4169C42.7586 30.9543 42.6698 30.4641 42.6836 29.9742L40.1109 29.86C40.0882 30.6676 40.2345 31.475 40.5414 32.2362L42.945 31.4169ZM42.6836 29.9742C42.6973 29.4843 42.8134 29.0045 43.0248 28.5619L40.6742 27.5294C40.3249 28.2605 40.1336 29.0525 40.1109 29.86L42.6836 29.9742ZM43.0248 28.5619C43.2362 28.1194 43.539 27.7227 43.9156 27.3945L42.1468 25.5995C41.5239 26.1425 41.0235 26.7983 40.6742 27.5294L43.0248 28.5619ZM43.9156 27.3945C44.2922 27.0663 44.7354 26.8128 45.2201 26.6485L44.3046 24.3656C43.5031 24.6373 42.7698 25.0566 42.1468 25.5995L43.9156 27.3945ZM45.2201 26.6485C45.7049 26.4842 46.2217 26.4122 46.7412 26.4369L46.8179 24.0158C45.9602 23.9751 45.1062 24.0938 44.3046 24.3656L45.2201 26.6485ZM46.7412 26.4369C47.2607 26.4616 47.7728 26.5825 48.2481 26.7929L49.303 24.6027C48.5199 24.2561 47.6755 24.0566 46.8179 24.0158L46.7412 26.4369ZM48.2481 26.7929C48.7234 27.0033 49.1526 27.299 49.511 27.6634L51.382 26.0356C50.7924 25.4362 50.086 24.9493 49.303 24.6027L48.2481 26.7929ZM49.511 27.6634C49.8694 28.0277 50.1498 28.4533 50.3362 28.9158L52.7399 28.0965C52.4331 27.3353 51.9717 26.635 51.382 26.0356L49.511 27.6634ZM50.3362 28.9158C50.5227 29.3784 50.6115 29.8686 50.5977 30.3585L53.1704 30.4727C53.1931 29.6651 53.0468 28.8577 52.7399 28.0965L50.3362 28.9158ZM50.5977 30.3585C50.5839 30.8484 50.4679 31.3283 50.2565 31.7708L52.6071 32.8033C52.9564 32.0722 53.1477 31.2803 53.1704 30.4727L50.5977 30.3585ZM50.2565 31.7708C50.045 32.2133 49.7423 32.61 49.3657 32.9382L51.1344 34.7332C51.7574 34.1903 52.2578 33.5344 52.6071 32.8033L50.2565 31.7708ZM49.3657 32.9382C48.9891 33.2664 48.5458 33.5199 48.0611 33.6842L48.9766 35.9672C49.7782 35.6954 50.5115 35.2761 51.1344 34.7332L49.3657 32.9382ZM48.0611 33.6842C47.5764 33.8485 47.0596 33.9205 46.5401 33.8958L46.4634 36.3169C47.321 36.3577 48.1751 36.2389 48.9766 35.9672L48.0611 33.6842ZM46.5401 33.8958C46.0206 33.8711 45.5085 33.7502 45.0332 33.5398L43.9783 35.73C44.7614 36.0766 45.6058 36.2761 46.4634 36.3169L46.5401 33.8958ZM45.0332 33.5398C44.5578 33.3295 44.1287 33.0337 43.7703 32.6694L41.8992 34.2971C42.4889 34.8965 43.1953 35.3834 43.9783 35.73L45.0332 33.5398ZM43.7703 32.6694C43.4119 32.305 43.1315 31.8794 42.945 31.4169L40.5414 32.2362C40.8482 32.9974 41.3096 33.6977 41.8992 34.2971L43.7703 32.6694ZM40.979 28.8838L36.9782 28.8697L37.0217 31.2938L41.0226 31.3079L40.979 28.8838Z" fill="black"/>
<path d="M20.2243 28.719L19.0248 29.1355L19.0248 29.1355L20.2243 28.719ZM25.0061 31.6507C25.7168 31.6495 26.2803 31.106 26.2647 30.4367C26.2492 29.7675 25.6604 29.226 24.9498 29.2272L25.0061 31.6507ZM19.0248 29.1355C19.214 29.5972 19.3058 30.0871 19.2949 30.5771L21.8685 30.6761C21.8864 29.8685 21.7352 29.062 21.4239 28.3025L19.0248 29.1355ZM19.2949 30.5771C19.2841 31.0671 19.1709 31.5475 18.9622 31.9911L21.3191 33.0098C21.6641 32.2768 21.8506 31.4838 21.8685 30.6761L19.2949 30.5771ZM18.9622 31.9911C18.7534 32.4347 18.4532 32.8328 18.0787 33.1628L19.8578 34.9476C20.4777 34.4013 20.9742 33.7428 21.3191 33.0098L18.9622 31.9911ZM18.0787 33.1628C17.7042 33.4929 17.2626 33.7486 16.779 33.9154L17.707 36.1931C18.5071 35.9171 19.238 35.4939 19.8578 34.9476L18.0787 33.1628ZM16.779 33.9154C16.2954 34.0822 15.7792 34.1569 15.2596 34.1349L15.1956 36.5561C16.0535 36.5923 16.9069 36.4691 17.707 36.1931L16.779 33.9154ZM15.2596 34.1349C14.7399 34.113 14.2271 33.9948 13.7505 33.7868L12.7071 35.9823C13.4921 36.3247 14.3377 36.5198 15.1956 36.5561L15.2596 34.1349ZM13.7505 33.7868C13.2738 33.5789 12.8427 33.2853 12.4821 32.9227L10.6198 34.5605C11.2129 35.1566 11.9221 35.6398 12.7071 35.9823L13.7505 33.7868ZM12.4821 32.9227C12.1214 32.5602 11.8383 32.1359 11.649 31.6742L9.24992 32.5072C9.56127 33.2666 10.0268 33.9643 10.6198 34.5605L12.4821 32.9227ZM11.649 31.6742C11.4597 31.2125 11.368 30.7226 11.3789 30.2326L8.80527 30.1336C8.7874 30.9412 8.93857 31.7477 9.24992 32.5072L11.649 31.6742ZM11.3789 30.2326C11.3897 29.7426 11.5029 29.2622 11.7116 28.8186L9.35466 27.7999C9.00972 28.5329 8.82314 29.3259 8.80527 30.1336L11.3789 30.2326ZM11.7116 28.8186C11.9204 28.375 12.2206 27.9769 12.5951 27.6469L10.816 25.8621C10.1961 26.4084 9.6996 27.0669 9.35466 27.7999L11.7116 28.8186ZM12.5951 27.6469C12.9696 27.3168 13.4112 27.0611 13.8948 26.8943L12.9668 24.6166C12.1667 24.8926 11.4358 25.3158 10.816 25.8621L12.5951 27.6469ZM13.8948 26.8943C14.3784 26.7275 14.8946 26.6528 15.4142 26.6748L15.4782 24.2536C14.6203 24.2174 13.7669 24.3406 12.9668 24.6166L13.8948 26.8943ZM15.4142 26.6748C15.9338 26.6968 16.4467 26.8149 16.9233 27.0229L17.9667 24.8275C17.1817 24.485 16.3361 24.2899 15.4782 24.2536L15.4142 26.6748ZM16.9233 27.0229C17.4 27.2308 17.8311 27.5244 18.1917 27.887L20.054 26.2492C19.4609 25.6531 18.7517 25.1699 17.9667 24.8275L16.9233 27.0229ZM18.1917 27.887C18.5524 28.2495 18.8355 28.6738 19.0248 29.1355L21.4239 28.3025C21.1125 27.5431 20.647 26.8454 20.054 26.2492L18.1917 27.887ZM21.0052 31.6576L25.0061 31.6507L24.9498 29.2272L20.9489 29.234L21.0052 31.6576Z" fill="black"/>
<path d="M29.0849 40.5675L29.564 41.701L29.564 41.701L29.0849 40.5675ZM32.2109 36.1437C32.2095 35.4746 31.6322 34.9223 30.9214 34.9101C30.2105 34.8979 29.6354 35.4305 29.6367 36.0997L32.2109 36.1437ZM29.564 41.701C30.0665 41.5208 30.5969 41.4345 31.124 41.4447L31.1252 39.0216C30.2648 39.005 29.409 39.1459 28.6058 39.4339L29.564 41.701ZM31.124 41.4447C31.6509 41.4549 32.1633 41.5612 32.6326 41.7544L33.6237 39.5368C32.835 39.2122 31.9857 39.0383 31.1252 39.0216L31.124 41.4447ZM32.6326 41.7544C33.1018 41.9475 33.5201 42.224 33.8654 42.5667L35.7159 40.9173C35.1242 40.3301 34.4126 39.8615 33.6237 39.5368L32.6326 41.7544ZM33.8654 42.5667C34.2107 42.9094 34.4785 43.3136 34.6535 43.7572L37.0645 42.9538C36.766 42.1969 36.3077 41.5046 35.7159 40.9173L33.8654 42.5667ZM34.6535 43.7572C34.8285 44.2009 34.908 44.6776 34.8847 45.1611L37.4562 45.3196C37.495 44.5148 37.3629 43.7106 37.0645 42.9538L34.6535 43.7572ZM34.8847 45.1611C34.8613 45.6448 34.7353 46.1261 34.5106 46.5768L36.8446 47.6427C37.2084 46.9133 37.4173 46.1243 37.4562 45.3196L34.8847 45.1611ZM34.5106 46.5768C34.2858 47.0275 33.9672 47.4374 33.5718 47.7814L35.3393 49.5764C35.969 49.0284 36.481 48.3719 36.8446 47.6427L34.5106 46.5768ZM33.5718 47.7814C33.1764 48.1255 32.7138 48.3953 32.2112 48.5756L33.1694 50.8426C33.9725 50.5546 34.7096 50.1244 35.3393 49.5764L33.5718 47.7814ZM32.2112 48.5756C31.7087 48.7558 31.1783 48.8421 30.6512 48.8319L30.65 51.2549C31.5104 51.2716 32.3662 51.1307 33.1694 50.8426L32.2112 48.5756ZM30.6512 48.8319C30.1243 48.8217 29.6119 48.7153 29.1426 48.5222L28.1515 50.7398C28.9402 51.0644 29.7895 51.2383 30.65 51.2549L30.6512 48.8319ZM29.1426 48.5222C28.6734 48.3291 28.2551 48.0525 27.9098 47.7098L26.0593 49.3593C26.651 49.9465 27.3626 50.4151 28.1515 50.7398L29.1426 48.5222ZM27.9098 47.7098C27.5645 47.3672 27.2967 46.963 27.1217 46.5194L24.7107 47.3228C25.0092 48.0797 25.4675 48.772 26.0593 49.3593L27.9098 47.7098ZM27.1217 46.5194C26.9467 46.0757 26.8672 45.599 26.8905 45.1155L24.319 44.9569C24.2802 45.7617 24.4123 46.566 24.7107 47.3228L27.1217 46.5194ZM26.8905 45.1155C26.9139 44.6318 27.0399 44.1505 27.2646 43.6998L24.9306 42.6339C24.5668 43.3632 24.3579 44.1523 24.319 44.9569L26.8905 45.1155ZM27.2646 43.6998C27.4894 43.2491 27.808 42.8392 28.2034 42.4951L26.4359 40.7002C25.8062 41.2481 25.2942 41.9047 24.9306 42.6339L27.2646 43.6998ZM28.2034 42.4951C28.5988 42.1511 29.0614 41.8812 29.564 41.701L28.6058 39.4339C27.8027 39.722 27.0656 40.1522 26.4359 40.7002L28.2034 42.4951ZM32.2183 39.8855L32.2109 36.1437L29.6367 36.0997L29.6442 39.8414L32.2183 39.8855Z" fill="black"/>
<path d="M36.7607 28.9415C36.981 29.649 37.0502 30.3902 36.9642 31.1227C36.8782 31.8552 36.6388 32.5647 36.2596 33.2106C35.8804 33.8566 35.3689 34.4264 34.7543 34.8875C34.1397 35.3485 33.434 35.6919 32.6774 35.8979C31.9209 36.1039 31.1284 36.1686 30.3452 36.0882C29.562 36.0077 28.8034 35.7838 28.1127 35.4292C27.422 35.0746 26.8127 34.5962 26.3197 34.0214C25.8267 33.4466 25.4595 32.7866 25.2393 32.0791C25.019 31.3716 24.9498 30.6304 25.0358 29.8979C25.1218 29.1654 25.3612 28.456 25.7404 27.81C26.1196 27.164 26.6311 26.5942 27.2457 26.1331C27.8603 25.6721 28.566 25.3287 29.3226 25.1227C30.0791 24.9167 30.8716 24.852 31.6548 24.9324C32.438 25.0129 33.1966 25.2368 33.8873 25.5914C34.578 25.946 35.1873 26.4244 35.6803 26.9992C36.1733 27.574 36.5405 28.234 36.7607 28.9415L36.7607 28.9415Z" stroke="black" stroke-width="2.5"/>
</svg>
