<svg xmlns="http://www.w3.org/2000/svg" fill="none" viewBox="10 10 37.6 40">
<path fill-rule="evenodd" clip-rule="evenodd" d="M47.0528 21.1238L45.7371 18.8762C44.624 16.9744 42.1571 16.3183 40.2225 17.4095C39.3017 17.9436 38.2028 18.0951 37.1683 17.8306C36.1338 17.5662 35.2486 16.9076 34.708 16C34.3602 15.4231 34.1733 14.766 34.1662 14.0952C34.1976 13.0198 33.7854 11.9776 33.0236 11.2061C32.2618 10.4346 31.2152 9.99956 30.1222 10H27.4713C26.4006 10 25.374 10.42 24.6186 11.1671C23.8633 11.9143 23.4415 12.9269 23.4467 13.981C23.415 16.1572 21.6137 17.905 19.4027 17.9048C18.7213 17.8978 18.0538 17.7138 17.4678 17.3714C15.5332 16.2802 13.0663 16.9363 11.9532 18.8381L10.5407 21.1238C9.42892 23.0233 10.0863 25.4501 12.0112 26.5524C13.2625 27.2635 14.0333 28.5777 14.0333 30C14.0333 31.4223 13.2625 32.7365 12.0112 33.4476C10.0888 34.5425 9.43064 36.9634 10.5407 38.8571L11.8758 41.1238C12.3974 42.0502 13.2724 42.7338 14.3074 43.0234C15.3423 43.313 16.4518 43.1846 17.3904 42.6667C18.313 42.1367 19.4125 41.9915 20.4444 42.2633C21.4763 42.5352 22.3551 43.2015 22.8856 44.1143C23.2334 44.6912 23.4203 45.3482 23.4273 46.019C23.4273 48.2177 25.2379 50 27.4713 50H30.1222C32.3481 50 34.1556 48.2293 34.1662 46.0381C34.161 44.9807 34.5854 43.9652 35.345 43.2175C36.1045 42.4698 37.1361 42.0521 38.2102 42.0571C38.89 42.0751 39.5547 42.2583 40.1451 42.5905C42.0747 43.6849 44.5399 43.0378 45.6597 41.1429L47.0528 38.8571C47.5921 37.946 47.7401 36.8608 47.4641 35.8419C47.1881 34.823 46.5108 33.9544 45.5823 33.4286C44.6538 32.9027 43.9765 32.0342 43.7005 31.0153C43.4245 29.9963 43.5725 28.9112 44.1118 28C44.4624 27.3973 44.9701 26.8976 45.5823 26.5524C47.4957 25.4507 48.1516 23.038 47.0528 21.1429V21.1238Z" fill="#A9ADBD"/>
<path d="M29.2 41.2C35.3856 41.2 40.4 36.3647 40.4 30.4C40.4 24.4353 35.3856 19.6 29.2 19.6C23.0144 19.6 18 24.4353 18 30.4C18 36.3647 23.0144 41.2 29.2 41.2Z" stroke="#505876" stroke-width="2" stroke-linecap="round" stroke-linejoin="round"/>
<path d="M23.1623 33.077H22L24.1162 26.8H25.4604L27.5795 33.077H26.4172L24.8118 28.0873H24.7648L23.1623 33.077ZM23.2004 30.6159H26.3703V31.5292H23.2004V30.6159Z" fill="#505876"/>
<path d="M28.9741 33.077V26.8H31.131C31.5729 26.8 31.9436 26.89 32.2432 27.0698C32.5446 27.2496 32.7721 27.4968 32.9256 27.8115C33.081 28.1241 33.1587 28.4796 33.1587 28.8781C33.1587 29.2806 33.081 29.6381 32.9256 29.9508C32.7702 30.2634 32.5409 30.5096 32.2376 30.6894C31.9342 30.8672 31.5607 30.9561 31.117 30.9561H29.6875V30.0213H30.9766C31.2349 30.0213 31.4465 29.9722 31.6113 29.8741C31.776 29.7761 31.8977 29.6412 31.9764 29.4696C32.0569 29.2979 32.0971 29.1008 32.0971 28.8781C32.0971 28.6553 32.0569 28.4592 31.9764 28.2896C31.8977 28.12 31.7751 27.9882 31.6085 27.8942C31.4437 27.7982 31.2312 27.7502 30.9709 27.7502H30.0161V33.077H28.9741Z" fill="#505876"/>
<path d="M35.5999 26.8V33.077H34.5537V26.8H35.5999Z" fill="#505876"/>
</svg>