<!DOCTYPE svg PUBLIC "-//W3C//DTD SVG 1.1//EN" "http://www.w3.org/Graphics/SVG/1.1/DTD/svg11.dtd">
<!-- Uploaded to: SVG Repo, www.svgrepo.com, Transformed by: SVG Repo Mixer Tools -->
<svg width="64px" height="64px" viewBox="-1.28 -1.28 18.56 18.56" version="1.1" xmlns="http://www.w3.org/2000/svg" xmlns:xlink="http://www.w3.org/1999/xlink" fill="#000000" transform="rotate(270)" stroke="#000000" stroke-width="0.00016">
<g id="SVGRepo_bgCarrier" stroke-width="0"/>
<g id="SVGRepo_tracerCarrier" stroke-linecap="round" stroke-linejoin="round" stroke="#CCCCCC" stroke-width="0.16"/>
<g id="SVGRepo_iconCarrier"> <path fill="#444" d="M14 13v-1c0-0.2 0-4.1-2.8-5.4-2.2-1-2.2-3.5-2.2-3.6v-3h-2v3c0 0.1 0 2.6-2.2 3.6-2.8 1.3-2.8 5.2-2.8 5.4v1h-2l3 3 3-3h-2v-1c0 0 0-2.8 1.7-3.6 1.1-0.5 1.8-1.3 2.3-2 0.5 0.8 1.2 1.5 2.3 2 1.7 0.8 1.7 3.6 1.7 3.6v1h-2l3 3 3-3h-2z"/> </g>
</svg>