<svg xmlns="http://www.w3.org/2000/svg" width="25" height="24" viewBox="0 0 25 24" fill="none">
  <path d="M12.453 18.741C11.4055 18.7389 10.3688 18.5305 9.40198 18.1276C8.43513 17.7247 7.55712 17.1354 6.81812 16.3931C6.07911 15.6508 5.49358 14.7703 5.09497 13.8017C4.69636 12.8331 4.49247 11.7954 4.49496 10.748C4.49549 10.5494 4.57477 10.3592 4.71536 10.219C4.85596 10.0787 5.0464 10 5.24496 10C5.34346 10.0003 5.44094 10.0199 5.53183 10.0579C5.62272 10.0958 5.70526 10.1512 5.77472 10.2211C5.84418 10.2909 5.8992 10.3737 5.93665 10.4648C5.97409 10.5559 5.99324 10.6535 5.99298 10.752C5.99298 12.4645 6.67326 14.1069 7.88419 15.3178C9.09511 16.5287 10.7375 17.209 12.45 17.209C14.1625 17.209 15.8048 16.5287 17.0157 15.3178C18.2266 14.1069 18.907 12.4645 18.907 10.752C18.9067 10.6535 18.9258 10.5559 18.9633 10.4648C19.0007 10.3737 19.0557 10.2909 19.1252 10.2211C19.1947 10.1512 19.2772 10.0958 19.3681 10.0579C19.459 10.0199 19.5565 10.0003 19.6549 10C19.8535 10 20.044 10.0787 20.1846 10.219C20.3252 10.3592 20.4044 10.5494 20.4049 10.748C20.4074 11.7952 20.2036 12.8327 19.8052 13.8012C19.4067 14.7697 18.8213 15.6502 18.0825 16.3924C17.3437 17.1346 16.466 17.7241 15.4993 18.127C14.5327 18.53 13.4962 18.7386 12.449 18.741H12.453Z" fill="black"/>
  <path d="M12.452 21.5902C12.253 21.5902 12.0623 21.5112 11.9216 21.3706C11.781 21.2299 11.702 21.0392 11.702 20.8402V17.9902C11.702 17.7913 11.781 17.6006 11.9216 17.4599C12.0623 17.3193 12.253 17.2402 12.452 17.2402C12.6509 17.2402 12.8416 17.3193 12.9823 17.4599C13.1229 17.6006 13.202 17.7913 13.202 17.9902V20.8383C13.2022 20.9369 13.183 21.0347 13.1454 21.1259C13.1079 21.2171 13.0527 21.3 12.983 21.3699C12.9133 21.4397 12.8306 21.4951 12.7394 21.533C12.6483 21.5708 12.5506 21.5902 12.452 21.5902Z" fill="black"/>
  <path d="M12.4527 15.1469C11.2813 15.1439 10.159 14.6764 9.33197 13.8467C8.50498 13.0171 8.04095 11.8933 8.04175 10.7219V6.49884C8.04175 5.3295 8.50628 4.20807 9.33313 3.38123C10.16 2.55438 11.2814 2.08984 12.4507 2.08984C13.62 2.08984 14.7415 2.55438 15.5683 3.38123C16.3952 4.20807 16.8597 5.3295 16.8597 6.49884V10.7219C16.8616 11.8929 16.3984 13.0168 15.5721 13.8465C14.7457 14.6762 13.6237 15.1439 12.4527 15.1469ZM12.4527 3.58984C11.6814 3.59064 10.942 3.89738 10.3966 4.44275C9.8513 4.98812 9.54456 5.72757 9.54376 6.49884V10.7249C9.54376 11.1069 9.61901 11.4851 9.7652 11.8381C9.91139 12.191 10.1257 12.5117 10.3957 12.7818C10.6659 13.052 10.9866 13.2662 11.3395 13.4124C11.6924 13.5586 12.0707 13.6339 12.4527 13.6339C12.8347 13.6339 13.213 13.5586 13.5659 13.4124C13.9189 13.2662 14.2396 13.052 14.5097 12.7818C14.7798 12.5117 14.9941 12.191 15.1403 11.8381C15.2865 11.4851 15.3617 11.1069 15.3617 10.7249V6.49985C15.3612 5.7284 15.0546 4.9887 14.5092 4.44312C13.9638 3.89753 13.2242 3.59064 12.4527 3.58984Z" fill="black"/>
  <path d="M16.1099 10.8625H13.4169C13.218 10.8625 13.0272 10.7835 12.8866 10.6428C12.7459 10.5022 12.6669 10.3114 12.6669 10.1125C12.6669 9.91358 12.7459 9.72281 12.8866 9.58215C13.0272 9.4415 13.218 9.36249 13.4169 9.36249H16.1099C16.3088 9.36249 16.4996 9.4415 16.6402 9.58215C16.7809 9.72281 16.8599 9.91358 16.8599 10.1125C16.8599 10.3114 16.7809 10.5022 16.6402 10.6428C16.4996 10.7835 16.3088 10.8625 16.1099 10.8625ZM16.1099 7.85547H14.3169C14.118 7.85547 13.9272 7.77646 13.7866 7.6358C13.6459 7.49515 13.5669 7.30438 13.5669 7.10547C13.5669 6.90656 13.6459 6.71582 13.7866 6.57516C13.9272 6.43451 14.118 6.35547 14.3169 6.35547H16.1099C16.3088 6.35547 16.4996 6.43451 16.6402 6.57516C16.7809 6.71582 16.8599 6.90656 16.8599 7.10547C16.8599 7.30438 16.7809 7.49515 16.6402 7.6358C16.4996 7.77646 16.3088 7.85547 16.1099 7.85547Z" fill="black"/>
</svg>