<svg width="16" height="16" viewBox="0 0 16 16" fill="none" xmlns="http://www.w3.org/2000/svg">
<path fill-rule="evenodd" clip-rule="evenodd" d="M8.17993 1.33301C8.65727 1.33301 9.12128 1.52901 9.45395 1.86968C9.78595 2.21235 9.96929 2.68236 9.95529 3.15903C9.95662 3.26637 9.99195 3.39037 10.056 3.49904C10.162 3.67904 10.3293 3.80571 10.528 3.85771C10.7266 3.90704 10.9346 3.88037 11.1113 3.77571C11.9646 3.28837 13.0507 3.58037 13.538 4.42705L13.9533 5.14639C13.964 5.16572 13.9733 5.18439 13.9813 5.20372C14.4227 6.03774 14.128 7.08775 13.308 7.56709C13.1887 7.63576 13.092 7.73176 13.0253 7.84776C12.922 8.0271 12.8933 8.24043 12.9453 8.43643C12.9987 8.63644 13.126 8.80244 13.3053 8.90511C13.71 9.13778 14.012 9.52978 14.1327 9.98245C14.2533 10.4345 14.1873 10.9251 13.952 11.3298L13.5093 12.0671C13.022 12.9045 11.936 13.1945 11.0913 12.7065C10.9786 12.6418 10.8486 12.6065 10.7193 12.6032H10.7153C10.5226 12.6032 10.3246 12.6852 10.1806 12.8285C10.0346 12.9745 9.95462 13.1692 9.95595 13.3758C9.95129 14.3552 9.15461 15.1472 8.17993 15.1472H7.34459C6.36524 15.1472 5.56856 14.3512 5.56856 13.3718C5.56723 13.2512 5.53256 13.1258 5.4679 13.0172C5.36323 12.8345 5.19389 12.7038 4.99856 12.6518C4.80455 12.5998 4.59188 12.6285 4.41721 12.7298C3.99854 12.9632 3.50587 13.0198 3.0552 12.8932C2.60519 12.7658 2.21652 12.4565 1.98852 12.0465L1.57184 11.3285C1.0845 10.4831 1.37451 9.39978 2.21852 8.91177C2.45786 8.77377 2.60652 8.51644 2.60652 8.24043C2.60652 7.96443 2.45786 7.70643 2.21852 7.56842C1.37384 7.07775 1.0845 5.99174 1.57118 5.14639L2.02318 4.40438C2.50386 3.56837 3.59054 3.2737 4.43788 3.76037C4.55322 3.82904 4.67855 3.86371 4.80589 3.86504C5.22123 3.86504 5.56856 3.52237 5.57523 3.10103C5.57256 2.63636 5.7559 2.19035 6.0899 1.85368C6.42524 1.51768 6.87058 1.33301 7.34459 1.33301H8.17993ZM8.17993 2.33302H7.34459C7.13792 2.33302 6.94458 2.41369 6.79858 2.55902C6.65324 2.70503 6.57391 2.89903 6.57524 3.1057C6.56124 4.08038 5.76457 4.86505 4.79989 4.86505C4.49055 4.86172 4.19254 4.77839 3.93387 4.62372C3.57054 4.41705 3.09586 4.54438 2.88319 4.91439L2.43186 5.6564C2.22519 6.01507 2.35185 6.48908 2.71986 6.70308C3.26587 7.01908 3.60654 7.60842 3.60654 8.24043C3.60654 8.87244 3.26587 9.46111 2.71853 9.77779C2.35252 9.98979 2.22585 10.4611 2.43786 10.8278L2.85853 11.5531C2.96253 11.7405 3.13253 11.8758 3.3292 11.9311C3.5252 11.9858 3.74121 11.9625 3.92121 11.8625C4.18588 11.7071 4.49388 11.6265 4.80322 11.6265C4.95589 11.6265 5.10856 11.6458 5.25789 11.6858C5.70856 11.8071 6.0999 12.1085 6.33191 12.5132C6.48257 12.7672 6.56591 13.0638 6.56858 13.3665C6.56858 13.7998 6.91658 14.1472 7.34459 14.1472H8.17993C8.60594 14.1472 8.95394 13.8018 8.95594 13.3758C8.95327 12.9052 9.13728 12.4578 9.47395 12.1212C9.80595 11.7891 10.27 11.5898 10.734 11.6031C11.038 11.6105 11.3306 11.6925 11.5886 11.8391C11.96 12.0518 12.434 11.9251 12.6487 11.5585L13.0913 10.8205C13.19 10.6505 13.2187 10.4371 13.166 10.2405C13.114 10.0438 12.9833 9.87312 12.8073 9.77245C12.3953 9.53512 12.1013 9.15244 11.9793 8.69377C11.8586 8.24377 11.9246 7.75243 12.16 7.34775C12.3133 7.08108 12.538 6.85641 12.8073 6.70175C13.1687 6.49041 13.2953 6.01774 13.0853 5.64973C13.0767 5.63506 13.0687 5.61973 13.062 5.60373L12.6713 4.92639C12.4587 4.55638 11.9853 4.42905 11.614 4.64038C11.2126 4.87772 10.7353 4.94572 10.2766 4.82505C9.81862 4.70639 9.43461 4.41638 9.19528 4.00704C9.04194 3.75104 8.95861 3.45304 8.95594 3.1497C8.96194 2.9217 8.88194 2.71703 8.7366 2.56702C8.59194 2.41769 8.3886 2.33302 8.17993 2.33302ZM7.76519 5.98247C9.00987 5.98247 10.0226 6.99582 10.0226 8.2405C10.0226 9.48518 9.00987 10.4972 7.76519 10.4972C6.52051 10.4972 5.50783 9.48518 5.50783 8.2405C5.50783 6.99582 6.52051 5.98247 7.76519 5.98247ZM7.76519 6.98248C7.07185 6.98248 6.50784 7.54716 6.50784 8.2405C6.50784 8.93384 7.07185 9.49718 7.76519 9.49718C8.45853 9.49718 9.02254 8.93384 9.02254 8.2405C9.02254 7.54716 8.45853 6.98248 7.76519 6.98248Z" fill="#787878"/>
</svg>
