<svg xmlns="http://www.w3.org/2000/svg" fill="none" viewBox="9 11 40 38.59">
<path fill-rule="evenodd" clip-rule="evenodd" d="M23.5188 45.4517L26.6778 48.6264C27.9622 49.917 30.0399 49.917 31.3222 48.6264L34.4833 45.4517C35.3826 44.5474 36.6024 44.0414 37.8736 44.0414H40.2476C45.0823 44.0414 49 40.1016 49 35.2426V19.7965C49 14.9376 45.0823 11 40.2476 11H17.7545C12.9201 11 9 14.9376 9 19.7965V35.2426C9 40.1016 12.9201 44.0414 17.7545 44.0414H20.1285C21.4 44.0414 22.6194 44.5474 23.5188 45.4517ZM17 20C15.3431 20 14 21.3431 14 23V30C14 31.6569 15.3431 33 17 33H41C42.6569 33 44 31.6569 44 30V23C44 21.3431 42.6569 20 41 20H17Z" fill="#A9ADBD"/>
<path d="M24 27C24 28.6569 22.6569 30 21 30C19.3431 30 18 28.6569 18 27C18 25.3431 19.3431 24 21 24C22.6569 24 24 25.3431 24 27Z" fill="#A9ADBD"/>
<path d="M40 27C40 28.6569 38.6569 30 37 30C35.3431 30 34 28.6569 34 27C34 25.3431 35.3431 24 37 24C38.6569 24 40 25.3431 40 27Z" fill="#A9ADBD"/>
</svg>