<svg width="53" height="59" viewBox="0 0 53 59" fill="none" xmlns="http://www.w3.org/2000/svg">
<path d="M32.91 13.6914L31.7184 14.0688L31.7184 14.0688L32.91 13.6914ZM33.1502 16.2226L34.3914 16.3709L34.3914 16.3709L33.1502 16.2226ZM19.3078 17.3326L18.1161 17.71L18.1161 17.71L19.3078 17.3326ZM19.8995 12.3783L20.9727 13.0191L20.9727 13.0191L19.8995 12.3783ZM13.5911 41.1706L13.615 39.9208L13.615 39.9208L13.5911 41.1706ZM18.382 44.2987L19.5432 43.8361L19.5432 43.8361L18.382 44.2987ZM18.1984 48.0598L17.0821 47.4975L17.0821 47.4975L18.1984 48.0598ZM15.1755 50.664L14.7573 49.486L14.7573 49.486L15.1755 50.664ZM11.0839 50.5857L11.5556 49.4281L11.5556 49.4281L11.0839 50.5857ZM9.40159 49.4873L10.2776 48.5956L10.2776 48.5956L9.40159 49.4873ZM8.32054 47.8709L9.48179 47.4082L8.32054 47.8709ZM8.00538 45.9825L9.25389 46.0434L9.25389 46.0434L8.00538 45.9825ZM12.9551 32.0424V30.7924H11.7053L11.7051 32.0422L12.9551 32.0424ZM38.2536 33.2924C38.9439 33.2924 39.5036 32.7327 39.5036 32.0424C39.5036 31.352 38.9439 30.7924 38.2536 30.7924V33.2924ZM38.8885 41.1706L38.9124 39.9208L38.9124 39.9208L38.8885 41.1706ZM43.6795 44.2987L44.8407 43.8361L44.8407 43.8361L43.6795 44.2987ZM43.4959 48.0598L42.3796 47.4975L42.3796 47.4975L43.4959 48.0598ZM40.473 50.664L40.0548 49.486L40.0548 49.486L40.473 50.664ZM36.3814 50.5857L36.8531 49.4281L36.8531 49.4281L36.3814 50.5857ZM34.6991 49.4873L35.5751 48.5956L35.5751 48.5956L34.6991 49.4873ZM33.618 47.8709L34.7793 47.4082L33.618 47.8709ZM33.3029 45.9825L34.5514 46.0434L34.5514 46.0434L33.3029 45.9825ZM39.6589 32.0424C39.6589 31.352 39.0993 30.7924 38.4089 30.7924C37.7186 30.7924 37.1589 31.352 37.1589 32.0424H39.6589ZM31.7184 14.0688C31.925 14.7213 31.9893 15.4022 31.909 16.0744L34.3914 16.3709C34.5141 15.3429 34.4152 14.3036 34.1017 13.3139L31.7184 14.0688ZM31.909 16.0744C31.8287 16.7468 31.6047 17.4027 31.2451 18.0048L33.3916 19.2865C33.9273 18.3894 34.2686 17.3986 34.3914 16.3709L31.909 16.0744ZM31.2451 18.0048C30.8854 18.6073 30.3958 19.1457 29.7993 19.5856L31.2831 21.5977C32.1379 20.9674 32.856 20.1834 33.3916 19.2865L31.2451 18.0048ZM29.7993 19.5856C29.2027 20.0256 28.5122 20.3571 27.7661 20.5568L28.4125 22.9718C29.4526 22.6933 30.4285 22.2279 31.2831 21.5977L29.7993 19.5856ZM27.7661 20.5568C27.0199 20.7565 26.2363 20.8196 25.4614 20.7414L25.2104 23.2287C26.2848 23.3372 27.3725 23.2502 28.4125 22.9718L27.7661 20.5568ZM25.4614 20.7414C24.6865 20.6632 23.9395 20.4457 23.2633 20.1044L22.137 22.3363C23.0916 22.8181 24.1359 23.1203 25.2104 23.2287L25.4614 20.7414ZM23.2633 20.1044C22.5872 19.7632 21.9978 19.3064 21.5252 18.7648L19.6415 20.4085C20.333 21.201 21.1822 21.8545 22.137 22.3363L23.2633 20.1044ZM21.5252 18.7648C21.0528 18.2234 20.7062 17.6078 20.4995 16.9551L18.1161 17.71C18.4295 18.6994 18.9498 19.6157 19.6415 20.4085L21.5252 18.7648ZM20.4995 16.9551C20.2928 16.3027 20.2285 15.6217 20.3088 14.9495L17.8265 14.6531C17.7037 15.681 17.8027 16.7203 18.1161 17.71L20.4995 16.9551ZM20.3088 14.9495C20.3891 14.2772 20.6131 13.6213 20.9727 13.0191L18.8262 11.7374C18.2905 12.6346 17.9492 13.6253 17.8265 14.6531L20.3088 14.9495ZM20.9727 13.0191C21.3324 12.4167 21.822 11.8782 22.4185 11.4383L20.9347 9.42626C20.08 10.0566 19.3618 10.8406 18.8262 11.7374L20.9727 13.0191ZM22.4185 11.4383C23.0151 10.9984 23.7056 10.6669 24.4518 10.4672L23.8053 8.05219C22.7652 8.33061 21.7893 8.79607 20.9347 9.42626L22.4185 11.4383ZM24.4518 10.4672C25.198 10.2674 25.9815 10.2044 26.7564 10.2826L27.0075 7.79521C25.933 7.68677 24.8454 7.77377 23.8053 8.05219L24.4518 10.4672ZM26.7564 10.2826C27.5313 10.3608 28.2783 10.5783 28.9545 10.9195L30.0809 8.68764C29.1262 8.20585 28.0819 7.90365 27.0075 7.79521L26.7564 10.2826ZM28.9545 10.9195C29.6306 11.2607 30.22 11.7175 30.6926 12.2592L32.5763 10.6155C31.8848 9.823 31.0357 9.1695 30.0809 8.68764L28.9545 10.9195ZM30.6926 12.2592C31.165 12.8005 31.5116 13.4161 31.7184 14.0688L34.1017 13.3139C33.7883 12.3245 33.268 11.4083 32.5763 10.6155L30.6926 12.2592ZM24.8589 22.2149V31.5415H27.3589V22.2149H24.8589ZM11.9452 42.6835C12.4638 42.4994 13.0154 42.4098 13.5671 42.4204L13.615 39.9208C12.7627 39.9045 11.9115 40.0426 11.1088 40.3276L11.9452 42.6835ZM13.5671 42.4204C14.1189 42.4309 14.6558 42.5413 15.1469 42.7414L16.0903 40.4262C15.3083 40.1076 14.4673 39.9372 13.615 39.9208L13.5671 42.4204ZM15.1469 42.7414C15.6379 42.9415 16.0709 43.2262 16.4249 43.5739L18.177 41.7906C17.5827 41.2067 16.8724 40.7449 16.0903 40.4262L15.1469 42.7414ZM16.4249 43.5739C16.7786 43.9214 17.0472 44.3256 17.2207 44.7613L19.5432 43.8361C19.2377 43.0691 18.7715 42.3747 18.177 41.7906L16.4249 43.5739ZM17.2207 44.7613C17.3942 45.1967 17.4714 45.6599 17.4486 46.1261L19.9457 46.248C19.9859 45.4235 19.8489 44.6034 19.5432 43.8361L17.2207 44.7613ZM17.4486 46.1261C17.4259 46.5926 17.3032 47.0586 17.0821 47.4975L19.3148 48.6222C19.6892 47.879 19.9054 47.0722 19.9457 46.248L17.4486 46.1261ZM17.0821 47.4975C16.8608 47.9368 16.5445 48.3415 16.146 48.6849L17.7777 50.579C18.4164 50.0287 18.9406 49.3651 19.3148 48.6222L17.0821 47.4975ZM16.146 48.6849C15.7472 49.0284 15.2758 49.3019 14.7573 49.486L15.5937 51.842C16.3965 51.557 17.139 51.1291 17.7777 50.579L16.146 48.6849ZM14.7573 49.486C14.2387 49.6702 13.6872 49.7597 13.1354 49.7492L13.0876 52.2487C13.9398 52.265 14.791 52.127 15.5937 51.842L14.7573 49.486ZM13.1354 49.7492C12.5836 49.7386 12.0467 49.6283 11.5556 49.4281L10.6123 51.7433C11.3942 52.0619 12.2352 52.2324 13.0876 52.2487L13.1354 49.7492ZM11.5556 49.4281C11.0646 49.2281 10.6316 48.9434 10.2776 48.5956L8.52557 50.379C9.11986 50.9628 9.83015 51.4246 10.6123 51.7433L11.5556 49.4281ZM10.2776 48.5956C9.9239 48.2481 9.65536 47.8439 9.48179 47.4082L7.15929 48.3335C7.46485 49.1005 7.93099 49.7948 8.52557 50.379L10.2776 48.5956ZM9.48179 47.4082C9.30833 46.9728 9.23114 46.5097 9.25389 46.0434L6.75686 45.9216C6.71663 46.746 6.85363 47.5662 7.15929 48.3335L9.48179 47.4082ZM9.25389 46.0434C9.27665 45.5769 9.39933 45.111 9.62043 44.6721L7.38772 43.5474C7.01331 44.2906 6.79708 45.0974 6.75686 45.9216L9.25389 46.0434ZM9.62043 44.6721C9.84171 44.2328 10.158 43.828 10.5566 43.4847L8.92486 41.5906C8.28608 42.1409 7.76193 42.8045 7.38772 43.5474L9.62043 44.6721ZM10.5566 43.4847C10.9553 43.1412 11.4267 42.8676 11.9452 42.6835L11.1088 40.3276C10.306 40.6126 9.5635 41.0404 8.92486 41.5906L10.5566 43.4847ZM14.2036 40.5583L14.2051 32.0426L11.7051 32.0422L11.7036 40.5578L14.2036 40.5583ZM12.9551 33.2924H38.2536V30.7924H12.9551V33.2924ZM37.2427 42.6835C37.7613 42.4994 38.3128 42.4098 38.8646 42.4204L38.9124 39.9208C38.0602 39.9045 37.209 40.0426 36.4063 40.3276L37.2427 42.6835ZM38.8646 42.4204C39.4164 42.4309 39.9533 42.5413 40.4444 42.7414L41.3877 40.4262C40.6058 40.1076 39.7648 39.9372 38.9124 39.9208L38.8646 42.4204ZM40.4444 42.7414C40.9354 42.9415 41.3684 43.2262 41.7224 43.5739L43.4744 41.7906C42.8801 41.2067 42.1698 40.7449 41.3877 40.4262L40.4444 42.7414ZM41.7224 43.5739C42.0761 43.9214 42.3446 44.3256 42.5182 44.7613L44.8407 43.8361C44.5351 43.0691 44.069 42.3747 43.4744 41.7906L41.7224 43.5739ZM42.5182 44.7613C42.6917 45.1967 42.7689 45.6599 42.7461 46.1261L45.2431 46.248C45.2834 45.4235 45.1464 44.6034 44.8407 43.8361L42.5182 44.7613ZM42.7461 46.1261C42.7233 46.5926 42.6007 47.0586 42.3796 47.4975L44.6123 48.6222C44.9867 47.879 45.2029 47.0722 45.2431 46.248L42.7461 46.1261ZM42.3796 47.4975C42.1583 47.9368 41.842 48.3415 41.4434 48.6849L43.0751 50.579C43.7139 50.0287 44.2381 49.3651 44.6123 48.6222L42.3796 47.4975ZM41.4434 48.6849C41.0447 49.0284 40.5733 49.3019 40.0548 49.486L40.8912 51.842C41.6939 51.557 42.4365 51.1291 43.0751 50.579L41.4434 48.6849ZM40.0548 49.486C39.5362 49.6702 38.9846 49.7597 38.4329 49.7492L38.385 52.2487C39.2373 52.265 40.0885 52.127 40.8912 51.842L40.0548 49.486ZM38.4329 49.7492C37.8811 49.7386 37.3442 49.6283 36.8531 49.4281L35.9097 51.7433C36.6917 52.0619 37.5327 52.2324 38.385 52.2487L38.4329 49.7492ZM36.8531 49.4281C36.3621 49.2281 35.9291 48.9434 35.5751 48.5956L33.823 50.379C34.4173 50.9628 35.1276 51.4246 35.9097 51.7433L36.8531 49.4281ZM35.5751 48.5956C35.2214 48.2481 34.9528 47.8439 34.7793 47.4082L32.4568 48.3335C32.7623 49.1005 33.2285 49.7948 33.823 50.379L35.5751 48.5956ZM34.7793 47.4082C34.6058 46.9728 34.5286 46.5097 34.5514 46.0434L32.0543 45.9216C32.0141 46.746 32.1511 47.5662 32.4568 48.3335L34.7793 47.4082ZM34.5514 46.0434C34.5741 45.5769 34.6968 45.111 34.9179 44.6721L32.6852 43.5474C32.3108 44.2906 32.0946 45.0974 32.0543 45.9216L34.5514 46.0434ZM34.9179 44.6721C35.1392 44.2328 35.4555 43.828 35.854 43.4847L34.2223 41.5906C33.5836 42.1409 33.0594 42.8045 32.6852 43.5474L34.9179 44.6721ZM35.854 43.4847C36.2528 43.1412 36.7242 42.8676 37.2427 42.6835L36.4063 40.3276C35.6035 40.6126 34.861 41.0404 34.2223 41.5906L35.854 43.4847ZM39.6589 40.558V32.0424H37.1589V40.558H39.6589Z" fill="black"/>
</svg>
