<svg width="24" height="24" viewBox="0 0 24 24" fill="none" xmlns="http://www.w3.org/2000/svg">
<path fill-rule="evenodd" clip-rule="evenodd" d="M16.9709 3.28125H7.02811C4.80389 3.28125 3 5.08515 3 7.31033V12.7667C3 14.9919 4.80389 16.7958 7.02811 16.7958H16.9709C19.1961 16.7958 21 14.9919 21 12.7667V7.31033C21 5.08515 19.1961 3.28125 16.9709 3.28125Z" stroke="black" stroke-width="1.5" stroke-linecap="round" stroke-linejoin="round"/>
<path d="M7.05469 20.7188H16.943" stroke="black" stroke-width="1.5" stroke-linecap="round" stroke-linejoin="round"/>
<path d="M9.88339 16.7969L9.24609 20.7141" stroke="black" stroke-width="1.5" stroke-linecap="round" stroke-linejoin="round"/>
<path d="M14.1152 16.7969L14.7525 20.7141" stroke="black" stroke-width="1.5" stroke-linecap="round" stroke-linejoin="round"/>
<path d="M13.9463 12.0193L14.0473 11.746C14.4282 10.7152 15.2397 9.9024 16.269 9.52097L16.542 9.41981L16.269 9.31866C15.2397 8.93723 14.4282 8.12451 14.0473 7.09371L13.9463 6.82031L13.8453 7.09371C13.4644 8.12451 12.6529 8.93723 11.6236 9.31866L11.3506 9.41981L11.6236 9.52097C12.6529 9.9024 13.4644 10.7152 13.8453 11.746L13.9463 12.0193Z" stroke="black" stroke-width="1.5" stroke-linecap="round" stroke-linejoin="round"/>
<path d="M8.53995 13.021C8.71157 12.4563 9.15281 12.0144 9.71662 11.8425C9.15281 11.6707 8.71157 11.2287 8.53995 10.6641C8.36834 11.2287 7.9271 11.6707 7.36328 11.8425C7.9271 12.0144 8.36834 12.4563 8.53995 13.021Z" stroke="black" stroke-width="1.5" stroke-linecap="round" stroke-linejoin="round"/>
</svg>
