<svg width="62" height="61" viewBox="0 0 62 61" fill="none" xmlns="http://www.w3.org/2000/svg">
<path d="M48.6791 42.4697L47.4726 42.1427L47.4726 42.1427L48.6791 42.4697ZM52.0058 49.5487C52.5714 49.9446 53.3508 49.8071 53.7467 49.2415C54.1426 48.6759 54.005 47.8965 53.4395 47.5006L52.0058 49.5487ZM47.4726 42.1427C47.2558 42.9425 46.8836 43.6918 46.3772 44.3478L48.3562 45.8754C49.0632 44.9596 49.5829 43.9134 49.8855 42.7967L47.4726 42.1427ZM46.3772 44.3478C45.8708 45.0038 45.2402 45.5536 44.5213 45.9659L45.765 48.1345C46.7687 47.5589 47.6492 46.7913 48.3562 45.8754L46.3772 44.3478ZM44.5213 45.9659C43.8024 46.3781 43.0094 46.6448 42.1875 46.7505L42.5066 49.2301C43.6541 49.0824 44.7614 48.7101 45.765 48.1345L44.5213 45.9659ZM42.1875 46.7505C41.3656 46.8563 40.5309 46.7992 39.731 46.5824L39.077 48.9953C40.1937 49.298 41.3591 49.3778 42.5066 49.2301L42.1875 46.7505ZM39.731 46.5824C38.9312 46.3656 38.1819 45.9933 37.5259 45.487L35.9982 47.4659C36.9141 48.1729 37.9603 48.6926 39.077 48.9953L39.731 46.5824ZM37.5259 45.487C36.8699 44.9806 36.3201 44.3499 35.9078 43.6311L33.7392 44.8748C34.3147 45.8784 35.0824 46.7589 35.9982 47.4659L37.5259 45.487ZM35.9078 43.6311C35.4956 42.9122 35.2289 42.1191 35.1232 41.2972L32.6436 41.6163C32.7913 42.7639 33.1636 43.8711 33.7392 44.8748L35.9078 43.6311ZM35.1232 41.2972C35.0174 40.4753 35.0745 39.6406 35.2913 38.8408L32.8784 38.1867C32.5757 39.3034 32.4959 40.4688 32.6436 41.6163L35.1232 41.2972ZM35.2913 38.8408C35.5081 38.0409 35.8804 37.2916 36.3867 36.6356L34.4078 35.108C33.7008 36.0239 33.1811 37.07 32.8784 38.1867L35.2913 38.8408ZM36.3867 36.6356C36.8931 35.9797 37.5238 35.4298 38.2426 35.0176L36.9989 32.8489C35.9953 33.4245 35.1148 34.1921 34.4078 35.108L36.3867 36.6356ZM38.2426 35.0176C38.9615 34.6053 39.7545 34.3387 40.5765 34.2329L40.2573 31.7533C39.1098 31.901 38.0026 32.2733 36.9989 32.8489L38.2426 35.0176ZM40.5765 34.2329C41.3984 34.1271 42.2331 34.1843 43.0329 34.4011L43.687 31.9881C42.5703 31.6854 41.4049 31.6057 40.2573 31.7533L40.5765 34.2329ZM43.0329 34.4011C43.8328 34.6179 44.5821 34.9901 45.238 35.4965L46.7657 33.5175C45.8498 32.8105 44.8037 32.2908 43.687 31.9881L43.0329 34.4011ZM45.238 35.4965C45.894 36.0029 46.4438 36.6335 46.8561 37.3524L49.0248 36.1087C48.4492 35.105 47.6816 34.2245 46.7657 33.5175L45.238 35.4965ZM46.8561 37.3524C47.2684 38.0712 47.535 38.8643 47.6408 39.6862L50.1203 39.3671C49.9727 38.2195 49.6004 37.1123 49.0248 36.1087L46.8561 37.3524ZM47.6408 39.6862C47.7466 40.5081 47.6894 41.3428 47.4726 42.1427L49.8855 42.7967C50.1882 41.68 50.268 40.5146 50.1203 39.3671L47.6408 39.6862ZM47.2805 46.241L52.0058 49.5487L53.4395 47.5006L48.7142 44.1929L47.2805 46.241Z" fill="black"/>
<path fill-rule="evenodd" clip-rule="evenodd" d="M10.5 17.8695C10.5 17.2402 10.7923 16.5361 11.5368 15.7817C12.2867 15.0219 13.4337 14.2804 14.9497 13.6306C17.9773 12.3331 22.2471 11.5 27.0288 11.5C31.8106 11.5 36.0804 12.3331 39.108 13.6306C40.624 14.2804 41.771 15.0219 42.5209 15.7817C43.2654 16.5361 43.5577 17.2402 43.5577 17.8695C43.5577 18.4988 43.2654 19.2029 42.5209 19.9573C41.771 20.7171 40.624 21.4586 39.108 22.1084C36.0804 23.4059 31.8106 24.239 27.0288 24.239C22.2471 24.239 17.9773 23.4059 14.9497 22.1084C13.4337 21.4586 12.2867 20.7171 11.5368 19.9573C10.7923 19.203 10.5 18.4989 10.5 17.8696V17.8695ZM8 17.8699V17.8696V17.8695C8 16.3948 8.70268 15.0944 9.75747 14.0256C10.8069 12.9622 12.2636 12.0619 13.9649 11.3328C17.372 9.8726 21.9916 9 27.0288 9C32.0661 9 36.6857 9.8726 40.0928 11.3328C41.7941 12.0619 43.2507 12.9622 44.3002 14.0256C45.355 15.0944 46.0577 16.3948 46.0577 17.8695V17.8696V17.87V17.8706V17.8714V17.8725V17.8738V17.8754V17.8772V17.8792V17.8815V17.884V17.8867V17.8897V17.8929V17.8963V17.9V17.9039V17.908V17.9123V17.9169V17.9217V17.9267V17.9319V17.9374V17.9431V17.949V17.9551V17.9615V17.968V17.9748V17.9818V17.989V17.9965V18.0041V18.012V18.0201V18.0283V18.0368V18.0456V18.0545V18.0636V18.0729V18.0825V18.0922V18.1022V18.1123V18.1227V18.1332V18.144V18.155V18.1661V18.1775V18.189V18.2008V18.2127V18.2249V18.2372V18.2498V18.2625V18.2754V18.2885V18.3018V18.3153V18.329V18.3429V18.357V18.3712V18.3856V18.4002V18.415V18.43V18.4452V18.4605V18.476V18.4918V18.5076V18.5237V18.5399V18.5563V18.5729V18.5897V18.6066V18.6237V18.641V18.6585V18.6761V18.6939V18.7118V18.73V18.7483V18.7667V18.7853V18.8041V18.8231V18.8422V18.8615V18.8809V18.9005V18.9202V18.9402V18.9602V18.9804V19.0008V19.0214V19.042V19.0629V19.0839V19.105V19.1263V19.1478V19.1694V19.1911V19.213V19.235V19.2572V19.2795V19.302V19.3246V19.3474V19.3703V19.3933V19.4165V19.4398V19.4632V19.4868V19.5105V19.5344V19.5584V19.5825V19.6068V19.6311V19.6557V19.6803V19.7051V19.73V19.755V19.7802V19.8055V19.8309V19.8564V19.8821V19.9079V19.9338V19.9598V19.9859V20.0122V20.0386V20.065V20.0917V20.1184V20.1452V20.1722V20.1992V20.2264V20.2537V20.2811V20.3086V20.3362V20.364V20.3918V20.4197V20.4478V20.4759V20.5042V20.5325V20.561V20.5896V20.6182V20.647V20.6758V20.7048V20.7338V20.763V20.7922V20.8215V20.851V20.8805V20.9101V20.9398V20.9696V20.9995V21.0294V21.0595V21.0896V21.1199V21.1502V21.1806V21.2111V21.2416V21.2723V21.303V21.3338V21.3647V21.3956V21.4266V21.4578V21.4889V21.5202V21.5515V21.5829V21.6144V21.646V21.6776V21.7093V21.741V21.7729V21.8048V21.8367V21.8687V21.9008V21.933V21.9652V21.9975V22.0298V22.0622V22.0947V22.1272V22.1597V22.1924V22.225V22.2578V22.2906V22.3234V22.3563V22.3893V22.4223V22.4553V22.4884V22.5215V22.5547V22.588V22.6213V22.6546V22.6879V22.7214V22.7548V22.7883V22.8219V22.8554V22.889V22.9227V22.9564V22.9901V23.0239V23.0577V23.0915V23.1254V23.1592V23.1932V23.2271V23.2611V23.2951V23.3292V23.3632V23.3973V23.4314V23.4656V23.4997V23.5339V23.5681V23.6023V23.6366V23.6709V23.7051V23.7394V23.7738V23.8081V23.8424V23.8768V23.9112V23.9456V23.98V24.0144V24.0488V24.0832V24.1177V24.1521V24.1865V24.221V24.2555V24.2899V24.3244V24.3588V24.3933V24.4278V24.4622V24.4967V24.5312V24.5656V24.6001V24.6345V24.669V24.7034V24.7378V24.7723V24.8067V24.8411V24.8755V24.9098V24.9442V24.9785V25.0129V25.0472V25.0815V25.1158V25.1501V25.1843V25.2186V25.2528V25.287V25.3211V25.3553V25.3894V25.4235V25.4576V25.4916V25.5257V25.5596V25.5936V25.6275V25.6614V25.6953V25.7291V25.763V25.7967V25.8305V25.8642V25.8978V25.9315V25.965V25.9986V26.0321V26.0656V26.099V26.1324V26.1657V26.199V26.2323V26.2655V26.2986V26.3317V26.3648V26.3978V26.4308V26.4637V26.4966V26.5294V26.5621V26.5948V26.6275V26.66V26.6926V26.725V26.7575V26.7898V26.8221V26.8543V26.8865V26.9186V26.9507V26.9826V27.0146V27.0464V27.0782V27.1099V27.1415V27.1731V27.2046V27.236V27.2674V27.2987V27.3299V27.361V27.3921V27.4231V27.454V27.4848V27.5155V27.5462V27.5768V27.6073V27.6377V27.6681V27.6983V27.7285V27.7586V27.7886V27.8185V27.8483V27.878V27.9076V27.9372V27.9667V27.996V28.0253V28.0545V28.0835V28.1125V28.1414V28.1702V28.1989V28.2275V28.256V28.2843V28.3126V28.3408V28.3689V28.3969V28.4247V28.4525V28.4801V28.5077V28.5351V28.5624V28.5897V28.6168V28.6438V28.6706V28.6974V28.724V28.7506V28.777V28.8033V28.8295V28.8555V28.8815V28.9073V28.933V28.9585V28.984V29.0093V29.0345V29.0596V29.0845V29.1094V29.134V29.1586V29.183V29.2073V29.2315V29.2555V29.2794V29.3032V29.3268V29.3503V29.3737V29.3969V29.42V29.4429V29.4657V29.4883V29.5109V29.5332V29.5555V29.5775V29.5995V29.6213V29.6429V29.6644V29.6857V29.7069V29.728V29.7489V29.7696V29.7902V29.8106V29.8309V29.851V29.871V29.8908V29.9104V29.9299V29.9492V29.9684V29.9874V30.0062V30.0249V30.0434V30.0617V30.0799V30.0979V30.1158V30.1334V30.151V30.1683V30.1854V30.2024V30.2193V30.2359V30.2524V30.2687V30.2848V30.3007V30.3165V30.3321V30.3475V30.3627V30.3777V30.3926V30.4072V30.4217V30.436V30.4455C45.2768 30.0247 44.4386 29.6966 43.5577 29.4761V29.4657V29.4429V29.42V29.3969V29.3737V29.3503V29.3268V29.3032V29.2794V29.2555V29.2315V29.2073V29.183V29.1586V29.134V29.1094V29.0845V29.0596V29.0345V29.0093V28.984V28.9585V28.933V28.9073V28.8815V28.8555V28.8295V28.8033V28.777V28.7506V28.724V28.6974V28.6706V28.6438V28.6168V28.5897V28.5624V28.5351V28.5077V28.4801V28.4525V28.4247V28.3969V28.3689V28.3408V28.3126V28.2843V28.256V28.2275V28.1989V28.1702V28.1414V28.1125V28.0835V28.0545V28.0253V27.996V27.9667V27.9372V27.9076V27.878V27.8483V27.8185V27.7886V27.7586V27.7285V27.6983V27.6681V27.6377V27.6073V27.5768V27.5462V27.5155V27.4848V27.454V27.4231V27.3921V27.361V27.3299V27.2987V27.2674V27.236V27.2046V27.1731V27.1415V27.1099V27.0782V27.0464V27.0146V26.9826V26.9507V26.9186V26.8865V26.8543V26.8221V26.7898V26.7575V26.725V26.6926V26.66V26.6275V26.5948V26.5621V26.5294V26.4966V26.4637V26.4308V26.3978V26.3648V26.3317V26.2986V26.2655V26.2323V26.199V26.1657V26.1324V26.099V26.0656V26.0321V25.9986V25.965V25.9315V25.8978V25.8642V25.8305V25.7967V25.763V25.7291V25.6953V25.6614V25.6275V25.5936V25.5596V25.5257V25.4916V25.4576V25.4235V25.3894V25.3553V25.3211V25.287V25.2528V25.2186V25.1843V25.1501V25.1158V25.0815V25.0472V25.0129V24.9785V24.9442V24.9098V24.8755V24.8411V24.8067V24.7723V24.7378V24.7034V24.669V24.6345V24.6001V24.5656V24.5312V24.4967V24.4622V24.4278V24.3933V24.3588V24.3244V24.2899V24.2555V24.221V24.1865V24.1521V24.1177V24.0832V24.0488V24.0144V23.98V23.9456V23.9112V23.8768V23.8424V23.8081V23.7738V23.7394V23.7051V23.6709V23.6366V23.6023V23.5681V23.5339V23.4997V23.4656V23.4314V23.3973V23.3632V23.3292V23.2951V23.2611V23.2271V23.1932V23.1592V23.1254V23.0915V23.0577V23.0239V22.9901V22.9564V22.9227V22.889V22.8554V22.8219V22.7883V22.7548V22.7214V22.6879V22.6546V22.6213V22.588V22.5547V22.5215V22.4884V22.4553V22.4223V22.3893V22.3854C42.6042 23.1611 41.4233 23.836 40.0928 24.4062C36.6857 25.8664 32.0661 26.739 27.0288 26.739C21.9916 26.739 17.372 25.8664 13.9649 24.4062C12.6344 23.836 11.4535 23.1611 10.5 22.3854V22.641V30.5687C10.5 31.198 10.7923 31.9021 11.5368 32.6565C12.2867 33.4163 13.4337 34.1579 14.9497 34.8076C17.9773 36.1051 22.2471 36.9382 27.0288 36.9382C28.2323 36.9382 29.4034 36.8854 30.5303 36.7858C30.2777 37.5975 30.1177 38.45 30.0627 39.331C29.0734 39.4016 28.0599 39.4382 27.0288 39.4382C21.9916 39.4382 17.372 38.5656 13.9649 37.1055C12.6344 36.5352 11.4535 35.8603 10.5 35.0846V35.0958V35.1152V35.1347V35.1543V35.1739V35.1936V35.2134V35.2332V35.2532V35.2731V35.2932V35.3133V35.3335V35.3538V35.3741V35.3945V35.415V35.4355V35.4561V35.4768V35.4975V35.5183V35.5391V35.5601V35.5811V35.6021V35.6232V35.6444V35.6656V35.687V35.7083V35.7297V35.7512V35.7728V35.7944V35.8161V35.8378V35.8596V35.8815V35.9034V35.9253V35.9474V35.9694V35.9916V36.0138V36.0361V36.0584V36.0807V36.1032V36.1257V36.1482V36.1708V36.1934V36.2161V36.2389V36.2617V36.2846V36.3075V36.3305V36.3535V36.3766V36.3997V36.4229V36.4461V36.4694V36.4927V36.5161V36.5395V36.563V36.5865V36.6101V36.6337V36.6574V36.6811V36.7049V36.7287V36.7525V36.7764V36.8004V36.8244V36.8484V36.8725V36.8967V36.9208V36.945V36.9693V36.9936V37.018V37.0423V37.0668V37.0913V37.1158V37.1403V37.1649V37.1896V37.2142V37.2389V37.2637V37.2885V37.3133V37.3382V37.3631V37.388V37.413V37.438V37.4631V37.4882V37.5133V37.5385V37.5637V37.5889V37.6142V37.6395V37.6648V37.6902V37.7156V37.741V37.7665V37.792V37.8175V37.8431V37.8687V37.8943V37.92V37.9456V37.9714V37.9971V38.0229V38.0487V38.0745V38.1004V38.1262V38.1521V38.1781V38.204V38.23V38.2561V38.2821V38.3082V38.3343V38.3604V38.3865V38.4127V38.4389V38.4651V38.4913V38.5176V38.5438V38.5701V38.5965V38.6228V38.6492V38.6755V38.7019V38.7284V38.7548V38.7813V38.8077V38.8342V38.8608V38.8873V38.9138V38.9404V38.967V38.9936V39.0202V39.0468V39.0735V39.1001V39.1268V39.1535V39.1802V39.2069V39.2336V39.2604V39.2871V39.3139V39.3407V39.3675V39.3943V39.4211V39.4479V39.4747V39.5016V39.5284V39.5553V39.5821V39.609V39.6359V39.6628V39.6897V39.7166V39.7435V39.7704V39.7974V39.8243V39.8512V39.8782V39.9051V39.9321V39.959V39.986V40.0129V40.0399V40.0668V40.0938V40.1208V40.1477V40.1747V40.2017V40.2287V40.2556V40.2826V40.3096V40.3365V40.3635V40.3905V40.4174V40.4444V40.4714V40.4983V40.5253V40.5522V40.5792V40.6061V40.633V40.66V40.6869V40.7138V40.7407V40.7676V40.7945V40.8214V40.8483V40.8752V40.902V40.9289V40.9557V40.9826V41.0094V41.0362V41.063V41.0899V41.1166V41.1434V41.1702V41.1969V41.2237V41.2504V41.2771V41.3038V41.3305V41.3572V41.3839V41.4105V41.4371V41.4637V41.4903V41.5169V41.5435V41.57V41.5966V41.6231V41.6496V41.6761V41.7025V41.729V41.7554V41.7818V41.8082V41.8345V41.8609V41.8872V41.9135V41.9398V41.966V41.9923V42.0185V42.0447V42.0708V42.097V42.1231V42.1492V42.1753V42.2013V42.2273V42.2533V42.2793V42.3052V42.3311V42.357V42.3829V42.4087V42.4345V42.4603V42.486V42.5117V42.5374V42.5631V42.5887V42.6143V42.6398V42.6654V42.6909V42.7163V42.7418V42.7672V42.7926V42.8179V42.8432V42.8685V42.8937V42.9189V42.9441V42.9692V42.9943V43.0193V43.0444V43.0693V43.0943V43.1192V43.1441V43.1689V43.1937V43.2185V43.2432V43.2679C10.5 43.8972 10.7923 44.6013 11.5368 45.3557C12.2867 46.1155 13.4337 46.8571 14.9497 47.5068C17.9773 48.8043 22.2471 49.6374 27.0288 49.6374C29.7739 49.6374 32.3502 49.3628 34.6197 48.8835C35.6714 49.6311 36.8619 50.1962 38.1449 50.5327C35.0134 51.55 31.1616 52.1374 27.0288 52.1374C21.9916 52.1374 17.372 51.2648 13.9649 49.8046C12.2636 49.0755 10.807 48.1752 9.75746 47.1118C8.70267 46.043 8 44.7426 8 43.2679V43.2432V43.2185V43.1937V43.1689V43.1441V43.1192V43.0943V43.0693V43.0444V43.0193V42.9943V42.9692V42.9441V42.9189V42.8937V42.8685V42.8432V42.8179V42.7926V42.7672V42.7418V42.7163V42.6909V42.6654V42.6398V42.6143V42.5887V42.5631V42.5374V42.5117V42.486V42.4603V42.4345V42.4087V42.3829V42.357V42.3311V42.3052V42.2793V42.2533V42.2273V42.2013V42.1753V42.1492V42.1231V42.097V42.0708V42.0447V42.0185V41.9923V41.966V41.9398V41.9135V41.8872V41.8609V41.8345V41.8082V41.7818V41.7554V41.729V41.7025V41.6761V41.6496V41.6231V41.5966V41.57V41.5435V41.5169V41.4903V41.4637V41.4371V41.4105V41.3839V41.3572V41.3305V41.3038V41.2771V41.2504V41.2237V41.1969V41.1702V41.1434V41.1166V41.0899V41.063V41.0362V41.0094V40.9826V40.9557V40.9289V40.902V40.8752V40.8483V40.8214V40.7945V40.7676V40.7407V40.7138V40.6869V40.66V40.633V40.6061V40.5792V40.5522V40.5253V40.4983V40.4714V40.4444V40.4174V40.3905V40.3635V40.3365V40.3096V40.2826V40.2556V40.2287V40.2017V40.1747V40.1477V40.1208V40.0938V40.0668V40.0399V40.0129V39.986V39.959V39.9321V39.9051V39.8782V39.8512V39.8243V39.7974V39.7704V39.7435V39.7166V39.6897V39.6628V39.6359V39.609V39.5821V39.5553V39.5284V39.5016V39.4747V39.4479V39.4211V39.3943V39.3675V39.3407V39.3139V39.2871V39.2604V39.2336V39.2069V39.1802V39.1535V39.1268V39.1001V39.0735V39.0468V39.0202V38.9936V38.967V38.9404V38.9138V38.8873V38.8608V38.8342V38.8077V38.7813V38.7548V38.7284V38.7019V38.6755V38.6492V38.6228V38.5965V38.5701V38.5438V38.5176V38.4913V38.4651V38.4389V38.4127V38.3865V38.3604V38.3343V38.3082V38.2821V38.2561V38.23V38.204V38.1781V38.1521V38.1262V38.1004V38.0745V38.0487V38.0229V37.9971V37.9714V37.9456V37.92V37.8943V37.8687V37.8431V37.8175V37.792V37.7665V37.741V37.7156V37.6902V37.6648V37.6395V37.6142V37.5889V37.5637V37.5385V37.5133V37.4882V37.4631V37.438V37.413V37.388V37.3631V37.3382V37.3133V37.2885V37.2637V37.2389V37.2142V37.1896V37.1649V37.1403V37.1158V37.0913V37.0668V37.0423V37.018V36.9936V36.9693V36.945V36.9208V36.8967V36.8725V36.8484V36.8244V36.8004V36.7764V36.7525V36.7287V36.7049V36.6811V36.6574V36.6337V36.6101V36.5865V36.563V36.5395V36.5161V36.4927V36.4694V36.4461V36.4229V36.3997V36.3766V36.3535V36.3305V36.3075V36.2846V36.2617V36.2389V36.2161V36.1934V36.1708V36.1482V36.1257V36.1032V36.0807V36.0584V36.0361V36.0138V35.9916V35.9694V35.9474V35.9253V35.9034V35.8815V35.8596V35.8378V35.8161V35.7944V35.7728V35.7512V35.7297V35.7083V35.687V35.6656V35.6444V35.6232V35.6021V35.5811V35.5601V35.5391V35.5183V35.4975V35.4768V35.4561V35.4355V35.415V35.3945V35.3741V35.3538V35.3335V35.3133V35.2932V35.2731V35.2532V35.2332V35.2134V35.1936V35.1739V35.1543V35.1347V35.1152V35.0958V35.0764V35.0572V35.038V35.0188V34.9998V34.9808V34.9619V34.9431V34.9243V34.9056V34.887V34.8685V34.85V34.8316V34.8133V34.7951V34.777V34.7589V34.7409V34.723V34.7052V34.6874V34.6697V34.6521V34.6346V34.6172V34.5998V34.5826V34.5654V34.5483V34.5313V34.5143V34.4975V34.4807V34.464V34.4474V34.4309V34.4145V34.3981V34.3818V34.3657V34.3496V34.3336V34.3176V34.3018V34.2861V34.2704V34.2549V34.2394V34.224V34.2087V34.1935V34.1784V34.1633V34.1484V34.1335V34.1188V34.1041V34.0896V34.0751V34.0607V34.0464V34.0322V34.0181V34.0041V33.9902V33.9763V33.9626V33.949V33.9355V33.922V33.9087V33.8954V33.8823V33.8692V33.8563V33.8434V33.8307V33.818V33.8055V33.793V33.7807V33.7684V33.7562V33.7442V33.7322V33.7204V33.7086V33.697V33.6855V33.674V33.6627V33.6514V33.6403V33.6293V33.6184V33.6076V33.5969V33.5863V33.5758V33.5654V33.5551V33.5449V33.5348V33.5249V33.515V33.5053V33.4957V33.4861V33.4767V33.4674V33.4582V33.4491V33.4402V33.4313V33.4226V33.4139V33.4054V33.397V33.3887V33.3805V33.3724V33.3645V33.3566V33.3489V33.3413V33.3338V33.3264V33.3192V33.312V33.305V33.2981V33.2913V33.2846V33.2781V33.2716V33.2653V33.2591V33.253V33.247V33.2412V33.2355V33.2299V33.2244V33.219V33.2138V33.2087V33.2037V33.1988V33.1941V33.1895V33.185V33.1806V33.1764V33.1723V33.1683V33.1644V33.1607V33.157V33.1535V33.1502V33.147V33.1438V33.1409V33.138V33.1353V33.1327V33.1302V33.1279V33.1257V33.1236V33.1217V33.1199V33.1182V33.1167V33.1153V33.114V33.1128V33.1118V33.111V33.1102V33.1096V33.1091V33.1088V33.1086L8.73366 33.1085L8.73364 33.1085H8V31.8585H8.18346C8.0644 31.4456 8 31.0151 8 30.5687V22.641V19.262V18.2426V18.2314V18.2203V18.2095V18.1988V18.1882V18.1778V18.1676V18.1575V18.1476V18.1379V18.1283V18.1189V18.1096V18.1005V18.0916V18.0829V18.0743V18.0659V18.0576V18.0495V18.0416V18.0339V18.0263V18.0189V18.0117V18.0046V17.9977V17.991V17.9845V17.9781V17.9719V17.9659V17.9601V17.9544V17.9489V17.9436V17.9385V17.9335V17.9288V17.9242V17.9198V17.9155V17.9115V17.9076V17.9039V17.9004V17.8971V17.894V17.891V17.8883V17.8857V17.8833V17.8811V17.8791V17.8773V17.8757V17.8742V17.873V17.8719V17.8711V17.8704V17.8699Z" fill="black"/>
</svg>
