<svg width="16" height="16" viewBox="0 0 16 16" fill="none" xmlns="http://www.w3.org/2000/svg">
<path d="M7.37364 5.95802C10.0714 5.95802 12.2584 5.07578 12.2584 3.98748C12.2584 2.89917 10.0714 2.01692 7.37364 2.01692C4.67579 2.01692 2.48877 2.89917 2.48877 3.98748C2.48877 5.07578 4.67579 5.95802 7.37364 5.95802Z" stroke="black" stroke-width="0.666667"/>
<path d="M12.5581 13.0293L13.5118 13.983" stroke="black" stroke-width="0.666667" stroke-linecap="round" stroke-linejoin="round"/>
<path fill-rule="evenodd" clip-rule="evenodd" d="M9.52539 11.7721C9.52539 12.7521 10.3201 13.5475 11.3008 13.5475C11.7921 13.5475 12.2361 13.3485 12.5573 13.0293C12.8778 12.7022 13.0755 12.2621 13.0755 11.7721C13.0755 10.7921 12.2814 9.99673 11.3008 9.99673C10.3201 9.99673 9.52539 10.7921 9.52539 11.7721Z" stroke="black" stroke-width="0.666667" stroke-linecap="round" stroke-linejoin="round"/>
<path d="M2.48877 7.8418V11.7249C2.48877 11.7249 2.48877 13.6665 7.3939 13.6665" stroke="black" stroke-width="0.666667" stroke-linecap="round" stroke-linejoin="round"/>
<path d="M12.2588 7.84146V3.95833" stroke="black" stroke-width="0.666667" stroke-linecap="round"/>
<path d="M2.48877 3.95833V7.84146C2.48877 7.84146 2.48877 9.783 7.3939 9.783" stroke="black" stroke-width="0.666667" stroke-linecap="round"/>
</svg>
