<svg width="25" height="24" viewBox="0 0 25 24" fill="none" xmlns="http://www.w3.org/2000/svg">
<path d="M15.9624 4.64461L16.7806 6.4294H19.42C20.2315 6.4294 20.8894 7.08728 20.8894 7.89882V8.98702C20.8894 9.54188 20.4396 9.99168 19.8848 9.99168H6.11501C5.56015 9.99168 5.11035 9.54188 5.11035 8.98702V7.89882C5.11035 7.08728 5.76823 6.4294 6.57978 6.4294H9.2192L10.0374 4.64461C10.2829 4.10901 10.8181 3.76562 11.4073 3.76562H14.5925C15.1817 3.76562 15.7168 4.10901 15.9624 4.64461Z" stroke="white" stroke-width="1.5" stroke-linecap="round" stroke-linejoin="round"/>
<path d="M19.3504 10.0664V18.7521C19.3504 20.4167 18.0177 21.7661 16.3738 21.7661H9.62696C7.98305 21.7661 6.65039 20.4167 6.65039 18.7521V10.0664" stroke="white" stroke-width="1.5" stroke-linecap="round" stroke-linejoin="round"/>
</svg>
