<svg width="13" height="14" viewBox="0 0 13 14" fill="none" xmlns="http://www.w3.org/2000/svg">
<g id="Iconly/Light/Delete">
<g id="Delete">
<path id="Stroke-1" d="M10.8855 5.31267C10.8855 5.31267 10.5235 9.80267 10.3135 11.694C10.2135 12.5973 9.65547 13.1267 8.74147 13.1433C7.00214 13.1747 5.26081 13.1767 3.52214 13.14C2.6428 13.122 2.09414 12.586 1.99614 11.6987C1.7848 9.79067 1.4248 5.31267 1.4248 5.31267" stroke="#3E3E3E" stroke-linecap="round" stroke-linejoin="round"/>
<path id="Stroke-3" d="M11.8073 3.16032H0.501953" stroke="#3E3E3E" stroke-linecap="round" stroke-linejoin="round"/>
<path id="Stroke-5" d="M9.62933 3.16015C9.106 3.16015 8.65533 2.79015 8.55266 2.27749L8.39066 1.46682C8.29066 1.09282 7.952 0.834152 7.566 0.834152H4.744C4.358 0.834152 4.01933 1.09282 3.91933 1.46682L3.75733 2.27749C3.65466 2.79015 3.204 3.16015 2.68066 3.16015" stroke="#3E3E3E" stroke-linecap="round" stroke-linejoin="round"/>
</g>
</g>
</svg>
