<svg width="13" height="14" viewBox="0 0 13 14" fill="none" xmlns="http://www.w3.org/2000/svg">
<path d="M10.8827 5.3125C10.8827 5.3125 10.5207 9.8025 10.3107 11.6938C10.2107 12.5972 9.65266 13.1265 8.73866 13.1432C6.99933 13.1745 5.258 13.1765 3.51933 13.1398C2.64 13.1218 2.09133 12.5858 1.99333 11.6985C1.782 9.7905 1.422 5.3125 1.422 5.3125" stroke="white" stroke-linecap="round" stroke-linejoin="round"/>
<path d="M11.8055 3.16016H0.500122" stroke="white" stroke-linecap="round" stroke-linejoin="round"/>
<path d="M9.62652 3.15998C9.10319 3.15998 8.65252 2.78998 8.54986 2.27732L8.38786 1.46665C8.28786 1.09265 7.94919 0.833984 7.56319 0.833984H4.74119C4.35519 0.833984 4.01652 1.09265 3.91652 1.46665L3.75452 2.27732C3.65186 2.78998 3.20119 3.15998 2.67786 3.15998" stroke="white" stroke-linecap="round" stroke-linejoin="round"/>
</svg>
