<svg width="8" height="10" viewBox="0 0 8 10" fill="none" xmlns="http://www.w3.org/2000/svg">
<path fill-rule="evenodd" clip-rule="evenodd" d="M7.66196 2.16185C7.82535 2.16185 7.96137 2.29751 7.96137 2.47013V2.62973C7.96137 2.79814 7.82535 2.938 7.66196 2.938H0.701186C0.537388 2.938 0.401367 2.79814 0.401367 2.62973V2.47013C0.401367 2.29751 0.537388 2.16185 0.701186 2.16185H1.92578C2.17454 2.16185 2.39103 1.98503 2.447 1.73556L2.51113 1.44912C2.61079 1.05894 2.9388 0.799805 3.31418 0.799805H5.04855C5.41985 0.799805 5.75153 1.05894 5.84752 1.42854L5.91615 1.73514C5.9717 1.98503 6.18819 2.16185 6.43736 2.16185H7.66196ZM7.03985 7.99604C7.1677 6.80452 7.39154 3.97375 7.39154 3.94519C7.39971 3.85867 7.37153 3.77677 7.31557 3.71083C7.25552 3.64909 7.17955 3.61255 7.09581 3.61255H1.27018C1.18604 3.61255 1.10598 3.64909 1.05042 3.71083C0.994056 3.77677 0.96628 3.85867 0.970364 3.94519C0.971115 3.95043 0.979147 4.05015 0.992575 4.21685C1.05223 4.95741 1.21837 7.02002 1.32573 7.99604C1.40171 8.71508 1.8735 9.16699 2.55687 9.18337C3.08421 9.19555 3.62747 9.19975 4.183 9.19975C4.70625 9.19975 5.23767 9.19555 5.78135 9.18337C6.48841 9.17119 6.95979 8.72726 7.03985 7.99604Z" fill="#D11A2A"/>
</svg>
