<svg width="16" height="16" viewBox="0 0 16 16" fill="none" xmlns="http://www.w3.org/2000/svg">
<path d="M11.8805 4.90892C11.8805 4.52279 12.1935 4.20977 12.5797 4.20977C12.9658 4.20977 13.2788 4.52279 13.2788 4.90892C13.2788 5.29506 12.9658 5.60808 12.5797 5.60808C12.1935 5.60808 11.8805 5.29506 11.8805 4.90892Z" stroke="black" stroke-width="0.666667" stroke-linecap="round" stroke-linejoin="round"/>
<path d="M9.73206 2.69928C9.73206 2.31315 10.0451 2.00013 10.4312 2.00013C10.8173 2.00013 11.1304 2.31315 11.1304 2.69928C11.1304 3.08542 10.8173 3.39844 10.4312 3.39844C10.0451 3.39844 9.73206 3.08542 9.73206 2.69928Z" stroke="black" stroke-width="0.666667" stroke-linecap="round" stroke-linejoin="round"/>
<path d="M7.83643 5.03899H9.33536C9.47083 5.03899 9.59256 4.95625 9.64243 4.83029L10.2079 3.362" stroke="black" stroke-width="0.666667" stroke-linecap="round" stroke-linejoin="round"/>
<path d="M12.52 8.0052H7.83691" stroke="black" stroke-width="0.666667" stroke-linecap="round" stroke-linejoin="round"/>
<path d="M12.0049 5.45312L10.792 6.39905C10.7125 6.46105 10.6146 6.49472 10.5138 6.49472H7.8837C7.05236 6.49472 6.37842 7.16866 6.37842 8C6.37842 8.83133 7.05236 9.50527 7.8837 9.50527H10.5138C10.6146 9.50527 10.7125 9.53893 10.792 9.60093L12.0049 10.5469" stroke="black" stroke-width="0.666667" stroke-linecap="round" stroke-linejoin="round"/>
<path d="M11.8805 11.0911C11.8805 11.4772 12.1935 11.7902 12.5797 11.7902C12.9658 11.7902 13.2788 11.4772 13.2788 11.0911C13.2788 10.7049 12.9658 10.3919 12.5797 10.3919C12.1935 10.3919 11.8805 10.7049 11.8805 11.0911Z" stroke="black" stroke-width="0.666667" stroke-linecap="round" stroke-linejoin="round"/>
<path d="M12.5739 8.00525C12.5739 7.61912 12.8869 7.3061 13.273 7.3061C13.6591 7.3061 13.9722 7.61912 13.9722 8.00525C13.9722 8.39139 13.6591 8.70441 13.273 8.70441C12.8869 8.70441 12.5739 8.39139 12.5739 8.00525Z" stroke="black" stroke-width="0.666667" stroke-linecap="round" stroke-linejoin="round"/>
<path d="M9.73206 13.3007C9.73206 13.6869 10.0451 13.9999 10.4312 13.9999C10.8174 13.9999 11.1304 13.6869 11.1304 13.3007C11.1304 12.9146 10.8174 12.6016 10.4312 12.6016C10.0451 12.6016 9.73206 12.9146 9.73206 13.3007Z" stroke="black" stroke-width="0.666667" stroke-linecap="round" stroke-linejoin="round"/>
<path d="M7.83643 10.961H9.33536C9.47083 10.961 9.59256 11.0437 9.64243 11.1697L10.2079 12.638" stroke="black" stroke-width="0.666667" stroke-linecap="round" stroke-linejoin="round"/>
<path d="M8.2159 13.9972C8.0205 14.0029 7.82443 13.9996 7.62916 13.9866C7.34443 13.9676 7.08603 13.8109 6.9447 13.5626L6.51517 12.8073C6.42162 12.6423 6.27266 12.5198 6.09836 12.4447L6.09272 12.4422C5.91892 12.3659 5.72768 12.3405 5.54321 12.3847L4.69732 12.5853C4.4191 12.6517 4.1285 12.5691 3.91988 12.3735C3.77778 12.2398 3.64163 12.0986 3.51287 11.9512C3.32476 11.7364 3.25276 11.443 3.32859 11.1682L3.55888 10.3296C3.60897 10.1465 3.59042 9.95427 3.52112 9.77833C3.51991 9.77647 3.51952 9.77427 3.51888 9.77267C3.44926 9.59587 3.33235 9.44287 3.17056 9.34367L2.43028 8.88733C2.18712 8.7372 2.03972 8.47353 2.0308 8.18813C2.02448 7.99253 2.02836 7.79667 2.04137 7.6014C2.06036 7.31667 2.21653 7.058 2.46456 6.9172L3.226 6.48435C3.38507 6.3936 3.50953 6.2542 3.58139 6.08587C3.58623 6.0732 3.59164 6.06077 3.59704 6.04834C3.66872 5.88195 3.6867 5.69691 3.64444 5.52062L3.44215 4.66929C3.37622 4.39133 3.45893 4.10072 3.65448 3.89211C3.78818 3.75001 3.9288 3.61361 4.07618 3.48485C4.29161 3.29698 4.58442 3.22475 4.85977 3.30081L5.69754 3.53143C5.8807 3.58152 6.0729 3.56296 6.24966 3.49334C6.25152 3.49214 6.25371 3.49175 6.25534 3.49111C6.43153 3.42125 6.58452 3.30433 6.68436 3.14279L7.1407 2.40251C7.29023 2.1591 7.55443 2.01195 7.8399 2.00303C8.0355 1.99671 8.23076 2.00034 8.42603 2.01335" stroke="black" stroke-width="0.666667" stroke-linecap="round" stroke-linejoin="round"/>
</svg>
