<svg width="59" height="59" viewBox="0 0 59 59" fill="none" xmlns="http://www.w3.org/2000/svg">
<path d="M19 10C16.2422 10 14 12.2422 14 15V45C14 47.7578 16.2422 50 19 50H39C41.7578 50 44 47.7578 44 45V22.5H34C32.6172 22.5 31.5 21.3828 31.5 20V10H19ZM34 10V20H44L34 10ZM25.9531 32.5781L23.5312 35L25.9531 37.4219C26.6875 38.1562 26.6875 39.3437 25.9531 40.0703C25.2188 40.7969 24.0312 40.8047 23.3047 40.0703L19.5469 36.3281C18.8125 35.5938 18.8125 34.4063 19.5469 33.6797L23.2969 29.9297C24.0312 29.1953 25.2187 29.1953 25.9453 29.9297C26.6719 30.6641 26.6797 31.8516 25.9453 32.5781H25.9531ZM34.7031 29.9219L38.4531 33.6719C39.1875 34.4062 39.1875 35.5937 38.4531 36.3203L34.7031 40.0703C33.9688 40.8047 32.7813 40.8047 32.0547 40.0703C31.3281 39.3359 31.3203 38.1484 32.0547 37.4219L34.4766 35L32.0547 32.5781C31.3203 31.8438 31.3203 30.6563 32.0547 29.9297C32.7891 29.2031 33.9766 29.1953 34.7031 29.9297V29.9219Z" fill="#13947D"/>
</svg>
