<svg width="9" height="10" viewBox="0 0 9 10" fill="none" xmlns="http://www.w3.org/2000/svg">
<path fill-rule="evenodd" clip-rule="evenodd" d="M3.22452 8.90245L7.49568 3.37903C7.7278 3.08118 7.81034 2.73681 7.73296 2.38618C7.6659 2.06742 7.46988 1.76433 7.17585 1.53441L6.45884 0.964823C5.83467 0.468394 5.06091 0.52065 4.61729 1.09024L4.13755 1.7126C4.07565 1.79046 4.09113 1.90542 4.1685 1.96813C4.1685 1.96813 5.38073 2.94009 5.40652 2.96099C5.48906 3.03937 5.55096 3.14388 5.56643 3.2693C5.59222 3.5149 5.422 3.74482 5.16923 3.77618C5.05059 3.79185 4.93711 3.75527 4.85457 3.68734L3.58045 2.67358C3.51854 2.62707 3.42569 2.637 3.37411 2.69971L0.346126 6.61888C0.150106 6.86448 0.0830471 7.18324 0.150106 7.49155L0.536987 9.16896C0.55762 9.25779 0.634996 9.3205 0.727848 9.3205L2.43012 9.29959C2.73963 9.29437 3.0285 9.15328 3.22452 8.90245ZM5.60802 8.37988H8.38376C8.65458 8.37988 8.87484 8.60301 8.87484 8.87736C8.87484 9.15222 8.65458 9.37483 8.38376 9.37483H5.60802C5.33721 9.37483 5.11694 9.15222 5.11694 8.87736C5.11694 8.60301 5.33721 8.37988 5.60802 8.37988Z" fill="#FFD66B"/>
</svg>
