<svg width="10" height="10" viewBox="0 0 10 10" fill="none" xmlns="http://www.w3.org/2000/svg">
<path d="M8.80055 8.47663C9.07911 8.47663 9.30566 8.70613 9.30566 8.98831C9.30566 9.27103 9.07911 9.5 8.80055 9.5H5.94551C5.66695 9.5 5.4404 9.27103 5.4404 8.98831C5.4404 8.70613 5.66695 8.47663 5.94551 8.47663H8.80055ZM6.82059 0.849532L7.5581 1.43539C7.86053 1.67189 8.06215 1.98363 8.13112 2.31149C8.21071 2.67215 8.12582 3.02635 7.88706 3.33272L3.49386 9.01395C3.29224 9.27194 2.99512 9.41707 2.67677 9.42244L0.925862 9.44394C0.830357 9.44394 0.750771 9.37944 0.729547 9.28807L0.331613 7.56274C0.262638 7.24562 0.331613 6.91775 0.533233 6.66514L3.64773 2.63399C3.70079 2.56949 3.79629 2.55928 3.85996 2.60711L5.17049 3.64984C5.25538 3.71971 5.37211 3.75733 5.49414 3.74121C5.75413 3.70896 5.92922 3.47247 5.90269 3.21985C5.88677 3.09085 5.8231 2.98335 5.73821 2.90273C5.71168 2.88123 4.46482 1.88151 4.46482 1.88151C4.38524 1.81701 4.36932 1.69876 4.43299 1.61867L4.92643 0.978529C5.38272 0.392668 6.17859 0.33892 6.82059 0.849532Z" fill="#3E3E3E"/>
</svg>
