<svg xmlns="http://www.w3.org/2000/svg" width="21" height="20" viewBox="0 0 21 20" fill="none">
  <path fill-rule="evenodd" clip-rule="evenodd" d="M15.2 0.0249023C18.585 0.0249023 20.86 2.3959 20.86 5.9239V14.0759C20.86 17.6039 18.585 19.9749 15.2 19.9749H6.54996C3.16996 19.9749 0.899963 17.6039 0.899963 14.0759V5.9239C0.899963 2.3959 3.16996 0.0249023 6.54996 0.0249023H15.2ZM15.2 1.5249H6.54996C4.02896 1.5249 2.39996 3.2519 2.39996 5.9239V14.0759C2.39996 16.7489 4.02896 18.4749 6.54996 18.4749H15.2C17.727 18.4749 19.36 16.7489 19.36 14.0759V5.9239C19.36 3.2519 17.727 1.5249 15.2 1.5249ZM15.839 10.1243C15.8453 10.1294 15.8515 10.1346 15.8645 10.1467L15.8839 10.1652C15.8878 10.169 15.8921 10.1732 15.8968 10.1778L15.9526 10.2332C16.133 10.4138 16.6314 10.9229 18.117 12.4483C18.406 12.7443 18.401 13.2193 18.104 13.5083C17.808 13.7993 17.332 13.7903 17.043 13.4943C17.043 13.4943 14.994 11.3913 14.848 11.2493C14.693 11.1223 14.444 11.0483 14.199 11.0723C13.95 11.0973 13.726 11.2163 13.567 11.4093C11.243 14.2283 11.215 14.2553 11.177 14.2923C10.319 15.1343 8.93396 15.1203 8.09096 14.2603C8.09096 14.2603 7.16096 13.3163 7.14496 13.2973C6.91396 13.0833 6.50196 13.0973 6.25496 13.3583L4.72496 14.9713C4.57696 15.1273 4.37896 15.2053 4.18096 15.2053C3.99496 15.2053 3.80996 15.1373 3.66496 14.9993C3.36396 14.7153 3.35196 14.2393 3.63696 13.9403L5.16496 12.3273C5.97396 11.4683 7.33896 11.4263 8.20196 12.2363L9.15996 13.2083C9.42696 13.4783 9.86096 13.4833 10.129 13.2193C10.23 13.1003 12.408 10.4553 12.408 10.4553C12.822 9.9533 13.406 9.6433 14.055 9.5793C14.705 9.5223 15.336 9.7113 15.839 10.1243ZM7.45816 4.6538C8.84016 4.6548 9.96316 5.7788 9.96316 7.1578C9.96316 8.5388 8.83916 9.6628 7.45816 9.6628C6.07716 9.6628 4.95416 8.5388 4.95416 7.1578C4.95416 5.7768 6.07716 4.6538 7.45816 4.6538ZM7.45716 6.1538C6.90416 6.1538 6.45416 6.6038 6.45416 7.1578C6.45416 7.7118 6.90416 8.1628 7.45816 8.1628C8.01216 8.1628 8.46316 7.7118 8.46316 7.1578C8.46316 6.6048 8.01216 6.1548 7.45716 6.1538Z" fill="black"/>
</svg>