<svg xmlns="http://www.w3.org/2000/svg" width="24" height="24" viewBox="0 0 24 24" fill="none">
  <path d="M6.21818 7.5625L4.85958 8.92111L3.50098 7.5625" stroke="#7558DD" stroke-width="1.5" stroke-linecap="round" stroke-linejoin="round"/>
  <path d="M4.85742 8.84567V6.79495C4.85742 4.91873 6.37772 3.39844 8.25393 3.39844" stroke="#7558DD" stroke-width="1.5" stroke-linecap="round" stroke-linejoin="round"/>
  <path d="M18.7812 16.4719L20.1399 15.1133L21.4986 16.4719" stroke="#7558DD" stroke-width="1.5" stroke-linecap="round" stroke-linejoin="round"/>
  <path d="M20.1407 15.1914V17.2421C20.1407 19.1183 18.6204 20.6386 16.7441 20.6386" stroke="#7558DD" stroke-width="1.5" stroke-linecap="round" stroke-linejoin="round"/>
  <path fill-rule="evenodd" clip-rule="evenodd" d="M10.2384 13H5.76252C4.67963 13 4 13.9248 4 15.2343V18.7667C4 20.0752 4.67616 21 5.76252 21H10.2384C11.3248 21 12 20.0752 12 18.7667V15.2343C12 13.9248 11.3248 13 10.2384 13Z" stroke="#7558DD" stroke-width="1.5" stroke-linecap="round" stroke-linejoin="round"/>
  <path d="M14.0586 5.57707V4.59597C14.0586 4.32537 14.2786 4.10547 14.5491 4.10547H19.4525C19.7231 4.10547 19.9431 4.32537 19.9431 4.59597V5.57707" stroke="#7558DD" stroke-width="1.5" stroke-linecap="round" stroke-linejoin="round"/>
  <path d="M18.4715 9.98987H15.5293M16.9992 4.10547V9.98997" stroke="#7558DD" stroke-width="1.5" stroke-linecap="round" stroke-linejoin="round"/>
</svg>