<svg xmlns="http://www.w3.org/2000/svg" width="24" height="24" viewBox="0 0 24 24" fill="none">
  <path d="M21.0005 8.47004V6.89286C21.0005 4.74259 19.2579 3 17.1077 3H15.8506" stroke="#7558DD" stroke-linecap="round" stroke-linejoin="round"/>
  <path d="M3 8.47004V6.89286C3 4.74259 4.74259 3 6.89286 3H8.18205" stroke="#7558DD" stroke-linecap="round" stroke-linejoin="round"/>
  <path d="M3 15.5312V17.1084C3 19.2577 4.74259 21.0003 6.89286 21.0003H8.14994" stroke="#7558DD" stroke-linecap="round" stroke-linejoin="round"/>
  <path d="M21.0004 15.5312V17.1084C21.0004 19.2577 19.2578 21.0003 17.1076 21.0003H15.8184" stroke="#7558DD" stroke-linecap="round" stroke-linejoin="round"/>
  <path fill-rule="evenodd" clip-rule="evenodd" d="M14.4363 6.80469H9.56181C7.866 6.80469 6.80176 8.00716 6.80176 9.70803V14.2965C6.80176 15.998 7.8615 17.1999 9.56181 17.1999H14.4329C16.1372 17.1999 17.193 15.998 17.193 14.2965V9.70803C17.1986 8.00716 16.1394 6.80469 14.4363 6.80469Z" stroke="#7558DD" stroke-linecap="round" stroke-linejoin="round"/>
  <path d="M17.1996 13.6788C17.1996 13.6788 15.7902 12.0442 14.5924 12.0627C13.1682 12.0848 13.1715 14.4474 11.8324 14.4474C10.7119 14.4474 10.3546 13.8869 9.30841 13.8869C8.13985 13.8869 7.12598 15.7437 7.12598 15.7437" stroke="#7558DD" stroke-linecap="round" stroke-linejoin="round"/>
  <path d="M10.2362 10.2005L10.247 10.2113M10.4949 10.2059C10.4949 10.3456 10.3817 10.4588 10.2421 10.4588C10.1025 10.4588 9.98926 10.3456 9.98926 10.2059C9.98926 10.0663 10.1025 9.95312 10.2421 9.95312C10.3817 9.95312 10.4949 10.0663 10.4949 10.2059Z" stroke="#7558DD" stroke-linecap="round" stroke-linejoin="round"/>
</svg>