<svg xmlns="http://www.w3.org/2000/svg" width="24" height="24" viewBox="0 0 24 24" fill="none">
  <path d="M16.2149 21.7522H7.78488C4.47488 21.7522 2.25488 19.4322 2.25488 15.9722V8.02218C2.25488 4.57218 4.47488 2.24219 7.78488 2.24219H12.3849C12.7949 2.24219 13.1349 2.58219 13.1349 2.99219C13.1349 3.40219 12.7949 3.74219 12.3849 3.74219H7.78488C5.33488 3.74219 3.75488 5.42218 3.75488 8.02218V15.9722C3.75488 18.5722 5.33488 20.2522 7.78488 20.2522H16.2149C18.6649 20.2522 20.2449 18.5722 20.2449 15.9722V10.9422C20.2449 10.5322 20.5849 10.1922 20.9949 10.1922C21.4049 10.1922 21.7449 10.5322 21.7449 10.9422V15.9722C21.7449 19.4222 19.5249 21.7522 16.2149 21.7522Z" fill="#7558DD"/>
  <path d="M13.8154 9.52344C13.4054 9.52344 13.0654 9.18344 13.0654 8.77344C13.0654 8.36344 13.3954 8.02344 13.8154 8.02344C14.2254 8.02344 14.5654 8.36344 14.5654 8.77344C14.5654 9.18344 14.2254 9.52344 13.8154 9.52344Z" fill="#7558DD"/>
  <path d="M16.4053 17.9653H7.58529C7.05529 17.9653 6.56529 17.6753 6.30529 17.2153C6.04529 16.7553 6.06529 16.1853 6.33529 15.7353L9.02529 11.3653C9.28529 10.9453 9.7353 10.6853 10.2253 10.6653C10.7253 10.6453 11.1853 10.8753 11.4653 11.2753L13.1453 13.6353L13.6953 12.9253C13.9953 12.5653 14.4653 12.3853 14.9253 12.4153C15.3953 12.4553 15.8153 12.7153 16.0553 13.1053L17.6553 15.7253C17.9353 16.1753 17.9453 16.7453 17.6853 17.2053C17.4253 17.6653 16.9353 17.9553 16.4053 17.9553V17.9653ZM10.2453 12.1553L7.63531 16.4853L16.4053 16.4653L14.7753 13.9053L14.2353 14.6153C13.9453 14.9553 13.5053 15.1453 13.0553 15.1253C12.6053 15.1053 12.1853 14.8853 11.9253 14.5153L10.2453 12.1553Z" fill="#7558DD"/>
  <path d="M18.1154 9.52561C17.8054 9.52561 17.5254 9.32561 17.4154 9.03561L17.3054 8.73563C16.9554 7.79563 16.2154 7.05563 15.2854 6.70564L14.9754 6.59561C14.6854 6.48561 14.4854 6.20563 14.4854 5.89563C14.4854 5.58563 14.6854 5.30562 14.9754 5.19563L15.2754 5.0856C16.2154 4.73561 16.9554 3.9956 17.2954 3.0556L17.4054 2.75561C17.5154 2.46562 17.7954 2.26562 18.1054 2.26562C18.4154 2.26562 18.6954 2.46562 18.8054 2.75561L18.9154 3.0556C19.2654 3.9956 20.0054 4.73561 20.9354 5.0856L21.2354 5.19563C21.5254 5.30562 21.7254 5.58563 21.7254 5.89563C21.7254 6.20563 21.5354 6.48561 21.2354 6.59561L20.9354 6.70564C19.9954 7.05563 19.2554 7.79563 18.9054 8.73563L18.7954 9.03561C18.6854 9.32561 18.4054 9.52561 18.0954 9.52561H18.1154ZM16.9154 5.89563C17.3754 6.22563 17.7854 6.62561 18.1054 7.09561C18.4354 6.63561 18.8354 6.22563 19.2954 5.89563C18.8354 5.56563 18.4254 5.16563 18.1054 4.69563C17.7754 5.15563 17.3754 5.56563 16.9154 5.89563Z" fill="#7558DD"/>
</svg>