<svg width="16" height="17" viewBox="0 0 16 17" fill="none" xmlns="http://www.w3.org/2000/svg">
<circle cx="8" cy="8.5" r="7.5" fill="white" stroke="#45C98D"/>
<path fill-rule="evenodd" clip-rule="evenodd" d="M8.94867 8.76353C8.76505 8.57381 8.76505 8.42562 8.94372 8.24086C9.72467 7.49191 10.2409 6.99667 10.2957 6.42334C10.3292 5.99819 10.2131 5.60924 9.96886 5.32886C9.7342 5.05953 9.39743 4.90486 8.99515 4.88124C8.99134 4.88086 8.98791 4.88086 8.9841 4.88086L7.12507 4.88124C6.72279 4.90486 6.38564 5.05953 6.15098 5.32924C5.90717 5.60962 5.79098 5.99819 5.82526 6.42676C5.87974 6.99667 6.39555 7.49153 7.17155 8.23629C7.35515 8.42562 7.35515 8.57343 7.17688 8.75857C6.39555 9.50791 5.87974 10.0031 5.82488 10.5761C5.79098 11.0016 5.90679 11.3902 6.15098 11.6702C6.38564 11.9399 6.72241 12.095 7.1365 12.119L8.99515 12.1186C9.39743 12.095 9.7342 11.9399 9.96886 11.6706C10.2131 11.3902 10.3292 11.0016 10.2953 10.5731C10.2409 10.0031 9.72467 9.50791 8.94867 8.76353Z" fill="#45C98D"/>
</svg>
