<svg xmlns="http://www.w3.org/2000/svg" width="24" height="24" viewBox="0 0 24 24" fill="none">
  <path d="M16.2149 21.7522H7.78488C4.47488 21.7522 2.25488 19.4322 2.25488 15.9722V8.02218C2.25488 4.57218 4.47488 2.24219 7.78488 2.24219H12.3849C12.7949 2.24219 13.1349 2.58219 13.1349 2.99219C13.1349 3.40219 12.7949 3.74219 12.3849 3.74219H7.78488C5.33488 3.74219 3.75488 5.42218 3.75488 8.02218V15.9722C3.75488 18.5722 5.33488 20.2522 7.78488 20.2522H16.2149C18.6649 20.2522 20.2449 18.5722 20.2449 15.9722V10.9422C20.2449 10.5322 20.5849 10.1922 20.9949 10.1922C21.4049 10.1922 21.7449 10.5322 21.7449 10.9422V15.9722C21.7449 19.4222 19.5249 21.7522 16.2149 21.7522Z" fill="#7558DD"/>
  <path d="M13.8149 9.52344C13.4049 9.52344 13.0649 9.18344 13.0649 8.77344C13.0649 8.36344 13.3949 8.02344 13.8149 8.02344C14.2249 8.02344 14.5649 8.36344 14.5649 8.77344C14.5649 9.18344 14.2249 9.52344 13.8149 9.52344Z" fill="#7558DD"/>
  <path d="M16.4048 17.9653H7.5848C7.0548 17.9653 6.5648 17.6753 6.3048 17.2153C6.0448 16.7553 6.0648 16.1853 6.3348 15.7353L9.0248 11.3653C9.2848 10.9453 9.73481 10.6853 10.2248 10.6653C10.7248 10.6453 11.1848 10.8753 11.4648 11.2753L13.1448 13.6353L13.6948 12.9253C13.9948 12.5653 14.4648 12.3853 14.9248 12.4153C15.3948 12.4553 15.8148 12.7153 16.0548 13.1053L17.6548 15.7253C17.9348 16.1753 17.9448 16.7453 17.6848 17.2053C17.4248 17.6653 16.9348 17.9553 16.4048 17.9553V17.9653ZM10.2448 12.1553L7.63482 16.4853L16.4048 16.4653L14.7748 13.9053L14.2348 14.6153C13.9448 14.9553 13.5048 15.1453 13.0548 15.1253C12.6048 15.1053 12.1848 14.8853 11.9248 14.5153L10.2448 12.1553Z" fill="#7558DD"/>
  <path d="M18.1149 9.52561C17.8049 9.52561 17.5249 9.32561 17.4149 9.03561L17.3049 8.73563C16.9549 7.79563 16.2149 7.05563 15.2849 6.70564L14.9749 6.59561C14.6849 6.48561 14.4849 6.20563 14.4849 5.89563C14.4849 5.58563 14.6849 5.30562 14.9749 5.19563L15.2749 5.0856C16.2149 4.73561 16.9549 3.9956 17.2949 3.0556L17.4049 2.75561C17.5149 2.46562 17.7949 2.26562 18.1049 2.26562C18.4149 2.26562 18.6949 2.46562 18.8049 2.75561L18.9149 3.0556C19.2649 3.9956 20.0049 4.73561 20.9349 5.0856L21.2349 5.19563C21.5249 5.30562 21.7249 5.58563 21.7249 5.89563C21.7249 6.20563 21.5349 6.48561 21.2349 6.59561L20.9349 6.70564C19.9949 7.05563 19.2549 7.79563 18.9049 8.73563L18.7949 9.03561C18.6849 9.32561 18.4049 9.52561 18.0949 9.52561H18.1149ZM16.9149 5.89563C17.3749 6.22563 17.7849 6.62561 18.1049 7.09561C18.4349 6.63561 18.8349 6.22563 19.2949 5.89563C18.8349 5.56563 18.4249 5.16563 18.1049 4.69563C17.7749 5.15563 17.3749 5.56563 16.9149 5.89563Z" fill="#7558DD"/>
</svg>