<svg width="16" height="17" viewBox="0 0 16 17" fill="none" xmlns="http://www.w3.org/2000/svg">
<path d="M2.24023 11.474V6.07585C2.24023 4.18907 3.5722 3.01465 5.45712 3.01465H10.5433C12.4283 3.01465 13.7602 4.18907 13.7602 6.07585V11.474C13.7602 13.3608 12.4283 14.5346 10.5433 14.5346H5.45712C3.5722 14.5346 2.24023 13.3546 2.24023 11.474Z" stroke="#404040" stroke-width="0.96" stroke-linecap="round" stroke-linejoin="round"/>
<path d="M4.42627 9.95203L5.11311 8.78198L6.27632 9.46512" stroke="#404040" stroke-width="0.96" stroke-linecap="round" stroke-linejoin="round"/>
<path d="M11.5727 7.59961L10.8859 8.76966L9.72266 8.08652" stroke="#404040" stroke-width="0.96" stroke-linecap="round" stroke-linejoin="round"/>
<path d="M10.8456 8.71421C10.8132 7.16992 9.55102 5.927 7.99927 5.927C7.0266 5.927 6.16851 6.41458 5.65479 7.15809" stroke="#404040" stroke-width="0.96" stroke-linecap="round" stroke-linejoin="round"/>
<path d="M5.15234 8.83716C5.18473 10.3814 6.44694 11.6244 7.99869 11.6244C8.97136 11.6244 9.82948 11.1367 10.3432 10.3933" stroke="#404040" stroke-width="0.96" stroke-linecap="round" stroke-linejoin="round"/>
</svg>
