<svg width="68" height="60" viewBox="0 0 68 60" fill="none" xmlns="http://www.w3.org/2000/svg">
<path d="M53.0371 32.0423V23.2648C53.0371 22.0055 52.5304 20.7952 51.6259 19.8881L42.253 10.4972C41.2977 9.54109 39.9764 9.00007 38.5968 9.00007H24.627C19.5841 8.9814 15.4503 12.8455 15.3315 17.696V32.0423" stroke="#121212" stroke-width="2.5" stroke-linecap="round" stroke-linejoin="round"/>
<path d="M38.374 9V16.7773C38.3713 20.575 41.5365 23.6554 45.4488 23.6633H53.0373" stroke="#121212" stroke-width="2.5" stroke-linecap="round" stroke-linejoin="round"/>
<path d="M17.4264 36.2318C17.4264 36.2318 17.4264 43.6449 17.4264 48.3949C17.4264 49.4085 16.0127 51.9425 12.7132 51.9425C9.41367 51.9425 8.00025 49.4085 8.00002 48.3949C7.99991 47.8881 8.00002 46.8745 8.00002 46.8745" stroke="black" stroke-width="2.5" stroke-linecap="round"/>
<path d="M29.4715 36.2322C29.4715 36.2322 26.3294 36.2315 24.7583 36.232C23.023 36.2325 21.6162 37.8029 21.6162 39.8976C21.6162 41.6569 22.9991 43.0389 24.7583 43.0398C26.3294 43.0406 25.282 43.0398 26.8531 43.0398C28.9478 43.0398 31.0426 45.1345 31.0426 47.753C31.0426 50.3714 28.9478 51.9421 26.8531 51.9421C24.6034 51.9421 25.8057 51.9418 24.7583 51.9421C23.711 51.9425 21.6162 51.9421 21.6162 51.9421" stroke="black" stroke-width="2.5" stroke-linecap="round"/>
<path d="M35.2319 43.5634C35.2319 37.2792 37.8504 36.2318 39.9451 36.2318C42.0399 36.2318 44.1346 37.8029 44.1346 43.5634C44.1346 49.324 43.0873 51.9425 39.9451 51.9425C37.3267 51.9425 35.2319 49.8477 35.2319 43.5634Z" stroke="black" stroke-width="2.5" stroke-linecap="round"/>
<path d="M48.8478 51.9884C48.8478 51.9884 48.8475 42.6175 48.8479 36.2776C48.8479 35.2301 58.2742 52.512 58.2742 51.9884C58.2742 47.2752 58.2743 36.2776 58.2743 36.2776" stroke="black" stroke-width="2.5" stroke-linecap="round"/>
</svg>
