<svg width="16" height="16" viewBox="0 0 16 16" fill="none" xmlns="http://www.w3.org/2000/svg">
<path d="M8 10.0615V11.5062" stroke="#09090B" stroke-linecap="round" stroke-linejoin="round"/>
<path d="M10.9626 6.94441V5.54707C10.9425 3.90907 9.59766 2.59774 7.9602 2.61841C6.35592 2.63841 5.05852 3.9304 5.03125 5.53374V6.94441" stroke="#09090B" stroke-linecap="round" stroke-linejoin="round"/>
<path d="M6.2025 14.6476H9.79707C10.8606 14.6476 11.3924 14.6476 11.8029 14.4503C12.2127 14.2536 12.5432 13.923 12.74 13.5136C12.9371 13.103 12.9371 12.571 12.9371 11.5076V10.0863C12.9371 9.02296 12.9371 8.49096 12.74 8.08096C12.5432 7.67096 12.2127 7.34029 11.8029 7.14362C11.3924 6.94629 10.8606 6.94629 9.79707 6.94629H6.2025C5.13897 6.94629 4.60717 6.94629 4.19677 7.14362C3.7869 7.34029 3.45637 7.67096 3.25957 8.08096C3.0625 8.49096 3.0625 9.02296 3.0625 10.0863V11.5076C3.0625 12.571 3.0625 13.103 3.25957 13.5136C3.45637 13.923 3.7869 14.2536 4.19677 14.4503C4.60717 14.6476 5.13897 14.6476 6.2025 14.6476Z" stroke="#09090B" stroke-linecap="round" stroke-linejoin="round"/>
</svg>
