<svg width="59" height="59" viewBox="0 0 59 59" fill="none" xmlns="http://www.w3.org/2000/svg">
<path fill-rule="evenodd" clip-rule="evenodd" d="M13 40C13 40 13.5384 39.0001 14.1928 37.5181C15.207 35.2212 16.5 31.7662 16.5 29.0794C16.5 26.3927 15.207 22.9376 14.1928 20.6408C13.5384 19.1587 13 18.1589 13 18.1589C13 18.1589 22.3333 17.166 29.3333 20.1444C36.3333 23.1228 41 29.0794 41 29.0794C41 29.0794 34.3002 38.0314 29.0502 39.0157C23.8002 40 13 40 13 40ZM17.2979 37.5181C17.2979 37.5181 24.3835 37.5054 29.0502 36.5338C33.7169 35.5621 37.8002 29.0794 37.8002 29.0794C37.8002 29.0794 34 25.1081 29.3333 22.6263C24.6667 20.1444 17.2979 20.6408 17.2979 20.6408C17.2979 20.6408 17.439 20.9822 17.5098 21.1584C18.4013 23.3771 19.4167 26.4348 19.4167 29.0794C19.4167 31.7241 18.4013 34.7818 17.5098 37.0004C17.439 37.1766 17.3682 37.3493 17.2979 37.5181Z" fill="black"/>
<path d="M7 22.5C7 21.6716 7.67157 21 8.5 21H16V24H8.5C7.67157 24 7 23.3284 7 22.5V22.5Z" fill="black"/>
<path d="M7 35.5C7 34.6716 7.67157 34 8.5 34H16V37H8.5C7.67157 37 7 36.3284 7 35.5V35.5Z" fill="black"/>
<path d="M50 29.5C50 30.3284 49.3284 31 48.5 31H39V28H48.5C49.3284 28 50 28.6716 50 29.5V29.5Z" fill="black"/>
</svg>
