<svg width="59" height="59" viewBox="0 0 59 59" fill="none" xmlns="http://www.w3.org/2000/svg">
<path fill-rule="evenodd" clip-rule="evenodd" d="M18 40C18 40 18.4615 39.0001 19.0224 37.5181C19.8917 35.2212 21 31.7662 21 29.0794C21 26.3927 19.8917 22.9376 19.0224 20.6408C18.4615 19.1587 18 18.1589 18 18.1589C18 18.1589 26 17.166 32 20.1444C38 23.1228 42 29.0794 42 29.0794C42 29.0794 36.2573 38.0314 31.7573 39.0157C27.2573 40 18 40 18 40ZM21.6839 37.5181C21.6839 37.5181 27.7573 37.5054 31.7573 36.5338C35.7573 35.5621 39.2573 29.0794 39.2573 29.0794C39.2573 29.0794 36 25.1081 32 22.6263C28 20.1444 21.6839 20.6408 21.6839 20.6408C21.6839 20.6408 21.8048 20.9822 21.8655 21.1584C22.6297 23.3771 23.5 26.4348 23.5 29.0794C23.5 31.7241 22.6297 34.7818 21.8655 37.0004C21.8048 37.1766 21.7442 37.3493 21.6839 37.5181Z" fill="black"/>
<path fill-rule="evenodd" clip-rule="evenodd" d="M15.0108 18.8496C15.6461 18.5795 16.3801 18.8756 16.6502 19.5109L15.4998 20C16.6502 19.5109 16.6501 19.5107 16.6502 19.5109L16.6512 19.5132L16.6529 19.5173L16.6585 19.5305L16.6778 19.5771C16.6942 19.6169 16.7175 19.674 16.7467 19.7471C16.8051 19.8934 16.8872 20.1042 16.9851 20.3694C17.1805 20.8992 17.4402 21.6494 17.6998 22.5388C18.2142 24.3011 18.7498 26.6812 18.7498 29C18.7498 31.3126 18.2164 33.8128 17.706 35.689C17.4481 36.6369 17.1904 37.4461 16.9966 38.0197C16.8996 38.3068 16.8184 38.5357 16.7608 38.6944C16.732 38.7737 16.7091 38.8355 16.6931 38.8784L16.6744 38.9282L16.6691 38.942L16.667 38.9475C16.6669 38.9477 16.6666 38.9484 15.4998 38.5L16.667 38.9475C16.4193 39.5919 15.6958 39.9144 15.0514 39.6668C14.4071 39.4191 14.0855 38.6961 14.3329 38.0518L14.3335 38.0503L14.3368 38.0416L14.3515 38.0026C14.3648 37.9671 14.3849 37.9129 14.4108 37.8415C14.4626 37.6988 14.5376 37.4875 14.6281 37.2196C14.8093 36.6832 15.0516 35.9228 15.2937 35.0328C15.7833 33.2328 16.2498 30.9831 16.2498 29C16.2498 27.023 15.7855 24.9031 15.2999 23.2393C15.0595 22.4157 14.8191 21.7213 14.6396 21.2348C14.55 20.9919 14.4758 20.8016 14.4248 20.6738C14.3993 20.61 14.3797 20.5618 14.3668 20.5306L14.3527 20.4966L14.3497 20.4895C14.3496 20.4894 14.3497 20.4896 14.3497 20.4895M15.0108 18.8496C14.3756 19.1197 14.0798 19.8542 14.3497 20.4895Z" fill="black"/>
<path d="M7 22.5C7 21.6716 7.67157 21 8.5 21H16V24H8.5C7.67157 24 7 23.3284 7 22.5V22.5Z" fill="black"/>
<path d="M7 35.5C7 34.6716 7.67157 34 8.5 34H16V37H8.5C7.67157 37 7 36.3284 7 35.5V35.5Z" fill="black"/>
<path d="M50 29.5C50 30.3284 49.3895 31 48.6364 31H40V28H48.6364C49.3895 28 50 28.6716 50 29.5V29.5Z" fill="black"/>
</svg>
