<svg width="59" height="59" viewBox="0 0 59 59" fill="none" xmlns="http://www.w3.org/2000/svg">
<path fill-rule="evenodd" clip-rule="evenodd" d="M30 20.5H18.5V37.5H30C34.1421 37.5 37.5 34.1421 37.5 30V28C37.5 23.8579 34.1421 20.5 30 20.5ZM16 18V40H30C35.5228 40 40 35.5228 40 30V28C40 22.4772 35.5228 18 30 18H16Z" fill="black"/>
<path d="M7 22.5C7 21.6716 7.67157 21 8.5 21H16V24H8.5C7.67157 24 7 23.3284 7 22.5V22.5Z" fill="black"/>
<path d="M7 35.5C7 34.6716 7.67157 34 8.5 34H16V37H8.5C7.67157 37 7 36.3284 7 35.5V35.5Z" fill="black"/>
<path d="M50 29.5C50 30.3284 49.3284 31 48.5 31H39V28H48.5C49.3284 28 50 28.6716 50 29.5V29.5Z" fill="black"/>
</svg>
