<svg width="59" height="59" viewBox="0 0 59 59" fill="none" xmlns="http://www.w3.org/2000/svg">
<path fill-rule="evenodd" clip-rule="evenodd" d="M43.9263 17.3501C43.6421 16.3575 42.6184 15.7865 41.6397 16.0747L14.3306 24.1181C13.5383 24.3514 12.995 25.09 13 25.9268C13.0051 26.7636 13.5572 27.4954 14.3523 27.7189L41.6614 35.3966C42.6435 35.6727 43.6603 35.0891 43.9325 34.093C44.2047 33.0969 43.6292 32.0656 42.6472 31.7895L21.6043 25.8735L42.6689 19.6693C43.6475 19.3811 44.2105 18.3428 43.9263 17.3501Z" fill="black"/>
<path d="M44 39.4303C44 38.4349 43.1931 37.6279 42.1977 37.6279L14.8023 37.6279C13.8069 37.6279 13 38.4349 13 39.4303V39.4303C13 40.4257 13.8069 41.2326 14.8023 41.2326L42.1977 41.2326C43.1931 41.2326 44 40.4257 44 39.4303V39.4303Z" fill="black"/>
</svg>
