<svg width="59" height="59" viewBox="0 0 59 59" fill="none" xmlns="http://www.w3.org/2000/svg">
<path fill-rule="evenodd" clip-rule="evenodd" d="M13.0737 17.3501C13.3579 16.3575 14.3816 15.7865 15.3603 16.0747L42.6694 24.1181C43.4617 24.3514 44.005 25.09 44 25.9268C43.9949 26.7636 43.4428 27.4954 42.6477 27.7189L15.3386 35.3966C14.3565 35.6727 13.3397 35.0891 13.0675 34.093C12.7953 33.0969 13.3708 32.0656 14.3528 31.7895L35.3957 25.8735L14.3311 19.6693C13.3525 19.3811 12.7895 18.3428 13.0737 17.3501Z" fill="black"/>
<path d="M13 39.4303C13 38.4349 13.8069 37.6279 14.8023 37.6279H42.1977C43.1931 37.6279 44 38.4349 44 39.4303V39.4303C44 40.4257 43.1931 41.2326 42.1977 41.2326H14.8023C13.8069 41.2326 13 40.4257 13 39.4303V39.4303Z" fill="black"/>
</svg>
