<svg width="16" height="16" viewBox="0 0 16 16" fill="none" xmlns="http://www.w3.org/2000/svg">
<path d="M7.53646 13.9931C4.44465 13.7433 2.021 11.1575 2.021 8.00267C2.021 4.69223 4.70674 2 8.02366 2C11.0909 2 13.6138 4.29909 13.9764 7.26573" stroke="#09090B" stroke-linecap="round" stroke-linejoin="round"/>
<path d="M10.1156 5.91637C9.80289 3.63025 8.98482 2 8.02282 2C7.06722 2 6.24268 3.63025 5.93064 5.91637C5.83657 6.56575 5.78662 7.26507 5.78662 8.00267C5.78662 8.73967 5.83657 9.44547 5.93064 10.0949C6.14926 11.6816 6.82395 13.212 7.53562 13.9924" stroke="#09090B" stroke-linecap="round" stroke-linejoin="round"/>
<path d="M2.021 8.00781H6.9772" stroke="#09090B" stroke-linecap="round" stroke-linejoin="round"/>
<path d="M12.3452 9.88184L12.4125 10.0641C12.6665 10.7513 13.2075 11.2931 13.8937 11.5474L14.0757 11.6148L13.8937 11.6822C13.2075 11.9366 12.6665 12.4784 12.4125 13.1656L12.3452 13.3478L12.2779 13.1656C12.0239 12.4784 11.4829 11.9366 10.7967 11.6822L10.6147 11.6148L10.7967 11.5474C11.4829 11.2931 12.0239 10.7513 12.2779 10.0641L12.3452 9.88184Z" stroke="#09090B" stroke-linecap="round" stroke-linejoin="round"/>
<path d="M8.80009 9.05371C8.91449 9.43018 9.20869 9.72478 9.58456 9.83938C9.20869 9.95391 8.91449 10.2486 8.80009 10.625C8.68569 10.2486 8.39149 9.95391 8.01562 9.83938C8.39149 9.72478 8.68569 9.43018 8.80009 9.05371Z" stroke="#09090B" stroke-linecap="round" stroke-linejoin="round"/>
</svg>
