<svg width="58" height="60" viewBox="0 0 58 60" fill="none" xmlns="http://www.w3.org/2000/svg">
<g clip-path="url(#clip0_57_1081)">
<path fill-rule="evenodd" clip-rule="evenodd" d="M10.9626 41.1693V18.4519C11.0583 14.8213 14.052 11.9297 17.7047 11.9453L17.7108 11.9453H30.0004C30.8275 11.9453 31.6157 12.2792 32.1843 12.8693L33.0489 13.7652L18.7047 48.0457L18.7039 48.0477H17.7108C17.6919 48.0477 17.6709 48.0474 17.6361 48.0468H17.6328C17.6063 48.0463 17.5705 48.0458 17.5321 48.0455H17.5307C13.8202 47.9561 10.8804 44.8943 10.9623 41.2007L10.9626 41.1693ZM18.7039 48.0477L17.5141 50.8911L17.4825 50.8908C12.1915 50.7747 7.99476 46.4169 8.10262 41.1543V18.4342C8.10262 18.4229 8.10275 18.4116 8.10303 18.4002C8.22737 13.2141 12.4989 9.0791 17.7138 9.09969H30.0004C31.6021 9.09969 33.137 9.74658 34.2481 10.8992L33.0489 13.7652L18.7047 48.0457L18.7039 48.0477ZM32.2509 48.0477H18.7039L17.5141 50.8911C17.5329 50.8911 17.5542 50.8915 17.5887 50.892L17.5923 50.8921C17.623 50.8927 17.666 50.8933 17.7108 50.8933H34.7379H34.7473H34.7496C34.7691 50.8933 34.7894 50.8929 34.8089 50.8921C35.2475 50.8743 35.6784 50.8278 36.0997 50.7544C34.5454 50.2751 33.2038 49.3146 32.2509 48.0477ZM41.2745 31.6194V23.5017C41.2745 22.7275 40.972 21.9784 40.43 21.4143L33.0489 13.7652L34.2481 10.8992L42.494 19.4446L42.4958 19.4465C43.5444 20.537 44.1345 21.9897 44.1345 23.5017V31.7573C43.6637 31.6667 43.1774 31.6194 42.68 31.6194H41.2745Z" fill="#121212"/>
<path d="M31.0513 10.6577V16.9168C31.0492 19.9716 33.5354 22.4495 36.6058 22.4558H42.5622" stroke="#121212" stroke-width="2.25" stroke-linecap="round" stroke-linejoin="round"/>
<path d="M18.54 39.6937H28.2376M18.54 32.2923H33.1697M18.54 24.8909H24.9387" stroke="#121212" stroke-width="2.25" stroke-linecap="round" stroke-linejoin="round"/>
<path fill-rule="evenodd" clip-rule="evenodd" d="M40.52 33.2422C36.016 33.2422 32.3647 36.8751 32.3647 41.3564C32.3647 45.8378 36.016 49.4706 40.52 49.4706C45.024 49.4706 48.6753 45.8378 48.6753 41.3564C48.6753 36.8751 45.024 33.2422 40.52 33.2422ZM41.4732 36.4878C41.4732 35.964 41.0463 35.5393 40.5198 35.5393C39.9933 35.5393 39.5665 35.964 39.5665 36.4878V40.4078H35.6267C35.1002 40.4078 34.6733 40.8324 34.6733 41.3563C34.6733 41.8801 35.1002 42.3048 35.6267 42.3048H39.5665V46.2248C39.5665 46.7487 39.9933 47.1733 40.5198 47.1733C41.0463 47.1733 41.4732 46.7487 41.4732 46.2248V42.3048H45.413C45.9395 42.3048 46.3663 41.8801 46.3663 41.3563C46.3663 40.8324 45.9395 40.4078 45.413 40.4078H41.4732V36.4878Z" fill="#121212"/>
</g>
<defs>
<clipPath id="clip0_57_1081">
<rect width="40.6757" height="43" fill="white" transform="translate(8 9)"/>
</clipPath>
</defs>
</svg>
