<svg xmlns="http://www.w3.org/2000/svg" width="24" height="24" viewBox="0 0 24 24" fill="none">
  <path fill-rule="evenodd" clip-rule="evenodd" d="M17.1885 5.14006V7.24742C17.1885 7.981 17.708 8.44217 18.4445 8.44217H20.4293C21.1648 8.44217 21.6853 7.98392 21.6853 7.24742V5.14006C21.6853 4.40356 21.1648 3.94531 20.4293 3.94531H18.4445C17.708 3.94531 17.1885 4.40356 17.1885 5.14006Z" stroke="#7558DD" stroke-width="1.5" stroke-linecap="round" stroke-linejoin="round"/>
  <path fill-rule="evenodd" clip-rule="evenodd" d="M3.68555 5.14006V7.24742C3.68555 7.981 4.20509 8.44217 4.94159 8.44217H6.92636C7.66189 8.44217 8.18241 7.98392 8.18241 7.24742V5.14006C8.18241 4.40356 7.66189 3.94531 6.92636 3.94531H4.94159C4.20509 3.94531 3.68555 4.40356 3.68555 5.14006Z" stroke="#7558DD" stroke-width="1.5" stroke-linecap="round" stroke-linejoin="round"/>
  <path fill-rule="evenodd" clip-rule="evenodd" d="M17.1885 18.6401V20.7475C17.1885 21.481 17.708 21.9422 18.4445 21.9422H20.4293C21.1648 21.9422 21.6853 21.484 21.6853 20.7475V18.6401C21.6853 17.9036 21.1648 17.4453 20.4293 17.4453H18.4445C17.708 17.4453 17.1885 17.9036 17.1885 18.6401Z" stroke="#7558DD" stroke-width="1.5" stroke-linecap="round" stroke-linejoin="round"/>
  <path fill-rule="evenodd" clip-rule="evenodd" d="M3.68555 18.6401V20.7475C3.68555 21.481 4.20509 21.9422 4.94159 21.9422H6.92636C7.66189 21.9422 8.18241 21.484 8.18241 20.7475V18.6401C8.18241 17.9036 7.66189 17.4453 6.92636 17.4453H4.94159C4.20509 17.4453 3.68555 17.9036 3.68555 18.6401Z" stroke="#7558DD" stroke-width="1.5" stroke-linecap="round" stroke-linejoin="round"/>
  <path d="M12.2586 15.5028L10.124 15.5026L10.123 13.3672" stroke="#7558DD" stroke-width="1.5" stroke-linecap="round" stroke-linejoin="round"/>
  <path d="M13.1133 10.3828H15.2486L15.2489 12.5174" stroke="#7558DD" stroke-width="1.5" stroke-linecap="round" stroke-linejoin="round"/>
  <path d="M10.123 15.5072L15.2474 10.3828" stroke="#7558DD" stroke-width="1.5" stroke-linecap="round" stroke-linejoin="round"/>
  <path d="M8.20344 6.17188H17.1962M8.20344 19.6921H17.1962M5.96875 8.43791V17.4442M19.4358 8.43791V17.4442" stroke="#7558DD" stroke-width="1.5" stroke-linecap="round" stroke-linejoin="round"/>
</svg>