<svg width="59" height="60" viewBox="0 0 59 60" fill="none" xmlns="http://www.w3.org/2000/svg">
<path d="M28.4714 20.4297L27.9864 19.2988L27.9864 19.2988L28.4714 20.4297ZM25.3418 24.9769C25.3418 25.6459 25.9182 26.1987 26.6292 26.2118C27.3402 26.2248 27.9165 25.6931 27.9165 25.0241L25.3418 24.9769ZM27.9864 19.2988C27.4851 19.4815 26.9553 19.5705 26.4282 19.563L26.4393 21.9857C27.2998 21.998 28.1548 21.8528 28.9565 21.5606L27.9864 19.2988ZM26.4282 19.563C25.9012 19.5555 25.3882 19.4517 24.9177 19.2609L23.9378 21.4832C24.7283 21.8038 25.5786 21.9735 26.4393 21.9857L26.4282 19.563ZM24.9177 19.2609C24.4473 19.0701 24.0273 18.7957 23.6799 18.4546L21.838 20.1136C22.433 20.6976 23.1472 21.1626 23.9378 21.4832L24.9177 19.2609ZM23.6799 18.4546C23.3324 18.1135 23.0623 17.7106 22.8847 17.2677L20.478 18.0843C20.7808 18.8396 21.243 19.5294 21.838 20.1136L23.6799 18.4546ZM22.8847 17.2677C22.7071 16.8248 22.6247 16.3483 22.6453 15.8647L20.0727 15.7208C20.0385 16.5257 20.1752 17.3292 20.478 18.0843L22.8847 17.2677ZM22.6453 15.8647C22.6659 15.3809 22.7891 14.8989 23.0112 14.4472L20.6708 13.3946C20.3113 14.1259 20.1069 14.916 20.0727 15.7208L22.6453 15.8647ZM23.0112 14.4472C23.2333 13.9954 23.5495 13.5841 23.9427 13.2381L22.1652 11.453C21.5385 12.0043 21.0303 12.6635 20.6708 13.3946L23.0112 14.4472ZM23.9427 13.2381C24.336 12.8922 24.7969 12.6201 25.2983 12.4374L24.3281 10.1756C23.5265 10.4677 22.7918 10.9018 22.1652 11.453L23.9427 13.2381ZM25.2983 12.4374C25.7996 12.2547 26.3294 12.1657 26.8565 12.1732L26.8454 9.75049C25.9848 9.73822 25.1298 9.88345 24.3281 10.1756L25.2983 12.4374ZM26.8565 12.1732C27.3834 12.1808 27.8964 12.2845 28.367 12.4753L29.3468 10.253C28.5563 9.93244 27.7061 9.76277 26.8454 9.75049L26.8565 12.1732ZM28.367 12.4753C28.8374 12.6661 29.2573 12.9406 29.6048 13.2817L31.4466 11.6227C30.8516 11.0386 30.1375 10.5737 29.3468 10.253L28.367 12.4753ZM29.6048 13.2817C29.9522 13.6227 30.2224 14.0257 30.4 14.4685L32.8067 13.6519C32.5038 12.8967 32.0417 12.2068 31.4466 11.6227L29.6048 13.2817ZM30.4 14.4685C30.5776 14.9115 30.6599 15.3879 30.6393 15.8715L33.212 16.0154C33.2462 15.2105 33.1094 14.407 32.8067 13.6519L30.4 14.4685ZM30.6393 15.8715C30.6188 16.3553 30.4956 16.8373 30.2735 17.289L32.6138 18.3416C32.9734 17.6104 33.1777 16.8202 33.212 16.0154L30.6393 15.8715ZM30.2735 17.289C30.0513 17.7408 29.7352 18.1522 29.3419 18.4981L31.1195 20.2832C31.7462 19.732 32.2543 19.0727 32.6138 18.3416L30.2735 17.289ZM29.3419 18.4981C28.9486 18.844 28.4877 19.1161 27.9864 19.2988L28.9565 21.5606C29.7581 21.2685 30.4928 20.8345 31.1195 20.2832L29.3419 18.4981ZM25.3418 21.1195L25.3418 24.9769L27.9165 25.0241L27.9165 21.1667L25.3418 21.1195Z" fill="black"/>
<path d="M37.7432 31.8266L38.945 31.4169L38.945 31.4169L37.7432 31.8266ZM32.9782 28.8697C32.2676 28.8672 31.7013 29.4078 31.7133 30.0772C31.7254 30.7466 32.3111 31.2913 33.0217 31.2938L32.9782 28.8697ZM38.945 31.4169C38.7586 30.9543 38.6698 30.4641 38.6836 29.9742L36.1109 29.86C36.0882 30.6676 36.2345 31.475 36.5414 32.2362L38.945 31.4169ZM38.6836 29.9742C38.6973 29.4843 38.8134 29.0045 39.0248 28.5619L36.6742 27.5294C36.3249 28.2605 36.1336 29.0525 36.1109 29.86L38.6836 29.9742ZM39.0248 28.5619C39.2362 28.1194 39.539 27.7227 39.9156 27.3945L38.1468 25.5995C37.5239 26.1425 37.0235 26.7983 36.6742 27.5294L39.0248 28.5619ZM39.9156 27.3945C40.2922 27.0663 40.7354 26.8128 41.2201 26.6485L40.3046 24.3656C39.5031 24.6373 38.7698 25.0566 38.1468 25.5995L39.9156 27.3945ZM41.2201 26.6485C41.7049 26.4842 42.2217 26.4122 42.7412 26.4369L42.8179 24.0158C41.9602 23.9751 41.1062 24.0938 40.3046 24.3656L41.2201 26.6485ZM42.7412 26.4369C43.2607 26.4616 43.7728 26.5825 44.2481 26.7929L45.303 24.6027C44.5199 24.2561 43.6755 24.0566 42.8179 24.0158L42.7412 26.4369ZM44.2481 26.7929C44.7234 27.0033 45.1526 27.299 45.511 27.6634L47.382 26.0356C46.7924 25.4362 46.086 24.9493 45.303 24.6027L44.2481 26.7929ZM45.511 27.6634C45.8694 28.0277 46.1498 28.4533 46.3362 28.9158L48.7399 28.0965C48.4331 27.3353 47.9717 26.635 47.382 26.0356L45.511 27.6634ZM46.3362 28.9158C46.5227 29.3784 46.6115 29.8686 46.5977 30.3585L49.1704 30.4727C49.1931 29.6651 49.0468 28.8577 48.7399 28.0965L46.3362 28.9158ZM46.5977 30.3585C46.5839 30.8484 46.4679 31.3283 46.2565 31.7708L48.6071 32.8033C48.9564 32.0722 49.1477 31.2803 49.1704 30.4727L46.5977 30.3585ZM46.2565 31.7708C46.045 32.2133 45.7423 32.61 45.3657 32.9382L47.1344 34.7332C47.7574 34.1903 48.2578 33.5344 48.6071 32.8033L46.2565 31.7708ZM45.3657 32.9382C44.9891 33.2664 44.5458 33.5199 44.0611 33.6842L44.9766 35.9672C45.7782 35.6954 46.5115 35.2761 47.1344 34.7332L45.3657 32.9382ZM44.0611 33.6842C43.5764 33.8485 43.0596 33.9205 42.5401 33.8958L42.4634 36.3169C43.321 36.3577 44.1751 36.2389 44.9766 35.9672L44.0611 33.6842ZM42.5401 33.8958C42.0206 33.8711 41.5085 33.7502 41.0332 33.5398L39.9783 35.73C40.7614 36.0766 41.6058 36.2761 42.4634 36.3169L42.5401 33.8958ZM41.0332 33.5398C40.5578 33.3295 40.1287 33.0337 39.7703 32.6694L37.8992 34.2971C38.4889 34.8965 39.1953 35.3834 39.9783 35.73L41.0332 33.5398ZM39.7703 32.6694C39.4119 32.305 39.1315 31.8794 38.945 31.4169L36.5414 32.2362C36.8482 32.9974 37.3096 33.6977 37.8992 34.2971L39.7703 32.6694ZM36.979 28.8838L32.9782 28.8697L33.0217 31.2938L37.0226 31.3079L36.979 28.8838Z" fill="black"/>
<path d="M25.0849 40.5675L25.564 41.701L25.564 41.701L25.0849 40.5675ZM28.2109 36.1437C28.2095 35.4746 27.6322 34.9223 26.9214 34.9101C26.2105 34.8979 25.6354 35.4305 25.6367 36.0997L28.2109 36.1437ZM25.564 41.701C26.0665 41.5208 26.5969 41.4345 27.124 41.4447L27.1252 39.0216C26.2648 39.005 25.409 39.1459 24.6058 39.4339L25.564 41.701ZM27.124 41.4447C27.6509 41.4549 28.1633 41.5612 28.6326 41.7544L29.6237 39.5368C28.835 39.2122 27.9857 39.0383 27.1252 39.0216L27.124 41.4447ZM28.6326 41.7544C29.1018 41.9475 29.5201 42.224 29.8654 42.5667L31.7159 40.9173C31.1242 40.3301 30.4126 39.8615 29.6237 39.5368L28.6326 41.7544ZM29.8654 42.5667C30.2107 42.9094 30.4785 43.3136 30.6535 43.7572L33.0645 42.9538C32.766 42.1969 32.3077 41.5046 31.7159 40.9173L29.8654 42.5667ZM30.6535 43.7572C30.8285 44.2009 30.908 44.6776 30.8847 45.1611L33.4562 45.3196C33.495 44.5148 33.3629 43.7106 33.0645 42.9538L30.6535 43.7572ZM30.8847 45.1611C30.8613 45.6448 30.7353 46.1261 30.5106 46.5768L32.8446 47.6427C33.2084 46.9133 33.4173 46.1243 33.4562 45.3196L30.8847 45.1611ZM30.5106 46.5768C30.2858 47.0275 29.9672 47.4374 29.5718 47.7814L31.3393 49.5764C31.969 49.0284 32.481 48.3719 32.8446 47.6427L30.5106 46.5768ZM29.5718 47.7814C29.1764 48.1255 28.7138 48.3953 28.2112 48.5756L29.1694 50.8426C29.9725 50.5546 30.7096 50.1244 31.3393 49.5764L29.5718 47.7814ZM28.2112 48.5756C27.7087 48.7558 27.1783 48.8421 26.6512 48.8319L26.65 51.2549C27.5104 51.2716 28.3662 51.1307 29.1694 50.8426L28.2112 48.5756ZM26.6512 48.8319C26.1243 48.8217 25.6119 48.7153 25.1426 48.5222L24.1515 50.7398C24.9402 51.0644 25.7895 51.2383 26.65 51.2549L26.6512 48.8319ZM25.1426 48.5222C24.6734 48.3291 24.2551 48.0525 23.9098 47.7098L22.0593 49.3593C22.651 49.9465 23.3626 50.4151 24.1515 50.7398L25.1426 48.5222ZM23.9098 47.7098C23.5645 47.3672 23.2967 46.963 23.1217 46.5194L20.7107 47.3228C21.0092 48.0797 21.4675 48.772 22.0593 49.3593L23.9098 47.7098ZM23.1217 46.5194C22.9467 46.0757 22.8672 45.599 22.8905 45.1155L20.319 44.9569C20.2802 45.7617 20.4123 46.566 20.7107 47.3228L23.1217 46.5194ZM22.8905 45.1155C22.9139 44.6318 23.0399 44.1505 23.2646 43.6998L20.9306 42.6339C20.5668 43.3632 20.3579 44.1523 20.319 44.9569L22.8905 45.1155ZM23.2646 43.6998C23.4894 43.2491 23.808 42.8392 24.2034 42.4951L22.4359 40.7002C21.8062 41.2481 21.2942 41.9047 20.9306 42.6339L23.2646 43.6998ZM24.2034 42.4951C24.5988 42.1511 25.0614 41.8812 25.564 41.701L24.6058 39.4339C23.8027 39.722 23.0656 40.1522 22.4359 40.7002L24.2034 42.4951ZM28.2183 39.8855L28.2109 36.1437L25.6367 36.0997L25.6442 39.8414L28.2183 39.8855Z" fill="black"/>
<path d="M26.8041 24.9019C27.5988 24.8776 28.3908 25.0013 29.134 25.2658C29.8772 25.5303 30.5567 25.9303 31.1331 26.4426C31.7096 26.9549 32.1714 27.5693 32.4917 28.2499C32.812 28.9306 32.9844 29.664 32.999 30.4076C33.0136 31.1511 32.8699 31.89 32.5765 32.5811C32.283 33.2723 31.8456 33.902 31.2896 34.4337C30.7336 34.9654 30.0702 35.3884 29.3379 35.6782C28.6055 35.968 27.8189 36.1187 27.0237 36.1216" stroke="black" stroke-width="2.5"/>
<path d="M8 31.0005H22.5M22.5 31.0005L19 27.0005M22.5 31.0005L19 35.5005" stroke="black" stroke-width="2.5" stroke-linecap="round"/>
</svg>
