<svg width="16" height="16" viewBox="0 0 16 16" fill="none" xmlns="http://www.w3.org/2000/svg">
<path d="M7.20352 13.1161L6.29375 12.2033C6.03471 11.9433 5.6835 11.7978 5.31735 11.7978H4.63363C3.24126 11.7978 2.1123 10.665 2.1123 9.26791V4.82674C2.1123 3.42966 3.24126 2.2975 4.63363 2.2975H11.1116C12.504 2.2975 13.6323 3.42966 13.6323 4.82674V9.26791C13.6323 10.665 12.504 11.7978 11.1116 11.7978H10.4279C10.0618 11.7978 9.71053 11.9433 9.45145 12.2033L8.54112 13.1161C8.17184 13.4872 7.57344 13.4872 7.20352 13.1161Z" stroke="black" stroke-width="0.64" stroke-linecap="round" stroke-linejoin="round"/>
<path d="M5.83008 8.13248H8.1739" stroke="black" stroke-width="0.64" stroke-linecap="round" stroke-linejoin="round"/>
<path d="M5.83008 5.685H9.91502" stroke="black" stroke-width="0.64" stroke-linecap="round" stroke-linejoin="round"/>
</svg>
