<svg xmlns="http://www.w3.org/2000/svg" width="24" height="24" viewBox="0 0 24 24" fill="none">
  <path fill-rule="evenodd" clip-rule="evenodd" d="M11.523 13.4911C10.431 12.534 8.82259 12.4571 7.6457 13.3121L3.69653 16.1791C3.36133 16.4225 2.89233 16.348 2.64899 16.0128C2.40564 15.6776 2.4801 15.2086 2.8153 14.9653L6.76402 12.0986C6.76394 12.0987 6.7641 12.0986 6.76402 12.0986C8.51132 10.8293 10.8988 10.946 12.5159 12.3667L12.5217 12.3719L20.2153 19.2743C20.5236 19.5509 20.5493 20.0251 20.2727 20.3334C19.996 20.6417 19.5219 20.6674 19.2136 20.3908L11.523 13.4911Z" fill="#7558DD"/>
  <path fill-rule="evenodd" clip-rule="evenodd" d="M21.7083 14.8736C21.7247 14.8887 21.7408 14.9035 21.7565 14.918C22.0615 15.1982 22.0816 15.6727 21.8014 15.9777C21.5211 16.2827 21.0467 16.3028 20.7416 16.0225C20.3047 15.6211 19.8592 15.2142 19.3413 14.9891C18.8749 14.7864 18.3481 14.7306 17.6856 15.087C16.796 15.5687 16.0087 16.0727 15.5739 16.3651C15.2301 16.5962 14.7641 16.505 14.533 16.1612C14.3018 15.8175 14.3931 15.3515 14.7368 15.1203C15.199 14.8095 16.0288 14.2783 16.9722 13.7675L16.9738 13.7667C18.0859 13.1679 19.0994 13.2484 19.9392 13.6134C20.6969 13.9428 21.3053 14.5027 21.7083 14.8736Z" fill="#7558DD"/>
  <path fill-rule="evenodd" clip-rule="evenodd" d="M5.08685 4.92581C4.41024 5.65115 4 6.71264 4 8.02915V15.9757C4 17.2932 4.40843 18.3546 5.08358 19.0794C5.75312 19.7983 6.74076 20.247 8.02805 20.247H16.4621C17.749 20.247 18.7393 19.7982 19.4113 19.0787C20.0887 18.3535 20.499 17.2922 20.499 15.9757V10.9534C20.499 10.5392 20.8347 10.2034 21.249 10.2034C21.6632 10.2034 21.999 10.5392 21.999 10.9534V15.9757C21.999 17.6039 21.4876 19.0533 20.5075 20.1026C19.5221 21.1576 18.119 21.747 16.4621 21.747H8.02805C6.37066 21.747 4.96927 21.1575 3.98596 20.1018C3.00825 19.0521 2.5 17.6028 2.5 15.9757V8.02915C2.5 6.40097 3.01131 4.9518 3.98999 3.90264C4.97405 2.84771 6.37498 2.25781 8.02805 2.25781H13.5369C13.9511 2.25781 14.2869 2.5936 14.2869 3.00781C14.2869 3.42203 13.9511 3.75781 13.5369 3.75781H8.02805C6.74617 3.75781 5.75808 4.20625 5.08685 4.92581Z" fill="#7558DD"/>
  <path fill-rule="evenodd" clip-rule="evenodd" d="M18.1651 2.91986C18.86 2.17086 20.0305 2.12702 20.7795 2.82194L21.4662 3.45904C22.2152 4.15397 22.2591 5.3245 21.5642 6.07351L18.1254 9.7799C17.6717 10.269 17.0557 10.5764 16.3921 10.645L15.682 10.7183C14.7505 10.8146 13.947 10.0691 13.9733 9.13297L13.9934 8.41939C14.0121 7.75256 14.2726 7.11528 14.7263 6.62625L18.1651 2.91986ZM19.7593 3.92155C19.6176 3.79008 19.3962 3.79838 19.2647 3.94008L15.8259 7.64647C15.6197 7.86876 15.5013 8.15843 15.4928 8.46154L15.4727 9.17511C15.4719 9.20531 15.4978 9.22936 15.5278 9.22625L16.2379 9.15288C16.5395 9.12171 16.8195 8.98196 17.0258 8.75968L20.4645 5.05329C20.596 4.91158 20.5877 4.69013 20.446 4.55866L19.7593 3.92155Z" fill="#7558DD"/>
</svg>