<svg xmlns="http://www.w3.org/2000/svg" width="24" height="24" viewBox="0 0 24 24" fill="none">
  <path fill-rule="evenodd" clip-rule="evenodd" d="M9.96039 5.40545L10.1934 7.32788C10.1934 7.32783 10.1934 7.32793 10.1934 7.32788C10.3937 8.97862 9.1062 10.4322 7.44353 10.4322H5.77086C5.24315 10.4322 4.81586 10.8586 4.81446 11.3848V11.3905V11.3927C4.81288 11.9245 5.24276 12.3553 5.77461 12.3553H17.5507C18.0811 12.3553 18.5109 11.9255 18.5109 11.3952C18.5109 10.8641 18.0798 10.434 17.5494 10.435L15.8756 10.4378C14.216 10.4404 12.9279 8.99173 13.1233 7.34489L13.3537 5.40624C13.3322 4.48824 12.5805 3.75 11.6566 3.75C10.7334 3.75 9.98228 4.48746 9.96039 5.40545ZM8.45989 5.44668C8.45989 3.68122 9.89111 2.25 11.6566 2.25C13.4217 2.25 14.8542 3.68084 14.8542 5.44668C14.8542 5.47627 14.8525 5.50583 14.849 5.53521L14.6129 7.52163C14.6128 7.52168 14.6129 7.52158 14.6129 7.52163C14.5235 8.27548 15.1133 8.93902 15.8732 8.93784L17.5465 8.93503C18.907 8.93246 20.0109 10.0353 20.0109 11.3952C20.0109 12.754 18.9095 13.8553 17.5507 13.8553H5.77461C4.41399 13.8553 3.31108 12.7519 3.31446 11.3895C3.31447 11.3891 3.31447 11.3887 3.31447 11.3883L4.06446 11.3905H3.31446V11.3895L3.31447 11.3824C3.31717 10.0273 4.41716 8.93222 5.77086 8.93222H7.44353C8.20593 8.93222 8.79627 8.26611 8.70431 7.50865L8.46534 5.53692C8.46171 5.50698 8.45989 5.47684 8.45989 5.44668Z" fill="#7558DD"/>
  <path fill-rule="evenodd" clip-rule="evenodd" d="M5.17712 12.3594C4.76291 12.3594 4.42712 12.6952 4.42712 13.1094V15.5724C4.42712 15.5824 4.42732 15.5925 4.42773 15.6025C4.49974 17.3926 3.72406 18.5814 3.57957 18.8028C3.57103 18.8159 3.56469 18.8256 3.56087 18.8319C3.30457 19.2521 3.25975 19.7497 3.44101 20.1864C3.62248 20.6235 4.00652 20.9433 4.48734 21.0569L4.48761 21.0558C4.51123 21.0615 4.53253 21.0661 4.54299 21.0679C4.55499 21.0697 4.57495 21.0722 4.58293 21.0731C4.59811 21.0747 4.61008 21.0754 4.61471 21.0757C4.62532 21.0764 4.63383 21.0767 4.63679 21.0768L4.65435 21.0772L4.68215 21.0775L4.76713 21.0781C4.83914 21.0784 4.94357 21.0787 5.07522 21.079C5.33872 21.0796 5.71327 21.0801 6.16007 21.0806C7.05377 21.0815 8.23756 21.0822 9.40239 21.0827C9.8166 21.0828 10.1525 20.7472 10.1527 20.333C10.1529 19.9188 9.81721 19.5828 9.40299 19.5827C8.23828 19.5822 7.05487 19.5815 6.16164 19.5806C5.71499 19.5801 5.34115 19.5796 5.07856 19.579C4.99548 19.5788 4.92373 19.5786 4.86445 19.5784C4.90177 19.5205 4.97587 19.4025 5.04803 19.2745C5.16402 19.0687 5.30801 18.7848 5.44588 18.4317C5.72036 17.7287 5.97241 16.746 5.92712 15.5577V13.1094C5.92712 12.6952 5.59134 12.3594 5.17712 12.3594ZM4.82252 19.6035C4.82393 19.6059 4.82524 19.6085 4.82638 19.6113C4.82699 19.6127 4.82753 19.6142 4.82801 19.6156C4.82914 19.619 4.82992 19.6223 4.83039 19.6254C4.83107 19.6298 4.83101 19.6331 4.83085 19.6348C4.8307 19.6366 4.83052 19.636 4.83155 19.6329C4.83258 19.6299 4.83513 19.6233 4.84099 19.6137L4.82156 19.6019C4.82189 19.6024 4.82221 19.6029 4.82252 19.6035ZM4.82252 19.6035L4.80305 19.5916C4.79193 19.5891 4.78271 19.5872 4.77688 19.5862C4.76495 19.5845 4.74508 19.5819 4.73721 19.5811C4.72224 19.5795 4.71055 19.5788 4.70628 19.5785C4.69639 19.5779 4.68888 19.5777 4.68721 19.5776C4.68407 19.5775 4.68175 19.5774 4.68089 19.5774M4.78103 19.5781C4.77862 19.5781 4.77626 19.5781 4.77392 19.5781L4.69569 19.5776L4.68089 19.5774" fill="#7558DD"/>
  <path fill-rule="evenodd" clip-rule="evenodd" d="M11.6611 4.73438C12.0753 4.73438 12.4111 5.07015 12.4111 5.48438V5.49437C12.4111 5.90858 12.0753 6.24437 11.6611 6.24437C11.2469 6.24437 10.9111 5.90858 10.9111 5.49437V5.48438C10.9111 5.07015 11.2469 4.73438 11.6611 4.73438Z" fill="#7558DD"/>
  <path fill-rule="evenodd" clip-rule="evenodd" d="M17.4363 21.5146C17.7503 21.5146 18.031 21.3191 18.1398 21.0246L18.2371 20.7613C18.5281 19.9737 19.148 19.3531 19.9338 19.0619L20.1967 18.9645C20.4908 18.8555 20.686 18.5749 20.686 18.2612C20.686 17.9475 20.4908 17.667 20.1967 17.558L19.9338 17.4606C19.1481 17.1694 18.5281 16.5488 18.2371 15.7612L18.1398 15.4979C18.031 15.2034 17.7503 15.0078 17.4363 15.0078C17.1223 15.0078 16.8416 15.2034 16.7328 15.4979L16.6355 15.7612C16.3445 16.5488 15.7246 17.1694 14.9388 17.4605L14.6759 17.558C14.3817 17.667 14.1865 17.9475 14.1865 18.2612C14.1865 18.5749 14.3817 18.8555 14.6759 18.9645L14.9388 19.0619C15.7246 19.3531 16.3445 19.9737 16.6355 20.7613L16.7328 21.0246C16.8416 21.3191 17.1223 21.5146 17.4363 21.5146ZM16.5691 18.2612C16.8974 18.0141 17.1894 17.7218 17.4363 17.3932C17.6832 17.7218 17.9752 18.0141 18.3035 18.2612C17.9752 18.5083 17.6832 18.8006 17.4363 19.1292C17.1894 18.8006 16.8974 18.5083 16.5691 18.2612Z" fill="#7558DD"/>
  <path fill-rule="evenodd" clip-rule="evenodd" d="M11.4587 19.0112C11.7889 19.0112 12.0803 18.7952 12.1763 18.4793C12.2985 18.0772 12.6125 17.7631 13.013 17.641C13.3287 17.5448 13.5443 17.2535 13.5443 16.9236C13.5443 16.5936 13.3287 16.3024 13.013 16.2062C12.6125 16.0841 12.2985 15.77 12.1763 15.3678C12.0803 15.0519 11.7889 14.8359 11.4587 14.8359C11.1285 14.8359 10.8371 15.0519 10.7411 15.3678C10.6189 15.7699 10.3049 16.0841 9.90436 16.2062C9.58872 16.3024 9.37305 16.5936 9.37305 16.9236C9.37305 17.2535 9.58872 17.5448 9.90436 17.641C10.3049 17.7631 10.6189 18.0772 10.7411 18.4793C10.8371 18.7952 11.1285 19.0112 11.4587 19.0112Z" fill="#7558DD"/>
  <path fill-rule="evenodd" clip-rule="evenodd" d="M12.2598 21C12.2598 20.5858 12.5956 20.25 13.0098 20.25H13.0198C13.434 20.25 13.7698 20.5858 13.7698 21C13.7698 21.4142 13.434 21.75 13.0198 21.75H13.0098C12.5956 21.75 12.2598 21.4142 12.2598 21Z" fill="#7558DD"/>
</svg>