<svg width="16" height="17" viewBox="0 0 16 17" fill="none" xmlns="http://www.w3.org/2000/svg">
<circle cx="8" cy="8.5" r="7.5" fill="#F35063" stroke="#F35063"/>
<path fill-rule="evenodd" clip-rule="evenodd" d="M8.69043 5.55198C8.69183 5.13777 8.35719 4.80084 7.94298 4.79943C7.52877 4.79803 7.19184 5.13267 7.19043 5.54688L7.17929 8.82459C7.17789 9.2388 7.51253 9.57573 7.92674 9.57713C8.34095 9.57854 8.67788 9.2439 8.67929 8.82969L8.69043 5.55198ZM7.79465 12.0575C7.38236 12.0446 7.05872 11.6971 7.07177 11.2814C7.08482 10.8656 7.42962 10.5391 7.8419 10.5521L7.94044 10.5551C8.35272 10.5681 8.67637 10.9156 8.66332 11.3313C8.65027 11.747 8.30547 12.0736 7.89318 12.0606L7.79465 12.0575Z" fill="#FEEEEF"/>
</svg>
