<svg width="16" height="16" viewBox="0 0 16 16" fill="none" xmlns="http://www.w3.org/2000/svg">
<path fill-rule="evenodd" clip-rule="evenodd" d="M13.8729 5.08322L13.4579 4.36316C13.1069 3.75388 12.3289 3.54369 11.7188 3.89329C11.4284 4.06438 11.0818 4.11292 10.7556 4.0282C10.4293 3.94349 10.1502 3.73249 9.97968 3.44173C9.87 3.25691 9.81105 3.04641 9.80882 2.83151C9.81872 2.48696 9.68873 2.15308 9.44847 1.90593C9.20821 1.65877 8.87815 1.51939 8.53346 1.51953H7.69746C7.35977 1.51953 7.036 1.65409 6.79779 1.89344C6.55958 2.1328 6.42657 2.45721 6.4282 2.79489C6.41819 3.4921 5.85011 4.05202 5.15283 4.05195C4.93793 4.04972 4.72743 3.99078 4.54261 3.88109C3.9325 3.53149 3.15453 3.74168 2.80348 4.35096L2.35802 5.08322C2.0074 5.69174 2.21472 6.46922 2.82179 6.82235C3.21639 7.05017 3.45948 7.47121 3.45948 7.92685C3.45948 8.3825 3.21639 8.80353 2.82179 9.03135C2.21549 9.38211 2.00794 10.1577 2.35802 10.7644L2.77907 11.4905C2.94355 11.7873 3.21953 12.0063 3.54592 12.0991C3.87231 12.1919 4.22222 12.1507 4.5182 11.9848C4.80918 11.815 5.15592 11.7685 5.48135 11.8556C5.80678 11.9427 6.08395 12.1562 6.25123 12.4486C6.36092 12.6334 6.41986 12.8439 6.42209 13.0588C6.42209 13.7632 6.99309 14.3342 7.69746 14.3342H8.53346C9.23545 14.3342 9.80546 13.7669 9.80882 13.0649C9.80719 12.7262 9.94103 12.4008 10.1806 12.1613C10.4201 11.9218 10.7454 11.7879 11.0842 11.7896C11.2986 11.7953 11.5082 11.854 11.6944 11.9604C12.3029 12.311 13.0804 12.1037 13.4335 11.4966L13.8729 10.7644C14.043 10.4725 14.0896 10.1248 14.0026 9.7984C13.9155 9.47197 13.702 9.19372 13.4091 9.02525C13.1163 8.85679 12.9027 8.57853 12.8157 8.25211C12.7286 7.92568 12.7753 7.57803 12.9454 7.28612C13.056 7.09304 13.216 6.93295 13.4091 6.82235C14.0126 6.46941 14.2194 5.69648 13.8729 5.08933V5.08322Z" stroke="#09090B" stroke-linecap="round" stroke-linejoin="round"/>
<path d="M8.11681 9.68382C9.08742 9.68382 9.87425 8.89699 9.87425 7.92638C9.87425 6.95578 9.08742 6.16895 8.11681 6.16895C7.14621 6.16895 6.35938 6.95578 6.35938 7.92638C6.35938 8.89699 7.14621 9.68382 8.11681 9.68382Z" stroke="#09090B" stroke-linecap="round" stroke-linejoin="round"/>
</svg>
