<svg width="16" height="16" viewBox="0 0 16 16" fill="none" xmlns="http://www.w3.org/2000/svg">
<path d="M9.03347 5.61742C9.45347 5.19738 10.1352 5.19807 10.5553 5.61811C10.9753 6.03816 10.976 6.71986 10.5559 7.13992C10.1359 7.55999 9.4542 7.55926 9.03413 7.13926C8.61407 6.71919 8.6134 6.03747 9.03347 5.61742Z" stroke="black" stroke-linecap="round" stroke-linejoin="round"/>
<path d="M13.3207 2.57827C9.68194 2.33112 5.19171 5.68988 4.70872 9.46971C4.69757 9.79991 4.81804 10.1121 5.04364 10.3377L5.95512 11.2492C6.18071 11.4748 6.49295 11.5953 6.82314 11.5841C10.6029 11.1008 13.9616 6.61089 13.7145 2.97206C13.6999 2.75709 13.5357 2.59287 13.3207 2.57827Z" stroke="black" stroke-linecap="round" stroke-linejoin="round"/>
<path d="M11.0236 9.4502L10.8137 12.4038C10.8137 12.6602 10.6688 12.8946 10.4395 13.0093L8.80382 13.8271C8.62828 13.9149 8.42328 13.9222 8.24202 13.8471C8.06068 13.772 7.92088 13.6219 7.85882 13.4357L7.09375 11.5665" stroke="black" stroke-linecap="round" stroke-linejoin="round"/>
<path d="M6.88758 5.31738L3.93264 5.50688C3.67621 5.50511 3.44079 5.64838 3.32454 5.87694L2.49545 7.5069C2.40647 7.68183 2.39778 7.88676 2.47164 8.06863C2.5455 8.25043 2.69462 8.3913 2.88038 8.45463L4.74428 9.23256" stroke="black" stroke-linecap="round" stroke-linejoin="round"/>
<path d="M4.9847 12.5714C4.80444 13.7711 3.40006 13.5474 2.48438 13.685C2.62194 12.7692 2.40588 11.3726 3.60557 11.1924" stroke="black" stroke-linecap="round" stroke-linejoin="round"/>
</svg>
