<svg width="20" height="20" viewBox="0 0 20 20" fill="none" xmlns="http://www.w3.org/2000/svg">
<path d="M2.47852 7.30469L3.96871 8.47879C6.14544 10.1937 9.21382 10.1937 11.3906 8.47879L12.8807 7.30469L11.7067 8.79487C9.99166 10.9716 9.99166 14.04 11.7067 16.2167L12.8807 17.7069L11.3906 16.5329C9.21382 14.8179 6.14544 14.8179 3.96871 16.5329L2.47852 17.7069L3.65259 16.2167C5.36757 14.04 5.36757 10.9716 3.65259 8.79487L2.47852 7.30469Z" stroke="#3C89F9" stroke-width="1.25" stroke-linecap="round" stroke-linejoin="round"/>
<path d="M5.73438 2.29297L6.17819 2.64264C6.82649 3.15342 7.74034 3.15342 8.38868 2.64264L8.83242 2.29297L8.48276 2.73679C7.97202 3.38509 7.97202 4.29894 8.48276 4.94724L8.83242 5.39106L8.38868 5.04139C7.74034 4.53062 6.82649 4.53062 6.17819 5.04139L5.73438 5.39106L6.08404 4.94724C6.59482 4.29894 6.59482 3.38509 6.08404 2.73679L5.73438 2.29297Z" stroke="#3C89F9" stroke-width="1.25" stroke-linecap="round" stroke-linejoin="round"/>
<path d="M14.6133 10.6523L15.0571 11.002C15.7054 11.5128 16.6193 11.5128 17.2676 11.002L17.7114 10.6523L17.3617 11.0962C16.8509 11.7444 16.8509 12.6583 17.3617 13.3066L17.7114 13.7504L17.2676 13.4008C16.6193 12.89 15.7054 12.89 15.0571 13.4008L14.6133 13.7504L14.9629 13.3066C15.4738 12.6583 15.4738 11.7444 14.9629 11.0962L14.6133 10.6523Z" stroke="#3C89F9" stroke-width="1.25" stroke-linecap="round" stroke-linejoin="round"/>
</svg>
