<svg xmlns="http://www.w3.org/2000/svg" width="25" height="24" viewBox="0 0 25 24" fill="none">
  <path fill-rule="evenodd" clip-rule="evenodd" d="M3.05005 6.37109C3.05005 5.95688 3.38584 5.62109 3.80005 5.62109H16.5057C16.9199 5.62109 17.2557 5.95688 17.2557 6.37109V8.62558C17.2557 9.0398 16.9199 9.37558 16.5057 9.37558C16.0915 9.37558 15.7557 9.0398 15.7557 8.62558V7.12109H4.55005V8.62558C4.55005 9.0398 4.21426 9.37558 3.80005 9.37558C3.38584 9.37558 3.05005 9.0398 3.05005 8.62558V6.37109Z" fill="black"/>
  <path fill-rule="evenodd" clip-rule="evenodd" d="M14.6827 12.75C14.6827 12.3358 15.0185 12 15.4327 12H21.8002C22.2144 12 22.5502 12.3358 22.5502 12.75V13.8797C22.5502 14.2939 22.2144 14.6297 21.8002 14.6297C21.386 14.6297 21.0502 14.2939 21.0502 13.8797V13.5H16.1827V13.8797C16.1827 14.2939 15.8469 14.6297 15.4327 14.6297C15.0185 14.6297 14.6827 14.2939 14.6827 13.8797V12.75Z" fill="black"/>
  <path fill-rule="evenodd" clip-rule="evenodd" d="M18.5866 12C19.0008 12 19.3366 12.3358 19.3366 12.75V18.4092H20.0376C20.4518 18.4092 20.7876 18.745 20.7876 19.1592C20.7876 19.5734 20.4518 19.9092 20.0376 19.9092H18.5979C18.5941 19.9093 18.5903 19.9093 18.5866 19.9093C18.5828 19.9093 18.579 19.9093 18.5752 19.9092H17.1964C16.7822 19.9092 16.4464 19.5734 16.4464 19.1592C16.4464 18.745 16.7822 18.4092 17.1964 18.4092H17.8366V12.75C17.8366 12.3358 18.1723 12 18.5866 12Z" fill="black"/>
  <path fill-rule="evenodd" clip-rule="evenodd" d="M10.0912 5.62109C10.5054 5.62109 10.8412 5.95688 10.8412 6.37109V18.4101H12.9863C13.4005 18.4101 13.7363 18.7458 13.7363 19.1601C13.7363 19.5743 13.4005 19.9101 12.9863 19.9101H7.3175C6.90328 19.9101 6.5675 19.5743 6.5675 19.1601C6.5675 18.7458 6.90328 18.4101 7.3175 18.4101H9.34118V6.37109C9.34118 5.95688 9.67697 5.62109 10.0912 5.62109Z" fill="black"/>
</svg>