<svg width="60" height="60" viewBox="0 0 60 60" fill="none" xmlns="http://www.w3.org/2000/svg">
<path fill-rule="evenodd" clip-rule="evenodd" d="M39.5801 9H19.4199C12.4016 9 8 13.9725 8 21.0094V39.9906C8 47.0275 12.383 52 19.4199 52H39.5684C46.617 52 50.9977 47.0275 50.9977 39.9906V21.0094C51.007 13.9725 46.624 9 39.5801 9Z" stroke="#121212" stroke-width="2.5" stroke-linecap="round" stroke-linejoin="round"/>
<path fill-rule="evenodd" clip-rule="evenodd" d="M26.532 23.0634C26.532 25.4401 24.6073 27.3648 22.2306 27.3648C19.8562 27.3648 17.9292 25.4401 17.9292 23.0634C17.9292 20.6866 19.8562 18.762 22.2306 18.762C24.605 18.7643 26.5297 20.689 26.532 23.0634Z" stroke="#121212" stroke-width="2.5" stroke-linecap="round" stroke-linejoin="round"/>
<path d="M51.0074 37.4301C48.8567 35.2165 44.7208 30.745 40.2237 30.745C35.7242 30.745 33.1308 40.6084 28.8037 40.6084C24.4767 40.6084 20.5458 36.1485 17.0786 39.0076C13.6114 41.8643 10.3306 47.7059 10.3306 47.7059" stroke="#121212" stroke-width="2.5" stroke-linecap="round" stroke-linejoin="round"/>
</svg>
