<svg width="16" height="16" viewBox="0 0 16 16" fill="none" xmlns="http://www.w3.org/2000/svg">
<path d="M2.97412 13.1605C2.97412 11.6895 4.13533 9.8584 7.47947 9.8584" stroke="#09090B" stroke-linecap="round" stroke-linejoin="round"/>
<path fill-rule="evenodd" clip-rule="evenodd" d="M10.3598 4.87788C10.3598 6.467 9.07104 7.75573 7.4819 7.75573C5.89277 7.75573 4.604 6.467 4.604 4.87788C4.604 3.28876 5.89277 2 7.4819 2C9.07104 2 10.3598 3.28876 10.3598 4.87788Z" stroke="#09090B" stroke-linecap="round" stroke-linejoin="round"/>
<path d="M11.2117 13.1336L11.2821 12.943C11.5478 12.2238 12.1139 11.6569 12.832 11.3908L13.0224 11.3202L12.832 11.2497C12.1139 10.9836 11.5478 10.4166 11.2821 9.69757L11.2117 9.50684L11.1412 9.69757C10.8755 10.4166 10.3094 10.9836 9.59135 11.2497L9.40088 11.3202L9.59135 11.3908C10.3094 11.6569 10.8755 12.2238 11.1412 12.943L11.2117 13.1336Z" stroke="#09090B" stroke-linecap="round" stroke-linejoin="round"/>
<path d="M7.50837 14.0006C7.6281 13.6067 7.9359 13.2984 8.32923 13.1786C7.9359 13.0586 7.6281 12.7504 7.50837 12.3564C7.38863 12.7504 7.08083 13.0586 6.6875 13.1786C7.08083 13.2984 7.38863 13.6067 7.50837 14.0006Z" stroke="#09090B" stroke-linecap="round" stroke-linejoin="round"/>
</svg>
