<svg width="59" height="59" viewBox="0 0 59 59" fill="none" xmlns="http://www.w3.org/2000/svg">
<path d="M9 21.4444C9 18.9931 10.9931 17 13.4445 17H31.2222C33.6736 17 35.6667 18.9931 35.6667 21.4444V39.2222C35.6667 41.6736 33.6736 43.6667 31.2222 43.6667H13.4445C10.9931 43.6667 9 41.6736 9 39.2222V21.4444ZM47.8264 19.4861C48.5486 19.875 49 20.625 49 21.4444V39.2222C49 40.0417 48.5486 40.7917 47.8264 41.1806C47.1042 41.5694 46.2292 41.5278 45.5417 41.0694L38.875 36.625L37.8889 35.9653V34.7778V25.8889V24.7014L38.875 24.0417L45.5417 19.5972C46.2222 19.1458 47.0972 19.0972 47.8264 19.4861Z" fill="#13947D"/>
</svg>
