<svg xmlns="http://www.w3.org/2000/svg" width="25" height="24" viewBox="0 0 25 24" fill="none">
  <path fill-rule="evenodd" clip-rule="evenodd" d="M8.88907 5.00113L9.35941 5.00174C9.43981 5.00185 9.52111 5.00197 9.60316 5.0021L10.103 5.00291C11.1998 5.00478 12.3681 5.00735 13.2584 5.0092L13.6484 5.00999C13.7096 5.01012 13.769 5.01024 13.8262 5.01035C16.0762 4.85235 18.1072 6.52235 18.2882 8.76335C18.2898 8.78633 18.2913 8.91677 18.2926 9.15404L20.3684 7.45405C20.9724 6.95905 21.7854 6.86205 22.4904 7.19505C23.1954 7.53005 23.6334 8.22205 23.6324 9.00205L23.6204 16.351C23.6194 17.131 23.1804 17.823 22.4764 18.155C22.2004 18.286 21.9084 18.349 21.6184 18.349C21.1674 18.349 20.7224 18.194 20.3554 17.893L18.2972 16.1853C18.2972 16.2142 18.2972 16.2432 18.2972 16.2723C18.3392 17.3283 17.9632 18.3453 17.2372 19.1353C16.4742 19.9663 15.4222 20.4493 14.2762 20.4963C14.2567 20.4977 14.1472 20.4987 13.9674 20.4993L13.5724 20.5C13.4183 20.5001 13.2432 20.5001 13.0514 20.5L12.2055 20.4992C12.1292 20.4991 12.0518 20.499 11.9733 20.4989L11.4909 20.4981C10.3415 20.4962 9.04685 20.4931 8.04309 20.491L7.63199 20.4901C7.50175 20.4898 7.37871 20.4896 7.26416 20.4893C7.15816 20.4973 7.05216 20.5013 6.94616 20.5013C4.83216 20.5023 2.98816 18.8823 2.81416 16.7573L2.814 16.7552L2.81307 16.7354C2.813 16.7332 2.81292 16.7308 2.81285 16.7282L2.81217 16.6967C2.81209 16.6922 2.812 16.6874 2.81192 16.6822L2.81117 16.624C2.81108 16.6161 2.81099 16.6078 2.81091 16.599L2.81011 16.5044C2.81002 16.4922 2.80993 16.4793 2.80984 16.4658L2.80929 16.3764C2.8092 16.3602 2.80911 16.3432 2.80902 16.3254L2.80821 16.1444C2.80812 16.1218 2.80803 16.0984 2.80794 16.0741L2.80716 15.8306C2.80707 15.8007 2.80699 15.7698 2.80691 15.7378L2.80618 15.4222C2.8061 15.3839 2.80603 15.3445 2.80595 15.3039L2.80511 14.7595C2.80505 14.7091 2.80499 14.6575 2.80493 14.6046L2.80415 13.7079C2.80411 13.641 2.80407 13.5726 2.80403 13.5027L2.80402 9.58479C2.80406 9.46597 2.80411 9.34516 2.80416 9.22235C2.75616 8.19135 3.13016 7.16735 3.86016 6.37035C4.62216 5.53835 5.67316 5.05335 6.82016 5.00435C6.8356 5.00324 6.90869 5.0024 7.02924 5.00179L7.2444 5.00104C7.28577 5.00094 7.32978 5.00086 7.37629 5.00079L8.66439 5.0009C8.73796 5.00097 8.81291 5.00105 8.88907 5.00113ZM13.8802 6.50835C12.6176 6.50651 11.0738 6.50431 9.75642 6.50287L9.06333 6.50216C8.95257 6.50206 8.84445 6.50197 8.73934 6.50188L7.00027 6.50194C6.93482 6.50224 6.89249 6.50268 6.87616 6.50335C6.13816 6.53435 5.45716 6.84735 4.96616 7.38335C4.50816 7.88435 4.27216 8.52435 4.30316 9.18835L4.30398 13.0513C4.30403 13.1366 4.30407 13.2213 4.30412 13.3053L4.30504 14.4993C4.30511 14.5736 4.30519 14.6467 4.30527 14.7184L4.30578 15.1314C4.30587 15.1973 4.30597 15.2616 4.30607 15.3242L4.30704 15.8391C4.30811 16.3027 4.30945 16.6035 4.31116 16.6613C4.42516 18.0463 5.72316 19.1053 7.20916 18.9913C7.3663 18.9916 7.52776 18.9918 7.69258 18.9921L8.19612 18.9929C8.62249 18.9936 9.06374 18.9943 9.50469 18.9951L10.0327 18.9959C10.2957 18.9964 10.5563 18.9968 10.8114 18.9972L11.3132 18.998C11.3953 18.9981 11.4765 18.9982 11.5567 18.9983L12.0253 18.9989C12.1011 18.999 12.1756 18.9991 12.2489 18.9992L14.0143 18.9992C14.1298 18.9987 14.2023 18.9981 14.2242 18.9973C14.9592 18.9673 15.6412 18.6553 16.1322 18.1203C16.5912 17.6213 16.8272 16.9813 16.7982 16.3203L16.7973 16.3038L16.7971 11.4677C16.797 11.3891 16.797 11.3116 16.797 11.2352L16.7962 10.3793C16.7961 10.3137 16.796 10.2496 16.796 10.1872L16.7951 9.67382C16.7948 9.51976 16.7944 9.38376 16.794 9.2688L16.7932 9.06782C16.7926 8.95371 16.7919 8.88054 16.7912 8.85535C16.6782 7.46335 15.3742 6.39135 13.8802 6.50835ZM21.3184 8.61505L18.2968 11.0803C18.2969 11.2032 18.297 11.3309 18.2971 11.4635L18.2977 13.9711L21.3064 16.734C21.5274 16.914 21.7494 16.84 21.8354 16.798C21.9214 16.758 22.1204 16.633 22.1204 16.349L22.1324 9.00005C22.1334 8.71605 21.9334 8.59105 21.8474 8.55005C21.7624 8.51005 21.5374 8.43505 21.3184 8.61505Z" fill="black"/>
</svg>