<svg width="16" height="16" viewBox="0 0 16 16" fill="none" xmlns="http://www.w3.org/2000/svg">
<path d="M14 4.23437C14 3.1298 13.1046 2.23438 12 2.23438H4C2.89543 2.23438 2 3.1298 2 4.23437V10.0899C2 11.1945 2.89543 12.0899 4 12.0899H5.44132C5.70653 12.0899 5.96089 12.1952 6.14843 12.3828L7.29287 13.5273C7.6834 13.9178 8.3166 13.9178 8.70713 13.5273L9.8516 12.3828C10.0391 12.1952 10.2935 12.0899 10.5587 12.0899H12C13.1046 12.0899 14 11.1945 14 10.0899V4.23437Z" stroke="#09090B" stroke-linecap="round" stroke-linejoin="round"/>
<path d="M10.5 7.5L9.50003 10L7.99994 6.46562L6.49997 10L5 6" stroke="#09090B" stroke-linecap="round" stroke-linejoin="round"/>
<path d="M11.1766 6.3569C11.005 5.7923 10.5638 5.3503 10 5.1785C10.5638 5.0066 11.005 4.5647 11.1766 4C11.3482 4.5647 11.7895 5.0066 12.3533 5.1785C11.7895 5.3503 11.3482 5.7923 11.1766 6.3569Z" fill="#09090B"/>
</svg>
