<svg width="25" height="25" viewBox="0 0 25 25" fill="none" xmlns="http://www.w3.org/2000/svg">
<path d="M21.6486 13.1439V9.21094C21.6486 6.35394 19.87 4.33594 17.0104 4.33594H8.8296C5.97877 4.33594 4.19141 6.35394 4.19141 9.21094V16.918C4.19141 19.774 5.97002 21.7919 8.8296 21.7919H12.5274" stroke="black" stroke-width="1.5" stroke-linecap="round" stroke-linejoin="round"/>
<path d="M12.4982 7.77344H12.434M7.3982 7.77344H7.33398M9.94799 7.77344H9.88377" stroke="black" stroke-width="1.5" stroke-linecap="round" stroke-linejoin="round"/>
<path d="M21.6486 10.625H4.19141" stroke="black" stroke-width="1.5" stroke-linecap="round" stroke-linejoin="round"/>
<path d="M21.1491 17.8255C21.1491 16.1056 19.7547 14.7109 18.0345 14.7109C16.3143 14.7109 14.9199 16.1056 14.9199 17.8255C14.9199 19.5461 16.3143 20.9405 18.0345 20.9405C19.7547 20.9405 21.1491 19.5461 21.1491 17.8255Z" stroke="black" stroke-width="1.5" stroke-linecap="round" stroke-linejoin="round"/>
<path d="M20.1533 20.1094L21.9452 21.8968" stroke="black" stroke-width="1.5" stroke-linecap="round" stroke-linejoin="round"/>
</svg>
