<svg width="17" height="16" viewBox="0 0 17 16" fill="none" xmlns="http://www.w3.org/2000/svg">
<path d="M7.14774 14.3348H11.3504C11.5344 14.3348 11.6837 14.1854 11.6837 14.0014V11.9108C11.6837 11.8114 11.7244 11.7141 11.7944 11.6441L13.9944 9.46943C14.4597 9.0081 14.7164 8.39344 14.7164 7.7381V4.90677C14.7164 4.16543 14.385 3.4741 13.8077 3.0101L12.369 1.8521C12.1184 1.65077 11.7804 1.61077 11.489 1.75077C11.1977 1.8901 11.017 2.17743 11.017 2.5001V5.32543C11.017 5.52743 10.9097 5.71877 10.7377 5.8241L9.55505 6.5481C9.36638 6.66277 9.13238 6.66343 8.94438 6.54877L7.75971 5.82343C7.58838 5.71877 7.48104 5.52743 7.48104 5.32543V2.5001C7.48104 2.17743 7.30038 1.8901 7.00907 1.75077C6.71774 1.61143 6.3804 1.65077 6.12907 1.8521L4.69174 3.0101C4.11307 3.47343 3.78174 4.16477 3.78174 4.90677V7.7381C3.78174 8.38277 4.04507 9.0141 4.50441 9.46943L6.7024 11.6434C6.77374 11.7141 6.8144 11.8114 6.8144 11.9108V14.0014C6.8144 14.1854 6.96374 14.3348 7.14774 14.3348Z" fill="#1A73E8"/>
</svg>
