<svg width="13" height="14" viewBox="0 0 13 14" fill="none" xmlns="http://www.w3.org/2000/svg">
<path d="M1.26818 0.730412C0.987003 0.449238 0.531118 0.449238 0.249943 0.730412C-0.0312311 1.01159 -0.0312311 1.46747 0.249943 1.74865L5.50079 6.99953L0.249943 12.2504C-0.0312311 12.5316 -0.0312311 12.9874 0.249943 13.2686C0.531118 13.5498 0.987003 13.5498 1.26818 13.2686L6.51906 8.0178L11.77 13.2686C12.0512 13.5498 12.507 13.5498 12.7881 13.2686C13.0693 12.9874 13.0693 12.5316 12.7881 12.2504L7.53733 6.99953L12.7881 1.74865C13.0693 1.46747 13.0693 1.01159 12.7881 0.730412C12.507 0.449238 12.0512 0.449238 11.77 0.730412L6.51906 5.98126L1.26818 0.730412Z" fill="black"/>
</svg>
