<svg width="24" height="24" viewBox="0 0 24 24" fill="none" xmlns="http://www.w3.org/2000/svg">
<circle opacity="0.1" cx="12.001" cy="12" r="12" fill="#DF6F79"/>
<path fill-rule="evenodd" clip-rule="evenodd" d="M15.662 9.16185C15.8253 9.16185 15.9614 9.29751 15.9614 9.47013V9.62973C15.9614 9.79814 15.8253 9.938 15.662 9.938H8.70119C8.53739 9.938 8.40137 9.79814 8.40137 9.62973V9.47013C8.40137 9.29751 8.53739 9.16185 8.70119 9.16185H9.92578C10.1745 9.16185 10.391 8.98503 10.447 8.73556L10.5111 8.44912C10.6108 8.05894 10.9388 7.7998 11.3142 7.7998H13.0486C13.4199 7.7998 13.7515 8.05894 13.8475 8.42854L13.9161 8.73514C13.9717 8.98503 14.1882 9.16185 14.4374 9.16185H15.662ZM15.0398 14.996C15.1677 13.8045 15.3915 10.9737 15.3915 10.9452C15.3997 10.8587 15.3715 10.7768 15.3156 10.7108C15.2555 10.6491 15.1795 10.6125 15.0958 10.6125H9.27018C9.18604 10.6125 9.10598 10.6491 9.05042 10.7108C8.99406 10.7768 8.96628 10.8587 8.97036 10.9452C8.97111 10.9504 8.97915 11.0501 8.99258 11.2168C9.05223 11.9574 9.21837 14.02 9.32573 14.996C9.40171 15.7151 9.8735 16.167 10.5569 16.1834C11.0842 16.1956 11.6275 16.1998 12.183 16.1998C12.7062 16.1998 13.2377 16.1956 13.7813 16.1834C14.4884 16.1712 14.9598 15.7273 15.0398 14.996Z" fill="#D11A2A"/>
</svg>
