<svg width="25" height="26" viewBox="0 0 25 26" fill="none" xmlns="http://www.w3.org/2000/svg">
<circle opacity="0.1" cx="12.501" cy="13" r="12.5" fill="#FFD66B"/>
<path fill-rule="evenodd" clip-rule="evenodd" d="M11.2256 16.9025L15.4968 11.379C15.7289 11.0812 15.8114 10.7368 15.7341 10.3862C15.667 10.0674 15.471 9.76433 15.177 9.53441L14.4599 8.96482C13.8358 8.46839 13.062 8.52065 12.6184 9.09024L12.1387 9.7126C12.0768 9.79046 12.0922 9.90542 12.1696 9.96813C12.1696 9.96813 13.3818 10.9401 13.4076 10.961C13.4902 11.0394 13.5521 11.1439 13.5675 11.2693C13.5933 11.5149 13.4231 11.7448 13.1703 11.7762C13.0517 11.7919 12.9382 11.7553 12.8557 11.6873L11.5815 10.6736C11.5196 10.6271 11.4268 10.637 11.3752 10.6997L8.34722 14.6189C8.1512 14.8645 8.08415 15.1832 8.1512 15.4916L8.53809 17.169C8.55872 17.2578 8.6361 17.3205 8.72895 17.3205L10.4312 17.2996C10.7407 17.2944 11.0296 17.1533 11.2256 16.9025ZM13.6091 16.3801H16.3849C16.6557 16.3801 16.8759 16.6033 16.8759 16.8776C16.8759 17.1525 16.6557 17.3751 16.3849 17.3751H13.6091C13.3383 17.3751 13.118 17.1525 13.118 16.8776C13.118 16.6033 13.3383 16.3801 13.6091 16.3801Z" fill="#FFD66B"/>
</svg>
