<svg width="16" height="16" viewBox="0 0 16 16" fill="none" xmlns="http://www.w3.org/2000/svg">
<path fill-rule="evenodd" clip-rule="evenodd" d="M7.83961 2.71977C4.92332 2.71977 2.55961 5.08347 2.55961 7.99977C2.55961 10.9155 4.92335 13.2798 7.83961 13.2798C10.7559 13.2798 13.1196 10.9155 13.1196 7.99977C13.1196 5.08347 10.7559 2.71977 7.83961 2.71977ZM1.59961 7.99977C1.59961 4.55328 4.39313 1.75977 7.83961 1.75977C11.2861 1.75977 14.0796 4.55328 14.0796 7.99977C14.0796 11.4456 11.2861 14.2398 7.83961 14.2398C4.39309 14.2398 1.59961 11.4456 1.59961 7.99977Z" fill="#505876"/>
<path fill-rule="evenodd" clip-rule="evenodd" d="M7.83742 5.15625C8.10251 5.15625 8.31742 5.37116 8.31742 5.63625V8.38797C8.31742 8.65306 8.10251 8.86797 7.83742 8.86797C7.57233 8.86797 7.35742 8.65306 7.35742 8.38797V5.63625C7.35742 5.37116 7.57233 5.15625 7.83742 5.15625ZM7.83985 9.88422C8.10494 9.88422 8.31985 10.0991 8.31985 10.3642V10.3948C8.31985 10.6598 8.10494 10.8748 7.83985 10.8748C7.57477 10.8748 7.35985 10.6598 7.35985 10.3948V10.3642C7.35985 10.0991 7.57477 9.88422 7.83985 9.88422Z" fill="#505876"/>
</svg>
