<svg width="15" height="16" viewBox="0 0 15 16" fill="none" xmlns="http://www.w3.org/2000/svg">
<path d="M6.09524 0.209524C6.33651 0.0698413 6.59048 0 6.85714 0C7.12381 0 7.37778 0.0698413 7.61905 0.209524L12.9524 3.27619C13.1937 3.41587 13.381 3.6 13.5143 3.82857C13.6476 4.05714 13.7143 4.31111 13.7143 4.59048V7.82857C13.4857 7.66349 13.2444 7.52064 12.9905 7.4C12.7365 7.27937 12.4698 7.1746 12.1905 7.08571V5.40952L9.44762 6.99048C8.73651 7.16825 8.09206 7.46984 7.51429 7.89524C6.93651 8.32063 6.46349 8.8381 6.09524 9.44762V8.05714L1.52381 5.40952V10.6286L5.37143 12.8571C5.42222 13.2635 5.51746 13.654 5.65714 14.0286C5.79683 14.4032 5.9746 14.7556 6.19048 15.0857C6.16508 15.073 6.14921 15.0635 6.14286 15.0571C6.13651 15.0508 6.12064 15.0413 6.09524 15.0286L0.761905 11.9619C0.520635 11.8222 0.333333 11.6381 0.2 11.4095C0.0666667 11.181 0 10.927 0 10.6476V4.59048C0 4.31111 0.0666667 4.05714 0.2 3.82857C0.333333 3.6 0.520635 3.41587 0.761905 3.27619L6.09524 0.209524ZM6.85714 1.52381L2.34286 4.13333L6.85714 6.74286L11.3714 4.13333L6.85714 1.52381ZM10.6667 14.4762L12.9524 12.1905L12.419 11.6571L11.0476 13.0286V9.90476H10.2857V13.0286L8.91429 11.6571L8.38095 12.1905L10.6667 14.4762ZM10.6667 16C9.6127 16 8.71429 15.6286 7.97143 14.8857C7.22857 14.1429 6.85714 13.2444 6.85714 12.1905C6.85714 11.1365 7.22857 10.2381 7.97143 9.49524C8.71429 8.75238 9.6127 8.38095 10.6667 8.38095C11.7206 8.38095 12.619 8.75238 13.3619 9.49524C14.1048 10.2381 14.4762 11.1365 14.4762 12.1905C14.4762 13.2444 14.1048 14.1429 13.3619 14.8857C12.619 15.6286 11.7206 16 10.6667 16Z" fill="#505876"/>
</svg>
