<svg width="16" height="17" viewBox="0 0 16 17" fill="none" xmlns="http://www.w3.org/2000/svg">
<path d="M11.9784 2.02125C11.7298 2.04483 11.4857 2.10563 11.2556 2.20422C11.1476 2.24657 11.0445 2.29827 10.9459 2.35453C10.9365 2.35453 10.932 2.35935 10.9226 2.3639L7.52044 4.33036C7.51722 4.33036 7.51561 4.33187 7.51561 4.33491L5.23492 5.649L5.19257 5.65383L5.14569 5.70071C5.08461 5.73821 5.02836 5.78509 4.97663 5.82742L4.97181 4.39144C4.96243 3.12906 5.47869 1.92777 6.36092 1.05947C6.48763 0.937579 6.6189 0.820234 6.75983 0.712266C6.91469 0.590375 7.08373 0.47303 7.26189 0.369607L7.29484 0.350855H7.29967L7.44032 0.266184C7.67017 0.130087 7.92846 0.0644531 8.18645 0.0644531C8.44442 0.0644531 8.70724 0.130087 8.93738 0.266184L11.9781 2.02125H11.9784Z" fill="#505876"/>
<path d="M15.484 9.54368V10.3509C15.484 11.5945 14.8129 12.7535 13.7383 13.3777L10.9836 14.9779C10.9836 14.9779 10.9885 14.9731 10.9885 14.9685C11.0447 14.8887 11.101 14.8088 11.1482 14.7245C11.1575 14.7151 11.1669 14.7057 11.1718 14.6915C11.2374 14.5884 11.2936 14.4849 11.3453 14.3773C11.3877 14.3068 11.4203 14.2363 11.4485 14.1613C11.5283 14.0016 11.5894 13.8374 11.6457 13.6686C11.688 13.5561 11.7207 13.434 11.7491 13.3166C11.7678 13.2604 11.782 13.2041 11.7911 13.1476C11.8099 13.0771 11.8241 13.0066 11.8335 12.9364C11.8664 12.7677 11.8852 12.5986 11.8991 12.425C11.9085 12.3264 11.913 12.2278 11.913 12.1292V12.0167L11.9037 9.61413C11.9082 9.58146 11.9082 9.55788 11.9082 9.53913V6.86889C11.9082 6.77512 11.8988 6.68591 11.8801 6.59668L14.7333 8.24379C15.1933 8.51598 15.4843 9.01349 15.4843 9.54368H15.484Z" fill="#505876"/>
<path d="M11.4433 12.0167C11.4433 12.1434 11.4384 12.2701 11.4293 12.3969C11.4245 12.4861 11.4151 12.575 11.4012 12.6642C11.3918 12.7395 11.3824 12.8145 11.3682 12.8896C11.3634 12.8989 11.3634 12.9131 11.3589 12.9225C11.3495 12.9788 11.3353 13.035 11.3214 13.0916C11.2793 13.2791 11.2228 13.4623 11.1572 13.6405C11.129 13.7203 11.0961 13.8002 11.0634 13.8797C11.0304 13.9547 10.9977 14.0252 10.9602 14.1002C10.9179 14.1894 10.871 14.2787 10.8196 14.363C10.7398 14.504 10.6505 14.6398 10.5519 14.7713C10.5144 14.8276 10.4721 14.8793 10.4252 14.9356C10.3221 15.0717 10.2093 15.1984 10.0874 15.3157C9.94647 15.4566 9.79646 15.5927 9.63223 15.7146C9.47254 15.8414 9.29895 15.9541 9.12079 16.0573C9.12079 16.0621 9.11596 16.0621 9.11596 16.0621L8.95657 16.1559C8.49657 16.4236 7.92405 16.4236 7.4595 16.1559L4.40454 14.3914C4.47019 14.3866 4.54065 14.3772 4.60628 14.3633C4.64378 14.3585 4.67674 14.3539 4.70971 14.3446C4.79409 14.3304 4.87392 14.3071 4.95377 14.2835C5.02423 14.2599 5.09924 14.2366 5.16487 14.2082C5.27285 14.1661 5.37598 14.1144 5.47458 14.0582L8.9003 12.0778C8.9003 12.0778 8.90515 12.0778 8.90515 12.0732L11.1623 10.7685L11.2466 10.7216C11.3171 10.6793 11.3779 10.6324 11.439 10.5762L11.4438 12.017L11.4433 12.0167Z" fill="#505876"/>
<path d="M7.7643 12.1908L5.23954 13.6501C5.15969 13.6969 5.07076 13.7393 4.9861 13.772C4.92047 13.8001 4.85937 13.8237 4.79374 13.8376C4.72811 13.8563 4.66702 13.8751 4.60138 13.8893H4.592C4.50762 13.908 4.42296 13.9174 4.3434 13.9268C4.29652 13.9316 4.2448 13.9316 4.19792 13.9316H4.13684C4.08058 13.9316 4.01949 13.9268 3.96323 13.9223C3.90215 13.9174 3.84589 13.908 3.78964 13.8987C3.78479 13.8987 3.78026 13.8987 3.77571 13.8938C3.71944 13.889 3.66774 13.8751 3.61603 13.8609C3.46572 13.8185 3.32026 13.7623 3.18443 13.6873C3.1796 13.6825 3.17023 13.6779 3.16568 13.6779C3.15147 13.6685 3.13755 13.6592 3.1188 13.6498L1.17139 12.5235L4.74259 10.4727L5.19294 10.7355L7.51598 12.0729C7.59581 12.1197 7.67537 12.1621 7.76459 12.1902L7.7643 12.1908Z" fill="#505876"/>
<path d="M4.50773 9.53944C4.50773 9.6332 4.51711 9.72241 4.53586 9.81164L1.68264 8.16455C1.22264 7.8969 0.936523 7.39967 0.936523 6.86466V6.05745C0.936523 4.81864 1.6028 3.65486 2.67738 3.03062L5.41325 1.44434C4.8126 2.29389 4.47478 3.32611 4.48416 4.40552L4.49353 6.80811H4.51228C4.50745 6.8317 4.50746 6.85045 4.50746 6.8692V9.53944H4.50773Z" fill="#505876"/>
<path d="M15.2492 3.88464L11.678 5.93549L11.2464 5.68687L11.2276 5.67267L8.90487 4.33527C8.82501 4.2884 8.74063 4.25089 8.65625 4.21792L11.181 2.75864C11.2467 2.72114 11.3123 2.68818 11.3782 2.66488C11.3876 2.65551 11.4018 2.65068 11.4112 2.65068C11.4768 2.62255 11.5424 2.59896 11.6083 2.58021C12.1479 2.42054 12.7346 2.47225 13.2321 2.74444L13.2415 2.72569C13.2603 2.73506 13.2745 2.74444 13.3026 2.75864L15.25 3.88492L15.2492 3.88464Z" fill="#505876"/>
</svg>
