<svg width="24" height="24" viewBox="0 0 24 24" fill="none" xmlns="http://www.w3.org/2000/svg">
<path d="M10.875 14.75H13.125L12.6938 12.3313C12.9438 12.2063 13.1406 12.025 13.2844 11.7875C13.4281 11.55 13.5 11.2875 13.5 11C13.5 10.5875 13.3531 10.2344 13.0594 9.94063C12.7656 9.64688 12.4125 9.5 12 9.5C11.5875 9.5 11.2344 9.64688 10.9406 9.94063C10.6469 10.2344 10.5 10.5875 10.5 11C10.5 11.2875 10.5719 11.55 10.7156 11.7875C10.8594 12.025 11.0563 12.2063 11.3063 12.3313L10.875 14.75ZM12 20C10.2625 19.5625 8.82813 18.5656 7.69688 17.0094C6.56563 15.4531 6 13.725 6 11.825V7.25L12 5L18 7.25V11.825C18 13.725 17.4344 15.4531 16.3031 17.0094C15.1719 18.5656 13.7375 19.5625 12 20ZM12 18.425C13.3 18.0125 14.375 17.1875 15.225 15.95C16.075 14.7125 16.5 13.3375 16.5 11.825V8.28125L12 6.59375L7.5 8.28125V11.825C7.5 13.3375 7.925 14.7125 8.775 15.95C9.625 17.1875 10.7 18.0125 12 18.425Z" fill="#505876"/>
</svg>
