<svg width="34" height="34" viewBox="0 0 34 34" fill="none" xmlns="http://www.w3.org/2000/svg">
<path d="M0 16C0 7.16344 7.16344 0 16 0H18C26.8366 0 34 7.16344 34 16V18C34 26.8366 26.8366 34 18 34H16C7.16344 34 0 26.8366 0 18V16Z" fill="#FFF1C2"/>
<path fill-rule="evenodd" clip-rule="evenodd" d="M25.039 10.4148C23.3588 11.7759 21.3224 13.426 21.1346 13.5778C20.9488 13.3706 18.4668 10.5792 17.4403 9.42432C17.2059 9.16065 16.7943 9.16065 16.5598 9.42432C15.5324 10.5792 13.0514 13.3706 12.8656 13.5778C12.6778 13.426 10.6414 11.7759 8.96113 10.4148C8.5379 10.0713 7.91522 10.4381 8.0096 10.9742C8.25672 12.3801 9.98388 19.7871 10.3322 22.1932C10.5239 23.5193 11.6603 24.5 13 24.5H21C22.3397 24.5 23.4761 23.5193 23.6678 22.1932C24.0161 19.7871 25.7434 12.3801 25.9906 10.9742C26.084 10.4371 25.4623 10.0713 25.039 10.4148Z" fill="#F4BA0F"/>
<path d="M10.332 20H23.6624" stroke="#D69A0E" stroke-width="1.5" stroke-linecap="round" stroke-linejoin="round"/>
</svg>
