<svg width="28" height="30" viewBox="0 0 28 30" fill="none" xmlns="http://www.w3.org/2000/svg">
<path d="M8.7675 12.991L8.75113 9.55148C8.73475 7.04617 10.0741 4.72308 12.2486 3.47441L12.4799 3.33376C13.2487 2.88745 14.1913 2.88745 14.9605 3.33376L21.1035 6.88075C20.0781 6.31855 18.8215 6.33493 17.8046 6.92189L12.8935 9.75763L9.88391 11.4938L9.58623 11.6676C9.57783 11.6676 9.57783 11.676 9.56986 11.676C9.09877 11.9653 8.80109 12.4531 8.76792 12.9906" fill="#2AAD8E"/>
<path d="M24.4966 16.9095V18.0671C24.4966 19.9687 23.4797 21.73 21.8342 22.6889L15.2197 26.5252C17.3942 25.2765 18.7335 22.9534 18.7172 20.4481L18.7008 17.0086V16.9839C18.7092 16.9591 18.7092 16.9259 18.7092 16.9011V13.0812C18.7092 12.5027 18.4031 11.9648 17.8989 11.6592L18.7092 12.1303L23.2567 14.7594C24.0255 15.2057 24.497 16.0245 24.497 16.9091L24.4966 16.9095Z" fill="#45C9A9"/>
<path d="M18.7185 20.4479C18.7349 22.9532 17.3956 25.2763 15.2211 26.5249L14.9897 26.6656C14.221 27.1119 13.2784 27.1119 12.5092 26.6656L6.36621 23.1186C7.39151 23.6808 8.64816 23.6644 9.66506 23.0775L14.5762 20.2417L17.5858 18.5056L17.8834 18.3318C17.8918 18.3318 17.8918 18.3234 17.8998 18.3234C18.3709 18.0341 18.6686 17.5462 18.7017 17.0088L18.7181 20.4483L18.7185 20.4479Z" fill="#2AAD8E"/>
<path d="M14.5752 20.2415L9.66404 23.0773C8.64714 23.6643 7.39049 23.6811 6.36519 23.1184C6.34042 23.1021 6.31565 23.0937 6.29087 23.0773L3 21.1762L8.78779 17.8525L9.59812 18.3236C9.60652 18.3236 9.60652 18.332 9.6145 18.332L12.9217 20.242C13.4344 20.5397 14.0629 20.5397 14.5752 20.242V20.2415Z" fill="#13947D"/>
<path d="M9.59812 18.3221L8.78779 17.851L4.24027 15.2218C3.4715 14.7755 3 13.9568 3 13.0721V11.9146C3 10.013 4.0169 8.25171 5.66234 7.29275L12.2773 3.45605C10.1028 4.70472 8.76344 7.02781 8.77981 9.53313L8.79619 12.9726V12.9974C8.78779 13.0222 8.78779 13.0553 8.78779 13.0801V16.9C8.78779 17.4786 9.09387 18.016 9.59812 18.3221Z" fill="#45C9A9"/>
<path d="M24.498 8.80353L18.7102 12.1271L17.8999 11.6561C17.8915 11.6561 17.8915 11.6477 17.8835 11.6477L14.5763 9.73772C14.0636 9.44004 13.4351 9.44004 12.9229 9.73772L17.834 6.90197C18.8509 6.31501 20.1075 6.29863 21.1328 6.86083C21.1576 6.8772 21.1824 6.8856 21.2071 6.90197L24.498 8.80353Z" fill="#13947D"/>
</svg>
