<svg width="25" height="24" viewBox="0 0 25 24" fill="none" xmlns="http://www.w3.org/2000/svg">
<path d="M9.56006 19.5639C8.66506 19.5639 8.12423 18.92 8.08594 18.0232C8.08594 16.1978 9.86797 15.5681 12.553 15.5469C15.2428 15.5752 17.0296 16.2049 17.02 18.0232C16.9769 18.92 16.4393 19.5639 15.5459 19.5639H9.56006Z" stroke="#707070" stroke-width="1.5" stroke-miterlimit="10"/>
<path d="M12.5537 13.2324C13.8433 13.2324 14.8887 12.187 14.8887 10.8975C14.8887 9.6079 13.8433 8.5625 12.5537 8.5625C11.2641 8.5625 10.2188 9.6079 10.2188 10.8975C10.2188 12.187 11.2641 13.2324 12.5537 13.2324Z" stroke="#707070" stroke-width="1.5" stroke-miterlimit="10"/>
<path d="M7.10954 10.8828C4.88008 10.9004 3.40039 11.4233 3.40039 12.939C3.43218 13.6837 3.88125 14.2183 4.62441 14.2183H7.51158" stroke="#707070" stroke-width="1.5" stroke-miterlimit="10" stroke-linecap="round" stroke-linejoin="round"/>
<path d="M17.6911 10.8828C19.9206 10.9004 21.4003 11.4233 21.4003 12.939C21.3685 13.6837 20.9194 14.2183 20.1763 14.2183H17.2891" stroke="#707070" stroke-width="1.5" stroke-miterlimit="10" stroke-linecap="round" stroke-linejoin="round"/>
<path d="M6.84506 8.31511C7.91583 8.31511 8.78386 7.44708 8.78386 6.37631C8.78386 5.30553 7.91583 4.4375 6.84506 4.4375C5.77428 4.4375 4.90625 5.30553 4.90625 6.37631C4.90625 7.44708 5.77428 8.31511 6.84506 8.31511Z" stroke="#707070" stroke-width="1.5" stroke-miterlimit="10"/>
<path d="M17.9544 8.31511C16.8836 8.31511 16.0156 7.44708 16.0156 6.37631C16.0156 5.30553 16.8836 4.4375 17.9544 4.4375C19.0252 4.4375 19.8932 5.30553 19.8932 6.37631C19.8932 7.44708 19.0252 8.31511 17.9544 8.31511Z" stroke="#707070" stroke-width="1.5" stroke-miterlimit="10"/>
</svg>
