<svg width="25" height="24" viewBox="0 0 25 24" fill="none" xmlns="http://www.w3.org/2000/svg">
<path fill-rule="evenodd" clip-rule="evenodd" d="M5.73242 2.25C6.14663 2.25 6.48242 2.58579 6.48242 3V3.3902H12.9368C13.351 3.3902 13.6868 3.72599 13.6868 4.1402V5.50148H20.2704C20.5333 5.50148 20.7771 5.63923 20.9128 5.86451C21.0485 6.0898 21.0563 6.36969 20.9333 6.60217L18.4296 11.3353L20.9301 15.9612C21.0542 16.1908 21.0501 16.4683 20.9192 16.694C20.7883 16.9198 20.5495 17.0613 20.2887 17.0676L12.9573 17.2467C12.7553 17.2516 12.5598 17.1748 12.4152 17.0336C12.2706 16.8925 12.189 16.699 12.189 16.4969V14.9754L6.48242 15.1172V21C6.48242 21.4142 6.14663 21.75 5.73242 21.75C5.3182 21.75 4.98242 21.4142 4.98242 21V3C4.98242 2.58579 5.3182 2.25 5.73242 2.25ZM6.48242 13.6167L12.1868 13.475V4.8902H6.48242V13.6167ZM13.6868 12.7915C13.6883 12.8105 13.689 12.8298 13.689 12.8492V15.7283L19.0286 15.598L16.9193 11.6958C16.8002 11.4754 16.799 11.21 16.9161 10.9885L19.0252 7.00148H13.6868V12.7915Z" fill="#707070"/>
</svg>
