<svg width="25" height="24" viewBox="0 0 25 24" fill="none" xmlns="http://www.w3.org/2000/svg">
<path fill-rule="evenodd" clip-rule="evenodd" d="M10.126 11.9868H10.158C13.0711 11.9868 15.4411 9.61687 15.4411 6.70388C15.4411 3.79087 13.0711 1.42188 10.158 1.42188C7.24503 1.42188 4.87503 3.79087 4.87503 6.70087C4.86503 9.60588 7.21903 11.9778 10.126 11.9868ZM6.37503 6.70388C6.37503 4.61788 8.07203 2.92188 10.158 2.92188C12.2441 2.92188 13.9411 4.61788 13.9411 6.70388C13.9411 8.78988 12.2441 10.4868 10.158 10.4868H10.129C8.05203 10.4808 6.36803 8.78387 6.37503 6.70388Z" fill="#424242" fill-opacity="0.8"/>
<path fill-rule="evenodd" clip-rule="evenodd" d="M2.33594 18.9423C2.33594 22.2023 6.79994 22.5792 10.1579 22.5792C12.093 22.5792 17.98 22.5793 17.98 18.9222C17.98 16.1352 14.398 13.7812 10.1579 13.7812C5.91794 13.7812 2.33594 16.1443 2.33594 18.9423ZM3.83594 18.9423C3.83594 17.2143 6.53994 15.2812 10.1579 15.2812C13.776 15.2812 16.48 17.2032 16.48 18.9222C16.48 20.3532 14.353 21.0792 10.1579 21.0792C5.96294 21.0792 3.83594 20.3603 3.83594 18.9423Z" fill="#424242" fill-opacity="0.8"/>
<path d="M19.3672 12.9084C18.9532 12.9084 18.6172 12.5724 18.6172 12.1584V10.9035H17.3242C16.9102 10.9035 16.5742 10.5675 16.5742 10.1535C16.5742 9.73956 16.9102 9.40356 17.3242 9.40356H18.6172V8.14844C18.6172 7.73444 18.9532 7.39844 19.3672 7.39844C19.7812 7.39844 20.1172 7.73444 20.1172 8.14844V9.40356H21.4142C21.8282 9.40356 22.1642 9.73956 22.1642 10.1535C22.1642 10.5675 21.8282 10.9035 21.4142 10.9035H20.1172V12.1584C20.1172 12.5724 19.7812 12.9084 19.3672 12.9084Z" fill="#424242" fill-opacity="0.8"/>
</svg>
