<svg width="138" height="28" viewBox="0 0 138 28" fill="none" xmlns="http://www.w3.org/2000/svg">
<g clip-path="url(#clip0_5475_3774)">
<path d="M7.40001 11.8832L7.38297 8.30434C7.36593 5.6975 8.75957 3.28025 11.0222 1.98098L11.2629 1.83463C12.0628 1.37023 13.0436 1.37023 13.8439 1.83463L20.2359 5.52537C19.169 4.94039 17.8615 4.95743 16.8034 5.56818L11.6932 8.51885L8.56166 10.3253L8.25192 10.5062C8.24318 10.5062 8.24318 10.5149 8.23488 10.5149C7.7447 10.8159 7.43496 11.3236 7.40044 11.8828" fill="#2AAD8E"/>
<path d="M23.77 15.9592V17.1637C23.77 19.1423 22.7119 20.975 20.9998 21.9729L14.1172 25.9646C16.3798 24.6653 17.7734 22.2481 17.7564 19.6412L17.7393 16.0623V16.0366C17.7481 16.0108 17.7481 15.9763 17.7481 15.9505V11.9758C17.7481 11.3738 17.4296 10.8141 16.9049 10.4961L17.7481 10.9863L22.4799 13.722C23.2798 14.1864 23.7704 15.0383 23.7704 15.9588L23.77 15.9592Z" fill="#45C9A9"/>
<path d="M17.7514 19.6429C17.7684 22.2498 16.3748 24.667 14.1122 25.9663L13.8715 26.1126C13.0715 26.577 12.0907 26.577 11.2904 26.1126L4.89844 22.4219C5.96529 23.0069 7.27287 22.9898 8.33098 22.3791L13.4411 19.4284L16.5727 17.6219L16.8824 17.4411C16.8912 17.4411 16.8912 17.4323 16.8995 17.4323C17.3896 17.1313 17.6994 16.6237 17.7339 16.0645L17.7509 19.6433L17.7514 19.6429Z" fill="#2AAD8E"/>
<path d="M13.4427 19.4272L8.33256 22.3779C7.27444 22.9887 5.96686 23.0061 4.90001 22.4207C4.87423 22.4037 4.84846 22.3949 4.82268 22.3779L1.39844 20.3997L7.42079 16.9414L8.26397 17.4316C8.2727 17.4316 8.2727 17.4403 8.281 17.4403L11.7223 19.4277C12.2557 19.7374 12.9097 19.7374 13.4427 19.4277V19.4272Z" fill="#13947D"/>
<path d="M8.26397 17.4314L7.42079 16.9412L2.68897 14.2055C1.88905 13.7411 1.39844 12.8892 1.39844 11.9687V10.7642C1.39844 8.7856 2.45655 6.9529 4.16868 5.95507L11.0517 1.96289C8.78909 3.26216 7.39545 5.6794 7.41249 8.28625L7.42953 11.8651V11.8909C7.42079 11.9167 7.42079 11.9512 7.42079 11.977V15.9517C7.42079 16.5537 7.73928 17.1129 8.26397 17.4314Z" fill="#45C9A9"/>
<path d="M23.763 7.52878L17.7407 10.9871L16.8975 10.4969C16.8888 10.4969 16.8888 10.4882 16.8805 10.4882L13.4392 8.50083C12.9057 8.19109 12.2517 8.19109 11.7188 8.50083L16.8289 5.55017C17.887 4.93941 19.1946 4.92237 20.2615 5.50735C20.2872 5.52439 20.313 5.53313 20.3388 5.55017L23.763 7.52878Z" fill="#13947D"/>
</g>
<path d="M133.759 10.5709C133.696 9.93475 133.425 9.44054 132.946 9.08829C132.468 8.73603 131.819 8.55991 130.999 8.55991C130.441 8.55991 129.971 8.63877 129.587 8.7965C129.203 8.94897 128.909 9.16189 128.704 9.43528C128.504 9.70868 128.404 10.0189 128.404 10.3659C128.393 10.655 128.454 10.9074 128.585 11.1229C128.722 11.3385 128.909 11.5251 129.145 11.6829C129.382 11.8353 129.655 11.9694 129.965 12.0851C130.276 12.1955 130.607 12.2901 130.959 12.369L132.41 12.716C133.115 12.8737 133.761 13.084 134.35 13.3469C134.939 13.6098 135.449 13.9331 135.88 14.3169C136.311 14.7007 136.645 15.1528 136.882 15.6733C137.124 16.1938 137.247 16.7905 137.252 17.4635C137.247 18.4519 136.995 19.3089 136.495 20.0344C136.001 20.7547 135.286 21.3146 134.35 21.7142C133.42 22.1085 132.297 22.3057 130.983 22.3057C129.679 22.3057 128.543 22.1059 127.576 21.7063C126.614 21.3068 125.862 20.7153 125.32 19.9319C124.784 19.1433 124.503 18.168 124.477 17.0061H127.781C127.818 17.5476 127.973 17.9998 128.246 18.3625C128.525 18.7201 128.896 18.9908 129.358 19.1748C129.826 19.3536 130.354 19.443 130.943 19.443C131.522 19.443 132.024 19.3588 132.45 19.1906C132.881 19.0224 133.215 18.7884 133.451 18.4887C133.688 18.189 133.806 17.8447 133.806 17.4556C133.806 17.0929 133.698 16.7879 133.483 16.5408C133.272 16.2937 132.962 16.0834 132.552 15.9099C132.147 15.7364 131.65 15.5787 131.062 15.4367L129.303 14.9951C127.941 14.6639 126.866 14.146 126.077 13.4415C125.289 12.737 124.897 11.788 124.902 10.5946C124.897 9.61667 125.157 8.76232 125.683 8.03153C126.214 7.30073 126.942 6.73029 127.868 6.32021C128.793 5.91012 129.844 5.70508 131.022 5.70508C132.221 5.70508 133.267 5.91012 134.161 6.32021C135.06 6.73029 135.759 7.30073 136.259 8.03153C136.758 8.76232 137.016 9.60878 137.032 10.5709H133.759Z" fill="#F7FAFF"/>
<path d="M122.462 14.0014C122.462 15.7627 122.128 17.2611 121.46 18.4966C120.798 19.7321 119.894 20.6758 118.747 21.3278C117.606 21.9745 116.324 22.2978 114.899 22.2978C113.464 22.2978 112.175 21.9718 111.035 21.3199C109.894 20.668 108.992 19.7242 108.33 18.4887C107.667 17.2532 107.336 15.7574 107.336 14.0014C107.336 12.2402 107.667 10.7418 108.33 9.50626C108.992 8.27075 109.894 7.32965 111.035 6.68298C112.175 6.03104 113.464 5.70508 114.899 5.70508C116.324 5.70508 117.606 6.03104 118.747 6.68298C119.894 7.32965 120.798 8.27075 121.46 9.50626C122.128 10.7418 122.462 12.2402 122.462 14.0014ZM119 14.0014C119 12.8606 118.829 11.8984 118.487 11.1151C118.151 10.3317 117.675 9.73759 117.06 9.33276C116.445 8.92794 115.724 8.72552 114.899 8.72552C114.073 8.72552 113.353 8.92794 112.738 9.33276C112.123 9.73759 111.644 10.3317 111.303 11.1151C110.966 11.8984 110.798 12.8606 110.798 14.0014C110.798 15.1423 110.966 16.1044 111.303 16.8878C111.644 17.6712 112.123 18.2653 112.738 18.6701C113.353 19.0749 114.073 19.2774 114.899 19.2774C115.724 19.2774 116.445 19.0749 117.06 18.6701C117.675 18.2653 118.151 17.6712 118.487 16.8878C118.829 16.1044 119 15.1423 119 14.0014Z" fill="#F7FAFF"/>
<path d="M103.374 0.71875V27.2797H101.797V0.71875H103.374Z" fill="#F7FAFF"/>
<path d="M89.7971 15.07V22.073H86.4375V5.92188H89.7024V12.0968H89.8444C90.1178 11.3818 90.5594 10.8219 91.1693 10.417C91.7791 10.007 92.5441 9.80192 93.4642 9.80192C94.3054 9.80192 95.0388 9.98593 95.6644 10.354C96.2953 10.7167 96.7843 11.2399 97.1313 11.9233C97.4835 12.6015 97.657 13.4138 97.6518 14.3602V22.073H94.2922V14.9595C94.2975 14.213 94.1082 13.632 93.7244 13.2167C93.3459 12.8013 92.8149 12.5937 92.1314 12.5937C91.674 12.5937 91.2692 12.6909 90.9169 12.8855C90.5699 13.08 90.2965 13.3639 90.0967 13.7372C89.9022 14.1052 89.8023 14.5495 89.7971 15.07Z" fill="#F7FAFF"/>
<path d="M83.9901 9.96074V12.4843H76.6953V9.96074H83.9901ZM78.3514 7.05859H81.711V18.3517C81.711 18.6619 81.7583 18.9038 81.8529 19.0773C81.9476 19.2455 82.079 19.3638 82.2472 19.4322C82.4207 19.5005 82.6205 19.5347 82.8466 19.5347C83.0043 19.5347 83.1621 19.5215 83.3198 19.4952C83.4775 19.4637 83.5984 19.44 83.6825 19.4243L84.2109 21.9242C84.0427 21.9768 83.8061 22.0373 83.5012 22.1056C83.1962 22.1792 82.8256 22.2239 82.3892 22.2397C81.5795 22.2712 80.8698 22.1634 80.2599 21.9163C79.6553 21.6692 79.1847 21.2854 78.8483 20.7649C78.5118 20.2444 78.3462 19.5873 78.3514 18.7934V7.05859Z" fill="#F7FAFF"/>
<path d="M66.6065 26.6167C66.1807 26.6167 65.7811 26.5826 65.4078 26.5142C65.0398 26.4511 64.7349 26.3696 64.493 26.2697L65.2501 23.7619C65.6444 23.8828 65.9993 23.9486 66.3147 23.9591C66.6354 23.9696 66.9115 23.896 67.1428 23.7383C67.3794 23.5805 67.5713 23.3124 67.7185 22.9339L67.9156 22.4212L63.5703 9.96094H67.1034L69.6112 18.8567H69.7374L72.2689 9.96094H75.8256L71.1175 23.3834C70.8914 24.0353 70.5838 24.6031 70.1948 25.0868C69.811 25.5758 69.3247 25.9517 68.7358 26.2145C68.147 26.4827 67.4372 26.6167 66.6065 26.6167Z" fill="#F7FAFF"/>
<path d="M44.7109 22.0757V9.96241H47.9128V12.0996H48.0547C48.3071 11.3898 48.7277 10.8299 49.3165 10.4198C49.9054 10.0097 50.6099 9.80469 51.43 9.80469C52.2607 9.80469 52.9679 10.0124 53.5514 10.4277C54.135 10.8378 54.5241 11.3951 54.7186 12.0996H54.8448C55.0919 11.4056 55.5388 10.8509 56.1855 10.4356C56.8374 10.015 57.6076 9.80469 58.4961 9.80469C59.6265 9.80469 60.5439 10.1648 61.2484 10.8851C61.9582 11.6001 62.3131 12.6148 62.3131 13.9292V22.0757H58.9614V14.5917C58.9614 13.9187 58.7827 13.414 58.4252 13.0775C58.0677 12.741 57.6208 12.5728 57.0845 12.5728C56.4746 12.5728 55.9988 12.7673 55.6571 13.1564C55.3153 13.5402 55.1445 14.0475 55.1445 14.6784V22.0757H51.8874V14.5207C51.8874 13.9266 51.7166 13.4534 51.3748 13.1011C51.0384 12.7489 50.5941 12.5728 50.0421 12.5728C49.6688 12.5728 49.3323 12.6674 49.0326 12.8567C48.7382 13.0407 48.5042 13.3009 48.3307 13.6374C48.1572 13.9686 48.0705 14.3577 48.0705 14.8046V22.0757H44.7109Z" fill="#F7FAFF"/>
<path d="M38.9853 10.5709C38.9222 9.93475 38.6514 9.44054 38.173 9.08829C37.6945 8.73603 37.0452 8.55991 36.2251 8.55991C35.6678 8.55991 35.1972 8.63877 34.8134 8.7965C34.4296 8.94897 34.1352 9.16189 33.9302 9.43528C33.7304 9.70868 33.6305 10.0189 33.6305 10.3659C33.62 10.655 33.6804 10.9074 33.8119 11.1229C33.9486 11.3385 34.1352 11.5251 34.3718 11.6829C34.6084 11.8353 34.8818 11.9694 35.192 12.0851C35.5022 12.1955 35.8334 12.2901 36.1856 12.369L37.6367 12.716C38.3412 12.8737 38.9879 13.084 39.5767 13.3469C40.1656 13.6098 40.6756 13.9331 41.1067 14.3169C41.5378 14.7007 41.8716 15.1528 42.1082 15.6733C42.3501 16.1938 42.4736 16.7905 42.4789 17.4635C42.4736 18.4519 42.2213 19.3089 41.7218 20.0344C41.2276 20.7547 40.5126 21.3146 39.5767 21.7142C38.6462 22.1085 37.5237 22.3057 36.2093 22.3057C34.9054 22.3057 33.7698 22.1059 32.8024 21.7063C31.8403 21.3068 31.0885 20.7153 30.547 19.9319C30.0107 19.1433 29.7294 18.168 29.7031 17.0061H33.0075C33.0443 17.5476 33.1994 17.9998 33.4728 18.3625C33.7514 18.7201 34.1221 18.9908 34.5847 19.1748C35.0526 19.3536 35.581 19.443 36.1699 19.443C36.7482 19.443 37.2503 19.3588 37.6761 19.1906C38.1073 19.0224 38.4411 18.7884 38.6777 18.4887C38.9143 18.189 39.0326 17.8447 39.0326 17.4556C39.0326 17.0929 38.9248 16.7879 38.7092 16.5408C38.4989 16.2937 38.1888 16.0834 37.7787 15.9099C37.3738 15.7364 36.877 15.5787 36.2882 15.4367L34.5295 14.9951C33.1678 14.6639 32.0927 14.146 31.304 13.4415C30.5154 12.737 30.1237 11.788 30.129 10.5946C30.1237 9.61667 30.384 8.76232 30.9097 8.03153C31.4407 7.30073 32.1689 6.73029 33.0942 6.32021C34.0195 5.91012 35.071 5.70508 36.2487 5.70508C37.4474 5.70508 38.4937 5.91012 39.3875 6.32021C40.2865 6.73029 40.9858 7.30073 41.4852 8.03153C41.9847 8.76232 42.2423 9.60878 42.2581 10.5709H38.9853Z" fill="#F7FAFF"/>
<defs>
<clipPath id="clip0_5475_3774">
<rect width="25.1703" height="25.1703" fill="white" transform="translate(0 1.38867)"/>
</clipPath>
</defs>
</svg>
